<mxfile host="drawio-plugin" modified="2022-02-17T03:07:55.573Z" agent="5.0 (Macintosh; Intel Mac OS X 10_15_7) AppleWebKit/537.36 (KHTML, like Gecko) Chrome/89.0.4389.114 Safari/537.36" version="15.5.4" etag="i1OceR-vl7cQ9_xiHp4y" type="embed"><diagram id="FdjqCngw8XHAfb6EBNpW" name="Page-1"><mxGraphModel dx="1804" dy="2188" grid="1" gridSize="10" guides="1" tooltips="1" connect="1" arrows="1" fold="1" page="1" pageScale="1" pageWidth="850" pageHeight="1100" math="0" shadow="0"><root><mxCell id="0"/><mxCell id="1" parent="0"/><mxCell id="2" value="" style="shape=image;verticalLabelPosition=bottom;labelBackgroundColor=#ffffff;verticalAlign=top;aspect=fixed;imageAspect=0;image=data:image/png,iVBORw0KGgoAAAANSUhEUgAABK4AAATWCAYAAAAM6+7TAAABQWlDQ1BJQ0MgUHJvZmlsZQAAKJFjYGASSCwoyGFhYGDIzSspCnJ3UoiIjFJgf8bAyCDCwMugxsCYmFxc4BgQ4ANUwgCjUcG3a0DVQHBZF2TW3wtL7rtmXzE++LFdoMk/dT+mehTAlZJanAyk/wBxUnJBUQkDA2MCkK1cXlIAYrcA2SJFQEcB2TNA7HQIew2InQRhHwCrCQlyBrKvANkCyRmJKUD2EyBbJwlJPB2JDbUXBDh8go2NHM0NCDiVdFCSWlECop3zCyqLMtMzShQcgSGUquCZl6yno2BkYGTEwAAKb4jqzzfA4cgoxoEQK05nYLA0AwpyIsRirBkYtsUzMPC9QYipmwC9lMXAcNi8ILEoEe4Axm8sxWnGRhA293YGBtZp//9/DmdgYNdkYPh7/f//39v///+7jIGB+RYDw4FvANJ7XlkkjmPcAAAAVmVYSWZNTQAqAAAACAABh2kABAAAAAEAAAAaAAAAAAADkoYABwAAABIAAABEoAIABAAAAAEAAASuoAMABAAAAAEAAATWAAAAAEFTQ0lJAAAAU2NyZWVuc2hvdEEW8DMAAAHYaVRYdFhNTDpjb20uYWRvYmUueG1wAAAAAAA8eDp4bXBtZXRhIHhtbG5zOng9ImFkb2JlOm5zOm1ldGEvIiB4OnhtcHRrPSJYTVAgQ29yZSA1LjQuMCI+CiAgIDxyZGY6UkRGIHhtbG5zOnJkZj0iaHR0cDovL3d3dy53My5vcmcvMTk5OS8wMi8yMi1yZGYtc3ludGF4LW5zIyI+CiAgICAgIDxyZGY6RGVzY3JpcHRpb24gcmRmOmFib3V0PSIiCiAgICAgICAgICAgIHhtbG5zOmV4aWY9Imh0dHA6Ly9ucy5hZG9iZS5jb20vZXhpZi8xLjAvIj4KICAgICAgICAgPGV4aWY6UGl4ZWxYRGltZW5zaW9uPjExOTg8L2V4aWY6UGl4ZWxYRGltZW5zaW9uPgogICAgICAgICA8ZXhpZjpVc2VyQ29tbWVudD5TY3JlZW5zaG90PC9leGlmOlVzZXJDb21tZW50PgogICAgICAgICA8ZXhpZjpQaXhlbFlEaW1lbnNpb24+MTIzODwvZXhpZjpQaXhlbFlEaW1lbnNpb24+CiAgICAgIDwvcmRmOkRlc2NyaXB0aW9uPgogICA8L3JkZjpSREY+CjwveDp4bXBtZXRhPgqd3rCrAABAAElEQVR4AezdCZwcRdnH8cowOxyCQeSMEBCUUxBECAIBQwAP4EUEVARBbg3IC3KDIDdyKAgBXwWV+1QMcgoop3LKIQjhUggBAQkQboZk8uZfS/VUT/fMPpvtZDu7v/p8kq6ufrq6+tu1vbM1fQxZaaWVprk2qauryy/54IMP2kR0F1vjFD1s2DD3wgsvFFKfdbvWONqXf1jw65sLfvgFAc5/QaI55eejaRHnrC7WONVN/4uFu/P4ZU1UYnWxxqlO+p8U0gm/tEeYs7pY41Qv/S/oNqf4NS3inNXFGqe66X+xcHcev6yJSqwu1jjVOVD6X0U7Q0IAAQQQQAABBBBAAAEEEEAAAQQQQKBsAtV6vd5jmywxqsQS12g0THHW+oqOo30SzU8c3xl30Zr44cf5Jb8P8PPRNxf88JMA55e+9QP88AsCls9rii0yjv4X9LNTizN+WbdQgl+QSE8tLlrDEkf/S9vGc0X6ccVVLEseAQQQQAABBBBAAAEEEEAAAQQQQKA0AgxcleZQ0BAEEEAAAQQQQAABBBBAAAEEEEAAgViAgatYgzwCCCCAAAIIIIAAAggggAACCCCAQGkEGLgqzaGgIQgggAACCCCAAAIIIIAAAggggAACsQADV7EGeQQQQAABBBBAAAEEEEAAAQQQQACB0ggwcFWaQ0FDEEAAAQQQQAABBBBAAAEEEEAAAQRiAQauYg3yCCCAAAIIIIAAAggggAACCCCAAAKlEWDgqjSHgoYggAACCCCAAAIIIIAAAggggAACCMQCQ0aPHj0tLojzlUr3uFaj0YiLM3lrnFYcOnSomzx5cqaOuMBaX9FxtC8+Cs281Rm/plmcwy/WaOatLtY41cz5pekbcvgFifTU6mKNU+30v7Sx5vDLmvTGBT/8ggDnlyDRnPLz0bSIc1YXa5zqpv/Fwt15/LImKrG6WONUJ/1PCuk0GP2qEyZMSCtEc7Vazc/V6/WoNJu1xmnN4cOHu07bVIy1vqLjaJ8EssnqrDU5vvhZ+0vRcfS/bN9TidUZP/x601+s/coaR/+j/9H/8vtAKOXzVZBoTjm/NC3inNXFGqe66X+xcHcev6yJSqwu1jjVSf+TQjoNRj9uFUz3AeYQQAABBBBAAAEEEEAAAQQQQAABBEoiwMBVSQ4EzUAAAQQQQAABBBBAAAEEEEAAAQQQSAswcJX2YA4BBBBAAAEEEEAAAQQQQAABBBBAoCQCDFyV5EDQDAQQQAABBBBAAAEEEEAAAQQQQACBtAADV2kP5hBAAAEEEEAAAQQQQAABBBBAAAEESiLAwFVJDgTNQAABBBBAAAEEEEAAAQQQQAABBBBICzBwlfZgDgEEEEAAAQQQQAABBBBAAAEEEECgJALVWq3WtildXV1tl8ULrHFap1KpuE7bVIy1vqLjaJ8EssnqrDU5vvhZ+0vRcfS/bN9TidUZP/x601+s/coaR/+j/9H/8vtAKOXzVZBoTjm/NC3inNXFGqe66X+xcHcev6yJSqwu1jjVSf+TQjoNRj+uuEr3AeYQQAABBBBAAAEEEEAAAQQQQAABBEoiUK3X6z02xRKjSixxjUbDFGetr+g42ifR/MTxnXEXrYkffpxf8vsAPx99c8EPPwlwfulbP8APvyBg+bym2CLj6H9BPzu1OOOXdQsl+AWJ9NTiojUscfS/tG08V6QfV1zFsuQRQAABBBBAAAEEEEAAAQQQQAABBEojwMBVaQ4FDUEAAQQQQAABBBBAAAEEEEAAAQQQiAUYuIo1yCOAAAIIIIAAAggggAACCCCAAAIIlEaAgavSHAoaggACCCCAAAIIIIAAAggggAACCCAQCzBwFWuQRwABBBBAAAEEEEAAAQQQQAABBBAojQADV6U5FDQEAQQQQAABBBBAAAEEEEAAAQQQQCAWYOAq1iCPAAIIIIAAAggggAACCCCAAAIIIFAagWqtVmvbmK6urrbL4gXWOK1TqVRcp20qxlpf0XG0TwLZZHXWmhxf/Kz9peg4+l+276nE6owffr3pL9Z+ZY2j/9H/6H/5fSCU8vkqSDSnnF+aFnHO6mKNU930v1i4O49f1kQlVhdrnOqk/0khnQajH1dcpfsAcwgggAACCCCAAAIIIIAAAggggAACJRGo1uv1HptiiVEllrhGo2GKs9ZXdBztk2h+4vjOuIvWxA8/zi/5fYCfj7654IefBDi/9K0f4IdfELB8XlNskXH0v6CfnVqc8cu6hRL8gkR6anHRGpY4+l/aNp4r0o8rrmJZ8ggggAACCCCAAAIIIIAAAggggAACpRFg4Ko0h4KGIIAAAggggAACCCCAAAIIIIAAAgjEAgxcxRrkEUAAAQQQQAABBBBAAAEEEEAAAQRKI8DAVWkOBQ1BAAEEEEAAAQQQQAABBBBAAAEEEIgFGLiKNcgjgAACCCCAAAIIIIAAAggggAACCJRGgIGr0hwKGoIAAggggAACCCCAAAIIIIAAAgggEAswcBVrkEcAAQQQQAABBBBAAAEEEEAAAQQQKI1AtVartW1MV1dX22XxAmuc1qlUKq7TNhVjra/oONongWyyOmtNji9+1v5SdBz9L9v3VGJ1xg+/3vQXa7+yxtH/6H/0v/w+EEr5fBUkmlPOL02LOGd1scapbvpfLNydxy9rohKrizVOddL/pJBOg9GPK67SfYA5BBBAAAEEEEAAAQQQQAABBBBAAIGSCFTr9XqPTbHEqBJLXKPRMMVZ6ys6jvZJND9xfGfcRWvihx/nl/w+wM9H31zww08CnF/61g/wwy8IWD6vKbbIOPpf0M9OLc74Zd1CCX5BIj21uGgNSxz9L20bzxXpxxVXsSx5BBBAAAEEEEAAAQQQQAABBBBAAIHSCDBwVZpDQUMQQAABBBBAAAEEEEAAAQQQQAABBGIBBq5iDfIIIIAAAggggAACCCCAAAIIIIAAAqURYOCqNIeChiCAAAIIIIAAAggggAACCCCAAAIIxAIMXMUa5BFAAAEEEEAAAQQQQAABBBBAAAEESiPAwFVpDgUNQQABBBBAAAEEEEAAAQQQQAABBBCIBRi4ijXII4AAAggggAACCCCAAAIIIIAAAgiURoCBq9IcChqCAAIIIIAAAggggAACCCCAAAIIIBALDBk9evS0uCDOVyrd41qNRiMuzuStcVpx6NChbvLkyZk64gJrfUXH0b74KDTzVmf8mmZxDr9Yo5m3uljjVDPnl6ZvyOEXJNJTq4s1TrXT/9LGmsMva9IbF/zwCwKcX4JEc8rPR9MizlldrHGqm/4XC3fn8cuaqMTqYo1TnfQ/KaTTYPSrTpgwIa0QzdVqNT9Xr9ej0mzWGqc1hw8f7jptUzHW+oqOo30SyCars9bk+OJn7S9Fx9H/sn1PJVZn/PDrTX+x9itrHP2P/kf/y+8DoZTPV0GiOeX80rSIc1YXa5zqpv/Fwt15/LImKrG6WONUJ/1PCuk0GP24VTDdB5hDAAEEEEAAAQQQQAABBBBAAAEEECiJAANXJTkQNAMBBBBAAAEEEEAAAQQQQAABBBBAIC3AwFXagzkEEEAAAQQQQAABBBBAAAEEEEAAgZIIMHBVkgNBMxBAAAEEEEAAAQQQQAABBBBAAAEE0gIMXKU9mEMAAQQQQAABBBBAAAEEEEAAAQQQKIkAA1clORA0AwEEEEAAAQQQQAABBBBAAAEEEEAgLcDAVdqDOQQQQAABBBBAAAEEEEAAAQQQQACBkghUa7Va26Z0dXW1XRYvsMZpnUql4jptUzHW+oqOo30SyCars9bk+OJn7S9Fx9H/sn1PJVZn/PDrTX+x9itrHP2P/kf/y+8DoZTPV0GiOeX80rSIc1YXa5zqpv/Fwt15/LImKrG6WONUJ/1PCuk0GP244irdB5hDAAEEEEAAAQQQQAABBBBAAAEEECiJQLVer/fYFEuMKrHENRoNU5y1vqLjaJ9E8xPHd8ZdtCZ++HF+ye8D/Hz0zQU//CTA+aVv/QA//IKA5fOaYouMo/8F/ezU4oxf1i2U4Bck0lOLi9awxNH/0rbxXJF+XHEVy5JHAAEEEEAAAQQQQAABBBBAAAEEECiNAANXpTkUNAQBBBBAAAEEEEAAAQQQQAABBBBAIBZg4CrWII8AAggggAACCCCAAAIIIIAAAgggUBoBBq5KcyhoCAIIIIAAAggggAACCCCAAAIIIIBALMDAVaxBHgEEEEAAAQQQQAABBBBAAAEEEECgNALV0rSEhiCAAAIIIFAigcMOO8x96Utf8i2aNm1ax5Z98MEH/s0zTz31lLvyyivdjTfe2DG+vxbefvvtyaY32mgj99577yXzZBBAAAEEEEAAAQQQKKMAA1dlPCq0CQEEEECg3wUWXHBB19XVZWpHrVZzH/nIR9waa6zh/2255ZZuzJgxTq9ILlNSO0OqVLjoOlgwRQABBBBAAAEEECivQDX+ENvaTOsHdmuc6tcH5U7bVIy1vqLjaJ8EssnqrDU5vvhZ+0vRcfS/bN9TidUZv6xfXwZ2VlttNTdu3Di33Xbbpa5qsh6PouPC8Y33Ur+Lp0yZEheZ+8vMah+fD1KHw3w8wvHFD7+0QP4cP7+zxsXqrNbw+Tl7TPDLmqjE6mKNU530PymkE35pjzBndbHGqV5r/+OKq3AUmCKAAAIIINBG4JVXXnFbbLFF7tJqtepWWmklN3r0aLfZZps5zSstssgibsMNN3RXX3117nr9UXjdddf5D71Tp071tzb2RxvYJgIIIIAAAggggAACvRGo1uv1HuMtMarEEqfbJixx1vqKjqN9Es1PluOGX76dSvHLt7G44JdvZ3WxxvHzm3aWR0h6xlW7vqrye++917300kvu8ssvdxdecKEbUhniV1177bXdFVdcEapJpu3qSgI+zBQZp/054ogjWjeRO1/kdrUBS330v9xD4Qvxy7exuGhNSxz9L98Yv7654IefBDi/9K0f4IefBLjiqn0/YAkCCCCAAAK9Enj66afdxOcnuiWWWMKvt/LKK/e4vq7M0gDXXHPN5e666y7373//u8d1QoCu7vrMZz7jn6s1dOhQ9+KLL7rx48f7evRBry9Jl26rXcsvv7y/iuzuu+92Dz/8cOb2wk7bWHjhhd0XvvAFv35v923ZZZf1V7J96lOfcpMnT3YPPvige/zxx927777baZMsQwABBBBAAAEEEBhgAgxcDbADyu4ggAACCPSvwPPPP58MXHW6x3+vvfZy3/zmN5NbC0Or9YbCJ5980u23335u0qRJoTgz3X333d2O390xuborDnj77bfdGWec4X7/+9/Hxe6uO+9K4tdff/3k+Vv777+/22qrrXzsVVdd5TRIpbcqzjnnnMn6O+64o5vWmObOv+B8d9ZZZyXleZlO+/bEE0+4vffe273xxht5q7pVV13VHX300U6DXnnpn//8p3/wPW9EzNOhDAEEEEAAAQQQGHgCvFJo4B1T9ggBBBBAoB8FFl100WTrjz32WJIPmfnmm89dfPHFbtttt80MWilGg10rrrii+93vfu+WWmqpsFoy1fJzzjnH7bTTTskgVLLww4zecHjAAQe4TTfdNLUo3MKoQl1RFZKu9gpp3XXXdcccc0xq0Cos0/rbb7+9334oi6cf/ehHe9w3PQ9MD67P2zc91P7/fvF/bQettC2tf+211/pniMXbJo8AAggggAACCCAwMAWan1oH5v6xVwgggAACCMwygc9+9rNuyeFLJtu79dZbk3zInHrqqW7ppZcOs27ixOfdpZde6i655BJ/m5+ualKaZ5653UUXXeQWXHDBJFYZXYm1wgorJGVvvvmmu/HGG93PfvYzp4evh/UVcMghhzgNJvUmfexjH/PheoC7bjs877zz3P333596TtAyyyzjdthhh0y1Y8eOTe3bCy+8MH0A7neZfdPAWt6+nXzyyclg3DvvvOtuuukmd9RRR7mf/vSn/iqwsEGtf+SRR4ZZpggggAACCCCAAAIDWIBbBQfwwWXXEEAAAQSKE4ivUIprnXfeed2SSy7pvvOd77h11lknGXjRA6FvuOGGONStueaaTs9uCunss8/O3HY3atQod/xxx/t65phjDn9l1YknnuhXmX/++f2bC8P6//3vf/0tfvFtc5dddpn77W9/60O0vt5smPeA+FBH3lSDX7qN8bnnnksWzzPPPO76669PrsTSwNWFF17o3nnnHR8zYsQIt9xyyyXx2rdzzz3Xz4eHY3fat8UXX9zJMqQ99hjjHn300TDrtF/bbbed+8EPfuDLVllllWQZGQQQQAABBBBAAIGBK8AVVwP32LJnCCCAAAIFCSy00ELuzjvvzP2nq500SKNnRulh6UpvvfWWH1B6/fXXUy04+OCDk3k9qynvWVE333yzG3fluCTuy1/+cpLXs6g0GKWkK6J23XVX/7aiJGB6RoM98YCT2tXbdNrpp6Xq0PoaoNpjjz2SqnTLYnwr4uGHH54s67RvV/yh+ZbFeN8+/elPJ+tr4EzP+WpNunpLproaS4N1wbs1jnkEEEAAAQQQQACBgSPAwNXAOZbsCQIIIIBASQTuuecep6uh4qQrtuLb/nRrX7ukB6SHpNviwlsK9eyrkDQ41e7h7bpCS28A1L+8AaBQR95UA2K6jS8vqb54MC4MNvVm3/R8q5DifYvbqWdp6SqxtdZaK4T6qd6UuNlmm7lRo77oNthgg1694TBVETMIIIAAAggggAACs41AtVartW1sp7chxStZ47SOPtx22qZirPUVHUf7JJBNVmetyfHFz9pfio6j/2X7nkqszvhl/XQ+C0lXAL351pthNjXVFVB6+1589Y8GVS6//Hdum22+lcTquVBx0lv8vv71r8dFST7etgp1C95LL73k5p+/+/lTKvvXv/7V9vg++OCD/s17ilPS793WOlU2ZcoUvzxepqvFOv2e1nOrdMuikvZJse32LdSrAad2Keyb6tW2w+2Ceqvgz3/+c/9sLQ1q3X777e4vf/mLe+WVV9pVlZRb+701ThVrXzq5KMZaX9FxtE8C2WR11pocX/ys/aXoOPpftu+pxOqMH3696S/WfmWNo//Nuv7HM67yrSlFAAEEEEAgEZj06iS3xRZbJPN5mY033tgddNBByYftxRf/hNNb8h544AEfrrfhxekrX/lKPNsxHx6wrge2h/SPf/wjZAudaoCsU9IgUrjyK1xBVsS+aZt6btb551/gH0wf2qDBItWvf9/73vf8FV+6ZVAPjZ82rftB9iGWKQIIIIAAAggggMDAE6iGB6Z22jVLjNa3xOlbV0uctb6i42ifRPOT5bjhl2+nUvzybSwu+OXbWV2scfz8pp3lEZIGSHrqqxpI2nfffd1pp50WVnMrr7xy8ja8MPiULOxF5oMPPkgeih5W07OsVK7UU9sUE+9PWCesFy/TFU2hXHGtKWxT5a+99pqP7eu+aXtqw8SJE91GG23ott12W/e1r33NDRs2rHXz/mqvXXbZxQ8KjhkzJrM8Lui0H72NU/uKrE/bL7I+2hcf0XTe4oxf2iyewy/WaOYtLoq2xNH/mq6tOfxaRbrnLS6KtMTR//KN8eubS9F+XHHV/niwBAEEEEAAgV4J3Hvvvf6h6eEB6osttliy/lNPPZXkdevhWl9IP78pWTg9E25Ja/3AqfX0/Ccl3Ur32GOP+XyR/8VtzqtXb/8LSbcrKrXbt3b7EdbPm+r2Rb2NUP90qf7IkSOnD2Zt5D7/+c+7eIBs9dVX9+V6OD4JAQQQQAABBBBAYOAKMHA1cI8te4YAAgggMIsF9K3l22+/nQywzD1389a+Rx55JGmNBp8WXXRR9+KLLyZlrZkvfelLbsiQIf5KpKuvvtov1nO2wuCNrua69dZbW1fz87vvvru/7U4z2u5uu+2WG5dXuMgii+YVJ2VLL710kh8/frzP93bf9DZBDWrJK+zb8ssv71ZddVVf32233eZvCdTVXXqulf4pafnYsWOT2zE1qMXAlafhPwQQQAABBBBAYMAKMHA1YA8tO4YAAggg0B8C77//frLZeODq1VdfTV2Npec1HXHEEUlsnNGb8w444ABfpLf8XX/99f5B6s8//3wycLXJJpv4QZx4PeX1kPjtttvOhau+4quhWmPz5vUcraWWWso988wzmcUaLNOVXiH985//9Nne7Nvmm2/uDjnkEL9evG8777yz364WrLDCCu6EE07wMfF/uj1SD2nXw++V4rbEceQRQAABBBBAAAEEBo5A85VJA2ef2BMEEEAAAQT6TeC9995Ltj106NAkr0x8hZQe5r7sssumlmtmkUUWcXvu+YOkXIM14e1/p5xySlKut+/tueeeyXzI7LTTTsmthiobN25cWGSe/vrXv3ZzzTVXKl5Xev3kJz9Jyt55510XrrhS4c0335ws67Rve++9TxIX79sTTzyRlG+44YaptzQmC6ZnNKgVktYnIYAAAggggAACCAxsAa64GtjHl71DAAEEEJjFAu+++26yxYUWWijJK3P88cf7Zzbp2U26Iuq8c89zV/zhCve3v/3N3zY3YsQIt/XWWydXS+mZVsccc0xSx0MPPeQHi3RbndI3v/lN/4a/P//5z+6NN95wGjBaa63ms7MmTnzexQNCSUU9ZDQodtVVVzndsqe3Ii655JJuq622Tr3t7+CDD0oG1FTd0Ucf7dZbbz0/aBb2bdyV4/zD6XUVWk/7dsMNN/j2qy4Nkl177bVOA3V66L289Jyrr371qy5+Btc111yjcBICCCCAAAIIIIDAABZg4GoAH1x2DQEEEEBg1gu89dZbyUZ1K9v666+fXGmlq7E0EHX44Yf7wSk962rLLbf0/5KVosyJJ52YuWVPtxCed955/u16CtXte/rXmvRg95133qm12DyvwaNNN93U/2td6aabbnL3339/qlj7duSRR7qjjjoq2bctttjC6V9eat23Z5991sWDV7pard2tlKrv97//vXv66afzqqYMAQQQQAABBBBAYAAJcKvgADqY7AoCCCCAQHECenB4SNOmTQvZHqePP/54KmbMmDGpeT1oXFdVvfzyy6nyeEa3wH3rW99yV1xxRVzs8y+99JLT861aB47iQC3baqut/APO43JLXm9G1MCUrvZqTSq78sor3bHHHtu6yM9rvZ72Tc/FUtvy9u3HP/6xv9Iqt/IPC3XbpG5lPPHEEzuFsQwBBBBAAAEEEEBggAhwxdUAOZDsBgIIIIBAsQL77LNP8qwoXb1kTaeeeqrTv05JD1nXA9iXW245f2vfKqus4h/cPnHiRP+WvJ6uJNLgzfe//32nq5JWX311t9pqqzndjqdBM91O2G5QTLfrWdKhhx7qDqsc5tumW/SUNOCk51hNmjQpccmrK963ddZZx2nf5Bf27bHHHstbzZdpsFBXbenNgXrO1Zprrun3UfumK7L0wHi9RfC1115rWwcLEEAAAQQQQAABBAaWwJDRo0dnv1L9cB8rle4LsuJvnfN23xqndfUhe/LkyXnVJGXW+oqOo33JIUhlrM74pdiSGfwSilTG6mKNU+WcX1LEfga/rIlKrC7WONU5O/e/PfbYw33xi1/UbriHH37Y3+7nZ9r8Z3Wxxmkzs7NfYLLub9Fx+IUjkJ5anfFLu4U5/IJEemp1scapds5/aWPN4Zc16Y0LfvgFgYFyfqlOmDAh7FNmWqvVfFlP3zRb41TZ8OHDXadtKsZaX9FxtE8C2WR11pocX/ys/aXoOPpftu+pxOqM3+D2i5/LpWdVzerf0/S/wd3/wt5bz1dFx9H/whFIT63O+KXdwhx+QSI9tbpY41Q7f3+kjTWHX9akNy74lc+PZ1zlHxNKEUAAAQQQQAABBBBAAAEEEEAAAQT6WYCBq34+AGweAQQQQAABBBBAAAEEEEAAAQQQQCBfgIGrfBdKEUAAAQQQQAABBBBAAAEEEEAAAQT6WYC3CvbzAWDzCCCAAAII9LfAOeec4+677z5XrVbdk08+2d/NYfsIIIAAAggggAACCCQCDFwlFGQQQAABBBAYnALPPfec07/wMNLBqcBeI4AAAggggAACCJRRgFsFy3hUaBMCCCCAAAIIIIAAAggggAACCCCAgGPgik6AAAIIIIAAAggggAACCCCAAAIIIFBKgWqn2wK6urpMjbbGqbJKpdLjrQjW+oqOo335h9vqjB9+ErD2l6Lj+tL/br/99vyDRykCCCCAwKAWGDlyZLL/Rf/estanBvD5OTkMSQa/hCKVsbpY41Q5/S9F7Gfwy5qoxOpijVOd9D8ppNNg9OOKq3QfYA4BBBBAAAEEEEAAAQQQQAABBBBAoCQC1Xq93mNTLDGqxBLXaDRMcdb6io6jfRLNTxzfGXfRmviV32/EiBFJI8PVqD0dN2ucKh4+fLibMGFCso28jLW+ouNoX97RcMkVwj31A/zwk0DRP5fW+uh/xfe/u+++21ea97OfV5bXgiLj+HyaJ9xdZnHGD78gYOkvii0yjv4X9LNTizN+WbdQMpj8uOIqHHWmCCCAAAIIIIAAAggggAACCCCAAAKlEmDgqlSHg8YggAACCCCAAAIIIIAAAggggAACCAQBBq6CBFMEEEAAAQQQQAABBBBAAAEEEEAAgVIJMHBVqsNBYxBAAAEEEEAAAQQQQAABBBBAAAEEggADV0GCKQIIIIAAAggggAACCCCAAAIIIIBAqQQYuCrV4aAxCCCAAAIIIIAAAggggAACCCCAAAJBgIGrIMEUAQQQQAABBBBAAAEEEEAAAQQQQKBUAtVarda2QV1dXW2XxQuscVqnUqm4TttUjLW+ouNonwSyyeqsNTm++Fn7S9FxRfS/+NxUxvbFvYv2xRrNfNEu1vqK6H/NvSj+9yDti3WbeY5v0yLOWV2scap7dv18MDN/LwwGv5nZr/CLdZt5q4s1TjXPrj+/TZXif6/iF+s281YXa5xqpv81fUNuMPpxxVU4+kwRQAABBBBAAAEEEEAAAQQQQAABBEolUK3X6z02yBKjSixxjUbDFGetr+g42ifR/MTxnXEXrYlf+f3yjlFeWd6eWOI4v+TJdZfhl29jcdGaljj6X74xfn1zGeh+eT9beWV5ikXG8fObJ9xdZnHGD78gYOkvii0yjv4X9LNTizN+WbdQMpj8uOIqHHWmCCCAAAIIIIAAAggggAACCCCAAAKlEmDgqlSHg8YggAACCCCAAAIIIIAAAggggAACCAQBBq6CBFMEEEAAAQQQQAABBBBAAAEEEEAAgVIJMHBVqsNBYxBAAAEEEEAAAQQQQAABBBBAAAEEggADV0GCKQIIIIAAAggggAACCCCAAAIIIIBAqQQYuCrV4aAxCCCAAAIIIIAAAggggAACCCCAAAJBgIGrIMEUAQQQQAABBBBAAAEEEEAAAQQQQKBUAtVarda2QV1dXW2XxQuscVqnUqm4TttUjLW+ouNonwSyyeqsNTm++Fn7S9FxRfS/+NxUxvbFvYv2xRrNfNEu1vqK6H/NvSj+9yDti3WbeY5v0yLOWV2scap7dv18MDN/LwwGv5nZr/CLdZt5q4s1TjXPrj+/TZXif6/iF+s281YXa5xqpv81fUNuMPpxxVU4+kwRQAABBBBAAAEEEEAAAQQQQAABBEolUK3X6z02yBKjSixxjUbDFGetr+g42ifR/MTxnXEXrYlf+f3yjlFeWd6eWOI4v+TJdZfhl29jcdGaljj6X74xfn1zGeh+eT9beWV5ikXG8fObJ9xdZnHGD78gYOkvii0yjv4X9LNTizN+WbdQMpj8uOIqHHWmCCCAAAIIIIAAAggggAACCCCAAAKlEmDgqlSHg8YggAACCCCAAAIIIIAAAggggAACCAQBBq6CBFMEEEAAAQQQQAABBBBAAAEEEEAAgVIJMHBVqsNBYxBAAAEEEEAAAQQQQAABBBBAAAEEggADV0GCKQIIIIAAAggggAACCCCAAAIIIIBAqQQYuCrV4aAxCCCAAAIIIIAAAggggAACCCCAAAJBgIGrIMEUAQQQQAABBBBAAAEEEEAAAQQQQKBUAgxclepw0BgEEEAAAQQQQAABBBBAAAEEEEAAgSAwZPTo0dPCTOu0Uuke12o0Gq2LUvPWOK00dOhQN3ny5NT6rTPW+oqOo32tR6J73uqMH34SsPaXouP60v8uv/xyf/C23nprP9V/ZWpf0qgoQ/sijChbtIu1PjWB32/Rgfgwi1/WRCVWF2uc6qT/SSGd+uI3K34v9KV96T3tnrPWV3Sctk7/yx4RqzN+WTuV4Nc3F/zwCwID5fxcnTBhQtinzLRWq/myer2eWRYXWOO0zvDhw12nbSrGWl/RcbRPAtlkddaaHF/8rP2l6Lgi+l98bipj++LeRftijWa+aBdrfUX0v+ZeFP97kPbFus08x7dpEeesLtY41T27fj6Ymb8XBoPfzOxX+MW6zbzVxRqnmmfXn9+mSvG/V/GLdZt5q4s1TjXT/5q+ITcY/bhVMBx9pggggAACCCCAAAIIIIAAAggggAACpRJg4KpUh4PGIIAAAggggAACCCCAAAIIIIAAAggEAQauggRTBBBAAAEEEEAAAQQQQAABBBBAAIFSCTBwVarDQWMQQAABBBBAAAEEEEAAAQQQQAABBIIAA1dBgikCCCCAAAIIIIAAAggggAACCCCAQKkEGLgq1eGgMQgggAACCCCAAAIIIIAAAggggAACQYCBqyDBFAEEEEAAAQQQQAABBBBAAAEEEECgVALVWq3WtkFdXV1tl8ULrHFap1KpuE7bVIy1vqLjaJ8EssnqrDU5vvhZ+0vRcUX0v/jcVMb2xb2L9sUazXzRLtb6iuh/zb0o/vcg7Yt1m3mOb9MizlldrHGqe3b9fDAzfy8MBr+Z2a/wi3WbeauLNU41z64/v02V4n+v4hfrNvNWF2ucaqb/NX1DbjD6ccVVOPpMEUAAAQQQQAABBBBAAAEEEEAAAQRKJVCt1+s9NsgSo0oscY1GwxRnra/oONon0fzE8Z1xF62JX/n98o5RXlnenljiOL/kyXWX4ZdvY3HRmpY4+l++MX59cxnofnk/W3lleYpFxvHzmyfcXWZxxg+/IGDpL4otMo7+F/SzU4szflm3UDKY/LjiKhx1pggggAACCCCAAAIIIIAAAggggAACpRJg4KpUh4PGIIAAAggggAACCCCAAAIIIIAAAggEAQauggRTBBBAAAEEEEAAAQQQQAABBBBAAIFSCTBwVarDQWMQQAABBBBAAAEEEEAAAQQQQAABBIIAA1dBgikCCCCAAAIIIIAAAggggAACCCCAQKkEGLgq1eGgMQgggAACCCCAAAIIIIAAAggggAACQYCBqyDBFAEEEEAAAQQQQAABBBBAAAEEEECgVALVWq3WtkFdXV1tl8ULrHFap1KpuE7bVIy1vqLjaJ8EssnqrDU5vvhZ+0vRcUX0v/jcVMb2xb2L9sUazXzRLtb6iuh/zb0o/vcg7Yt1m3mOb9MizlldrHGqe3b9fDAzfy8MBr+Z2a/wi3WbeauLNU41z64/v02V4n+v4hfrNvNWF2ucaqb/NX1DbjD6ccVVOPpMEUAAAQQQQAABBBBAAAEEEEAAAQRKJVCt1+s9NsgSo0oscY1GwxRnra/oONon0fzE8Z1xF62JX/n98o5RXlnenljiOL/kyXWX4ZdvY3HRmpY4+l++MX59cxnofnk/W3lleYpFxvHzmyfcXWZxxg+/IGDpL4otMo7+F/SzU4szflm3UDKY/LjiKhx1pggggAACCCCAAAIIIIAAAggggAACpRJg4KpUh4PGIIAAAggggAACCCCAAAIIIIAAAggEAQauggRTBBBAAAEEEEAAAQQQQAABBBBAAIFSCTBwVarDQWMQQAABBBBAAAEEEEAAAQQQQAABBIIAA1dBgikCCCCAAAIIIIAAAggggAACCCCAQKkEGLgq1eGgMQgggAACCCCAAAIIIIAAAggggAACQYCBqyDBFAEEEEAAAQQQQAABBBBAAAEEEECgVALVWq3WtkFdXV1tl8ULrHFap1KpuE7bVIy1vqLjaJ8EssnqrDU5vvhZ+0vRcUX0v/jcVMb2xb2L9sUazXzRLtb6iuh/zb0o/vcg7Yt1m3mOb9MizlldrHGqe3b9fDAzfy8MBr+Z2a/wi3WbeauLNU41z64/v02V4n+v4hfrNvNWF2ucaqb/NX1DbjD6VcPOM0UAAQQGq8DIkSMH666z3wgggAACOQL8XshBoQgBBBBAAIF+EqjW6/UeN22JUSWWuEajYYqz1ld0HO2TaH7i+M64i9bEDz/OL/l9gJ+Pvrngh58EOL/0rR/gh18QsHxeU2yRcfS/oJ+dWpzxy7qFEvyCRHpqcdEaljj6X9o2nivSj2dcxbLkEUAAAQQQQAABBBBAAAEEEEAAAQRKI8DAVWkOBQ1BAAEEEEAAAQQQQAABBBBAAAEEEIgFGLiKNcgjgAACCCCAAAIIIIAAAggggAACCJRGgIezl+ZQ0BAEEEAAAQQQQGBwCAwfPtx98pOfdFOnTnV33HHH4Nhp9hIBBBBAAAEEZkiAgasZYmMlBBBAAAEEEEAAgRkV2Hfffd1aa63lVx8xYsSMVsN6CCCAAAIIIDAIBLhVcBAcZHYRAQQQQAABBBBAAAEEEEAAAQQQmB0FuOJqdjxqtBkBBBKBlVde2S2wwAJu0qRJ7o033kjKZ4fMjN4qs8wyy7jPfe5z7p133nHXXHPN7LCrtBEBBBBICdx6662uq6vLTZkyJVXODAIIIIAAAggg0CrAwFWrCPMIIDBbCZxyyiluvvnmc69OetXt/r3dZ6u2z+itMrvssovbYIMN/LNhGLiarQ45jUUAgQ8FrrjiCqd/JAQQQAABBBBAoCeBqr7xb5cqle47CRuNRrsQX26NU/DQoUNdp20qxlpf0XG0TwLZZHXWmhxf/Kz9pai4UM8c1Tlmu/4399xzJx0mnBfD/nQ6737kIx/x61WGVAo7n6pCfn6Tw5FkLMcjBOMXJJpT/JoWcc7qYo1T3Zb+t+CCC7qNN97YTZs2zf3xj3901WrV7bTTTm6JJZZwV199tfvLX/7im6nt6vy09tprO13Vusgii7jnn3/e3X333e7vf/97cpVUXvs+/elPuw033NBpOuecc7rXXnvNPfLII+6GG26ICfzyZZdd1g/AX3/99X6Z9mHkyJG+fbfffrt7//333TrrrOPLPvrRj7onnnjC3XTTTe7f//63j887T84111w+Xu1edNFFfbvvuuuuVLtTDflwxuIX9leOo0eP9u38/e9/763WX39999nPftapnU8//bS3evDBB/M25cu0X+utt55baKGF3JDp5/JXX53kxo8f74+L9jtOq6yyilt99dW95bhx4/yx/tKXvuQ+//nPu2effdb96U9/ck899ZT//Kz9UFtWXXVV7686b7nlFh8X6gz7Efz0rDG1famllnJvv/22u+eee9ydd97p81onxIX186a98eupvtb25W1PZdY4xdI+KaQTfmmPMGd1scapXvpf0G1O8WtaxDmrizVOdQ+U/ledMGFCbJXK12o1P1+v11PlrTPWOK2nP846bVMx1vqKjqN9Esgmq7PW5PjiZ+0vRcXpA/uSSy7pP7RPnjx5tjq/6I813Sajf+G8aHHRHxZKjWmNZL1sz+susdQX1uXnN0g0p/g1LeKc1cUap7rpf7Fwd75oPw0UbbHFFr5yDWgccMABfvBKBRqcCuchDXqccsqpbp55moPrSy+9tB8Q0mfC3XbbzT322GOZz2t7772322abbbob/+H/Cy+8sFtuueXcZptt5r797W+75557zi+Jrzj91a9+5cs04LLDDjv4vAbOttpqKzfHHHN8WFN3H9Gg2MUXX+zOPPNM1/r59DOf+Yw7/fSxqXbrzYXrrruujw3tTiqMMr3pf6uttpr7+te/7tf+xz/+4Q499NDEQoXaptr5m9/8xv3yl7+MtuL8YNK4P4xzC3x8gVT54ot/wmmAasstt3QHHXSQu+2225LlwWpaY5rfjx133DFZpm198YtfdI8++qg76aST3BlnnOFvwQwBn/rUp9wmX93E7fmDPd19993ni0O/mmeeedxZZ52V+QJEg1i77LyLO+XUU9wf/vCHjHOoO572xq/1uMX1KB/aV1Sc6qR9Ukgnq7PWwi9tpzn8sia9ccEPvyBgPb90X1IV1mKKAAIIzGYCJ5xwghszZoz72c9+Npu13PnbZNT2vfbaa7ZrOw1GAIHZW+Dggw5OBq20J1OnTvU7pOfn/d8v/i8Z/NEXAv/617+mP1PvXb9cf2z89je/9Vdj+YIP/9MgWDxopdu3NZgSrh7Ser/+9a+Tq2TidfPy3/zmN/2gldqlAbWwfcVqO1oeJ7X77LPOTrVbV2aF9dq1O65jRvJHHnmk/wP2gw8+cBMnPp9cpaS6dDWb2hWnn/70p8mgldr2wAMP+CvJwiCNBupOPOFEP8AVr6f8kMoQFwatdFz++9//JiErrrii++1vf+sHrWSmZeGYaj3dVh8nDVpdddVVyaCVtq/jrHqVtM4Pf/hDt+eee8arkUcAAQQQQKBfBHjGVb+ws1EEZm8B3YKhW0jefPNNd9FFFzl9y63nLukb+x/96EfJN+raS5Xp1hTd5qBbKHTLyI033ugef/zxjggbbbSRGzVqlNMVAvogr9tU9CFbV1jFSTG61eLFF190zzzzjF+kh5dre/pDQt8Wf/zjH3ebbrqpr0+3KOj2jQsuuGD6rRmvxlWl8rpKQG0It36Edj/88MOpuL7M6A8N2emPC91u0pp024a+SdfVD7rdRm66hYOEAAII9FVAAxM6rxx++OHu/vvvT27/O/roo/2gherXFwKXXnppsqndd9/dD8Zo3QMPPNBtvfXWftn888/vvva1ryVx3/ve9/yAjAp0O6LOwzqn6nYFnc+0PUvS+VZXSYVby7S9/fbbz6+qtlxyySX+PK+CvHaHb/Q12KNBpNDuzTff3LJ5c4z2R1dF6YUZSqeddpobMWKEz+sKqrC/clpjjTV8ua4823777b17GLSStc77aqfWj6+68itN/09XXR1y6CHJbZ0axNOVbiGpXu2vfj/L/txzz3W66koW+l2oF5ko6fgFH92WqYHH4KxbELUP+t37ja2/4a/iCgOQYTtMEUAAAQQQmJUCDFzNSm22hcAAEdA33RrU0YCLPnDvv//+yZ7p2R/hVhD9kbHvD/dN/ghS0EorreS/Kf/Pf/7j/5BoHTzS80nGjh3rn6uSVDo9M2zYMP+BX38Qqd7wJirdotH6cPZtt93WbbLJJn51DWrtvPPOcVW+Dd/4xjfcIYcckvuHQad2v/DCC/6PDf1R0NekP7z0bBGl1oErXYWl/YjTV7/6Ve/95JNPxsXkEUAAgV4L6NytAZx4QELnTZ3DlW6Z/lykeNBKZbrtTV9aLL/88v75UTov65yoK3PCLX1aR1cRhaRzta72Of74432RfneEgZwQkzdV+3QeDIMpirn88sv9iyl0FZPeSKjnPOnZXHG79Zyuntr9iU98wn8Zkrfd3pa98sor7vvf/35qNV1Vddlll/kyGYW0+OKLJ1dBnX322cnvsbBctxYeddRRflZtzEvXXHtNMmil5VdeeWUycKVBLV0hFX4/yV6/WzRIpaRBM92i/rGPfcyN+uIoX6b2h8FAXzD9P91SqAGvMNin35fnn39+WMwUAQQQQACBWS7ArYKznJwNIjBwBPSHyn77dn/7HfZKVzkp6cOzPgzrm2Oll19+2d/uEZYvtthi0z9QX+G/AfYBH/6nD8e6oktJH8J164UedBtuedAfAbo90JrCoJX+CNLtJmHAS3/06Hkguq86Tj21W9vXHwr65npmJX1zHw9avfXWW95PHvqGXIN/JAQQQKAvAtddd11q0Ep1aVAqJN12lpduvvnmpFhXvCrpQewh6fzYmjSYdM4550x//tTp7tprr21dnDv/0EMPJVcwxQF6qHxIuiJXKW63BoTyUtxuvZW1qJT3ZkR9MRN+Z+mWvJB05a7aqn/hgfRapiuxVGa5LS8MiIU6dZVX+L325ltvZq4kjr8cCoNoupI4/G5u92ba2FkPkSchgAACCCDQnwJccdWf+mwbgQEgoA+/ejjtT37yE/+mJ92aoG9z9RBeJQ0Y6TlO4RY7vQVDf1ho8EUP/tUy3eKhpD+CwkCSrgLQ7X3vvfeeX6YP9nqbkgbL1ll7Hf+clPibeB/U5r9f/OIX/o8mLdbAj25/Cbdr6CqAMEi0wAILJO3WAJu+7Q9XBsTt1lv94na32ewMFet2ys3/p/s2Fv3hc8QRRyRv49KVEOefd37yfJQZ2gArIYAAAtMFHpv+cPXWpNvUQmo3AFSdo/nRUW/tU9KVrUoaXA9v/PMF0X8aIAkPf4+K22b1vKW8FF/NFdobporXlUJ5KW63vjgpKuk29byk30/6fRXe/BTH6BZwfamy+OJLuLmnX2UcBpHimHb5cEt8vFxviVQKz6eKl+XldcVcSNt/Z/vk914oa53qdzoJAQQQQACB/hTgiqv+1GfbCAwAAb2Ce9ddd/VXRYWBJL0RKdw2otsewqCVdlcxeh5WuPJKt42EpNtNQtLA0BtvvBFm/RVH4RtzfcjXc1IsSVdr6Zv+OOlZHuHNfHr2h17ZrqRbB0O7jz32WP88rrBeaLcG4pTidoeYIqYaLAt/xOg5XPEr5HVLx26771bEZqgDAQQGuUA4B8cM8ZWkuio17184P2m98IykcFXRW2+/lbq1L667t3n9bslLuno3pDAo1Nt2h3N+qKcvUz0nzJr0xY5uY9RVw7paTF/eBE9dNWWpK761s3W74Xdwa3nr/BJLLJEUaft5x1llIcX5UMYUAQQQQACBWSnQ/NpsVm6VbSGAwIARaH1TkXYs3L6hP4z0QPHWpA/XTzzxhL/qSn9A6AHuL730ktMVT0paT7dUtCbd2heuEtDD2i1JDwVuTfoD4e9//7sLtz/oNhdtL3wLre3/+c9/bl3N/0GmduuB6qHdlj80MhV1KAgDcrraKrwiPg7X88P0jXt8hUG8nDwCCCAwowKvv/66v2JW6//gBz/I3ErYWm+42uj99+t+EGaO6Gqs1tjezoeruFrXi5/9pPOxUtxuPQcxDOCEAZfWQbpnn322tdpZMq+Xl4Rzt74EufXWW/3vGl1Fpn3QS0XOPPPMmd4W/b4NSbfn6+HseSn4xfF5cZQhgAACCCAwswWq4duyvA2FX1h5y+Iya5zW0bdjnbapGGt9RcfRPglkk9VZa3J8B4df+JZbe6sHhcc/0+ovenOUkvJ33HGHz7f+F/erJZdc0v+BpG+jlfRMjlBnHKdnecTP9wgxWkffGof+F+pReV77VD5+/Phk4Eq3LeoPIN2OqKRt6pkseSluj9qt509ZU2hfiB8yZEjIJvsb2qB9bY0PwXp+iv74qQwp7nyqutttL2xX03j/4/LWfNFxqp/2tSrbjwd+WTuVWPvpQPGLz43Kx+dQ7aMGxj/5yU8q62/zDl8U+IIP/9PVOuGtfLp9W+fA119/zQ9c6QoincPC2/XCehps0hWkOufpGVcnnniiz4floR1x+/QcplAe4jSNn2cVzu9xu/XFRHhrbTi+GriK2/273/0u08benF/idmobre0M2w3tDsu/8IUv+CLdUqkHnoeritU+xehtfiHp6t+wXt7vihAXTxXXuu24raHO+AUf2kbecdZ6eui8XPR7vKfBq974xW3Oy7fuQ16MyqxxiqV9Ukgn/NIeYc7qYo1TvfS/oNuc4te0iHNWF2uc6h4o/Y9bBeOeQh4BBHot0PpNdusHZ51Y8/7FG9LVSxqICUlXFBWV4g/ocZ3hSgGV6TaXGW13XGcR+VpXzVcTnu2VV2f4YydvGWUIIIDAjAo8+OCDyap662le0nMB9WZZ/QvPVopvB9eb6FqTbs/WQIgGTnS1qyWtttpq/o2xrbFx/f/85z/94rjduuIqL8XtDldk5cXNzDI9H1FpytQpbtKkSalN6Q+Lr3zlK6mymTWjB9+HFN7AG+bDVA+K1+DaVlttlXr4fljOFAEEEEAAgVkpUA3Pa+m0UUuM1rfE6cOCJc5aX9FxtE+i+cly3PDLt1PpQPKLP/Rrv8IbjcLe6zY3/YGi50jts88+oTg1Dd8UaOBLf3yE2wQVpG+AW71a51OVTZ/RN9ih/8XtUb36Nr41hYcKq1zPjtJzQ+J26w8tpdaBOV/44X9qt/7YUOqpfYoJ7VNeKfzRp3xY/4Mp3d+8zzX9gb2hTMvjFJ7n0phW7Pm0tX3xNlvz7do2M+NoX6tuc95yPPBrerXmBotffG5UvnW/L774Yvfd737X6SURn/vc59xuu+3mxo4d67k08KSXcOhKUyU9aD3csq3buDfccEN/3v/G1t/wD2jX2wXV5772ta/5urSOzrG6fVzbzjv/xe3T7wE9IF7P/dM5XF8wnHHGGcmVsTr/hoe9x+3WVUut7T7uuONS7Z44caKak0q9+fmI26nfEa2OqYqnz4TlurV84YUX9l/m7Ljjju6c6c9flIOucjvuuONd/ND4+PdgnlXrNjSvuNb2xG2Vv9rywgsvuLvvvtuNGDHCzTvvvE4vMNGAX/h9t8MOO7ivb/F1vwmtryudwz7kbVdlvfHrqa6wjSLjaF9QzU4tzvhl3UIJfkEiPbW4aA1LHP0vbRvPDSY/nnEVH3nyCCBQiMCbb77p/7jQlVTxN7tx5euvv75/nocGjBSjB+5q8Em3/C05vPsPozhe+W222cY/d0X5/fbbz/3tb39TtmPSH195A1e6DSWkv/71rz6rK5n09iS1W29KVGr9haDbVPSHkf4AULv1x0WRSX/Y6Jlf835kXqdv58ND5ONtLP3JpeNZ8ggggEAhAvrj4NBDD3Wn/fw0fy7+zne+47bbdjtX/6DudDVo/CDxPfbYI9mmzvm//OUv/dtWFaMXdBx4wIFOg+v6EiMkvfQiHkgJ5e2mw4YNc7qtT+vEt7xpgGXfffdNVpvRdicVzKKMBtj+93//129NV45pgEiDTWHfdL4PV2XttutuTr8nFTMz0hFHHOE0uKjfYXpuo24H1O/jcGVc2KZesNLpCuAQxxQBBBBAAIGZKcCtgjNTl7oRGKQC4XXo+gCs2wxak64m0h8wutVkq622Tha//N/ut0Ut8PEF3IorrpiUh4zeXqg/gvTv/vvvD8Udp9/61rcyyzU4teYaa/pyPZ9Fz9RSCq9fV7u//vXub5v9gg//U7v1bJZtt9021e44pq/5cGuj/vjLu1VHg2byISGAAAK9FdAAT0gafM9L99xzj9t1t12dBqOUdC7SYH4YtJo48Xmnq4Xit/sp7txzz3UHH3xwMjCl+DBopQGRs846y11zzTUK9SluSyiLpxqwCgP3YWBHyydPnuz23nvvZFlYR+3e4bs79LrdYf3eTOO2t3MMV0nFsRdddJF/xlfYlnzCvj366KNu0003dXpQu5L8whVYoQ59uZOXwrbCNI4J66oszut3n24TDM8D03Id53DMtFy3V4a3+Wo5CQEEEEAAgf4S4Iqr/pJnuwgMYAHdlnHZpZf5D966VVB/4Nx2221+j3U1kd6WF24VvPba5h8yug0lvKVQ397rdo+nn37a3453zDHHJN9E6/YQ6zfASy+99PRbMI7zt7joiio9JFh/QIU/wuK3B+qb5XF/GOeX6Y1aand4SHundhd5KHXLzTprr+PboIE9PYhd39IrrbzyyolPkdukLgQQGBwCuqpm5MiRmStJW/degxkaRPnUpz7l1lprLX97m24v09vndE5ul3S+1D+9WVZvyNOgjh78rdv6Fl988dRq7W4jD0FPPfWU22CDDdzw4cPdl7/8Zf97QM+yuuuuu9pe6ap2b7zxxv6LD7VbAz86h2rwpVO7wzatU12ppH+d0ujRo3Odm15wIgAAQABJREFUjzzySPeb3/zGHweZ3Hfffd413KY3ZswYf2ulbgkPg0qykkO4NbJ1uzqmSnlXAOt3r24JzEv6nbj99tv7B9frwfF6w65undczy3RFc159efVQhgACCCCAwMwWYOBqZgtTPwKDUEAPPr/k0kv8rX36NlmDMfpQrm+D4w/CGhj66U9/mgjpg7KupNLtfYrT8z90i8gclTmSgSb9IaRv23uT9AeE/rXebqJ2arAspNZ269tmS7vD+kVMdfXXZZdf5q9GU33a1//d639dePaVymQQvhXXPAkBBBAoWkBX5zzyyCP+X2/r1lta9a+IpMEafdlhTXG7w++b1lu+VZdu1dOzvEJSvqcXX+i8qzcp9nUQTLev6+qr0L4waKW2qP0azJqVSe3Ju6V+VraBbSGAAAIIINBJgIGrTjosQwCBXAHLM0pOPfVUf+vdgQce6G+FCFdYqULd7vCPh//htCy+dUHL9PptPbtEbzNSCrdRKK/Xcev5K+GBwCoLt0ZMbeTf9nL66af7567Et2RoPX2br6uqWrffU7sfePAB/3yt1vVUZ29Tuzr0MGRdJaABK10Zpn/hDxz9QaO3cuXdRtjb7ROPAAIIDFaBnXfeOfX7xeqgK8/6OnBl3RZxCCCAAAIIINAtwMAVPQEBBHotoIe66l9P6Y9//KO74YYb/BVUa665ph980be61113nXvnnXfarq6rsH7+85+7VVdd1a2yyipODyzXcz+eeeaZzDobbbRRUqZbKVrTFVdc4S644AJf16hRo3xd9957r791pTU2zKvdt9xyi9Pr2PVPg0ah3a+//noI6/O0060yuj3w6quvduuuu65vw/jx492tt96avEJd+0RCAAEEEJgxAT3/MHwhoBr0IHgNSnVK+gIm742EndZhGQIIIIAAAgj0XYCBq74bUgMCCHQQ0LOodAug/sUp/oMhLg95XdWlq4vavd0vxFmnejaK/vW03VCf2n3nnXf6waJQ1jrVrSV6YLxSuwf0xuuEW1F0pdWZZ56ZPMQ4jonzejiyBvn0j4QAAgggUJxA661xul2v3TOkwlatvz9CPFMEEEAAAQQQKEag2umXcHxrT6fNWeNUR6VS6fEPR2t9RcfRvvyjbHXGDz8JWPtL0XFx/4tvL9R24vNckdtdaqmlklsa849++9ILL7wweftVHFVk+1SvtT7Fcn6WQjrhl/YIc1YXa5zqpf8F3eZ0sPnpIe6HHXaYH9R/6KGHUufupor9vDbY/Kz7W3Scjg0/v3EP7c5bnfHL2qkEv7654IdfEBgo52euuApHlCkCCAwYAb2BUP9mdtLtextMf+uVUvxw3XbbtdyK0m5dyhFAAIGBLvDuu++6v/71r6bz6UC3YP8QQAABBBBAoClQzXvTSnNxd84So0hLnG6RscRZ6ys6jvZJND9Zjht++XYqxS/fxuKCX76d1cUax89v35zxwy8IFHle4+c3qGanRTrz85v1DSUWZ/yCVnaKX9ZEJRYXaxz9L98Yv7654Fcuv0r75rAEAQQQQAABBBBAAAEEEEAAAQQQQACB/hNg4Kr/7NkyAggggAACCCCAAAIIIIAAAggggEAHAQauOuCwCAEEEEAAAQQQQAABBBBAAAEEEECg/wQYuOo/e7aMAAIIIIAAAggggAACCCCAAAIIINBBgIGrDjgsQgABBBBAAAEEEEAAAQQQQAABBBDoPwEGrvrPni0jgAACCCCAAAIIIIAAAggggAACCHQQYOCqAw6LEEAAAQQQQAABBBBAAAEEEEAAAQT6T6Baq9Xabr2rq6vtsniBNU7rVCoV12mbirHWV3Qc7ZNANlmdtSbHFz9rfyk6jv6X7XsqsTrjh19v+ou1X1nj6H/0P/pffh8IpXy+ChLNKeeXpkWcs7pY41Q3/S8W7s7jlzVRidXFGqc66X9SSKfB6McVV+k+wBwCCCCAAAIIIIAAAggggAACCCCAQEkEqvV6vcemWGJUiSWu0WiY4qz1FR1H+ySanzi+M+6iNfHDj/NLfh/g56NvLvjhJwHOL33rB/jhFwQsn9cUW2Qc/S/oZ6cWZ/yybqEEvyCRnlpctIYljv6Xto3nivSrxhWTRwABBGY3gWq1mtx+PPfcc7t55pkntQvvvPNOaj6emWuuufzlx++9957/oy9eFvK6PFlxIXWqL8QwRQABBBBAAAEEEEAAAQQQKEaAgatiHKkFAQT6SeCYY45xo0aNarv1aY1p7o0333BnnXWWu/zyy1Nxt9x8ixtSGeLOP/98N3bs2NQyzej+8UsvvdQNGzbML3vppZfc//zP/2TiKEAAAQQQQAABBBBAAAEEEJg5Ajzjaua4UisCCMwigSFDhnTckgamhg4d6vbbbz937LHH5sbqqqrWpEGrCy+8MBm0euGFF9zWW2/dGsY8AggggAACCCCAAAIIIIDATBTgiquZiEvVCCAw6wSmTp3qdtttNzdx4sRko0sssYRbffXV3a677up0S+GGG27oLrnkEvf4448nMXmZMGi12GKL+cUTJkxw22yzjZsyZUpeOGUIIIAAAggggAACCCCAAAIzSYCBq5kES7UIIDBrBaZNm35L4BtvuNdffz3ZsPIPP/ywe+SRR9wZZ5zhy3VbYaeBKw1aXXbZZS4MWj399NNu++23Z9AqUSWDAAIIIIAAAggggAACCMw6gez9MbNu22wJAQQQmCUC9913X7KdpZdeOsm3ZsKgVXim1fjx4912223HoFUrFPMIIIAAAggggAACCCCAwCwSYOBqFkGzGQQQ6D+B+eefP9n4iy++mOTjTOugla7U0q2HesUtCQEEEEAAAQQQQAABBBBAoH8EGLjqH3e2igACs0hgxRVX9G8UDJu74447QjaZtg5avf32227MmDFOtx+SEEAAAQQQQAABBBBAAAEE+k9gyOjRo9v+ZRbetNXTFQfWOO2m3u41efLkjntsra/oONqXf1iszvjhJwFrfykq7oADDnBrrLGGx9e5JR5smnfeef1D2cOR0ZsB99lnHz+r89pll17m9NbBvHTBBRe4q666qscrrqz7oW1w/stK45c1UYnVxRqnOul/Ukgn/NIeYc7qYo1TvfS/oNuc4te0iHNWF2uc6qb/xcLdefyyJiqxuljjVCf9TwrphF/aI8xZXaxxqneg9L+q3pbVLtVqNb+oXq+3C/Hl1jgFDx8+3HXapmKs9RUdR/skkE1WZ63J8cXP2l+KitPVUSHpxNwu6QHte+21l/vggw98SN557f7773errbqaH8za9tvbuquvvrqw85U2ys9H9uhY+wF+WTuV4Nc3F/zwCwKcn4NEc8rPR9MizlldrHGqm/4XC3fn8cuaqMTqYo1TnfQ/KaQTfmmPMGd1scapXmv/462C4SgwRQCB2VpgWmOau+jii9xrr72W2o/nnnvOPfjgg8nbBsOJNBU0febKK690xx13nNtll13crrvu6gevxo4d6zbbbLMer7pqrYt5BBBAAAEEEEAAAQQQQACBYgQYuCrGkVoQQKCfBaY2prpx48b1eIVUXjP13CsNWimdffbZbqONNnJLLbWUW3DBBd1hhx3mjjzyyLzVKEMAAQQQQAABBBBAAAEEEJjJAjycfSYDUz0CCJRf4Nlnn001Ug9mnzJlii/76le/6tZaa63UcmYQQAABBBBAAAEEEEAAAQRmjQADV7PGma0ggMBsJDBp0iR38sknJy0+6aST3HzzzZfMk0EAAQQQQAABBBBAAAEEEJg1AgxczRpntoIAArOZwDXXXOMeeugh32o9F+v000+fzfaA5iKAAAIIIIAAAggggAACs78AA1ez/zFkDxBAYCYJ7L///u7999/3ta+wwgruO9/5zkzaEtUigAACCCCAAAIIIIAAAgjkCTBwladCGQIIzDYCjUajz22dOnVqbh3vvvuu0+BVSHuM2cM/sD3MM0UAAQQQQAABBBBAAAEEEJi5AtV2r4bXZru6ukxbt8apskql4jptUzHW+oqOo30SyCars9bk+OJn7S9Fxf34xz92+qc0bNiwXp1f1lt/veSAtZ6XQvseeOABN3LkyCROmTg2xKUC2szw85GFwS9rohKrizVOddL/pJBO+KU9wpzVxRqneul/Qbc5xa9pEeesLtY41U3/i4W78/hlTVRidbHGqU76nxTSCb+0R5izuljjVO9A6X9ccRV6CVMEEEAAAQQQQAABBBBAAAEEEEAAgVIJVOv1eo8NssSoEkucbuuxxFnrKzqO9kk0P1mOG375dirFL9/G4oJfvp3VxRrHz2/fnPHDLwgUeV7j5zeoZqdFOvPzm/UNJRZn/IJWdopf1kQlFhdrHP0v3xi/vrngVy4/rrhqfzxYggACCCCAAAIIIIAAAggggAACCCDQjwIMXPUjPptGAAEEEEAAAQQQQAABBBBAAAEEEGgvwMBVexuWIIAAAggggAACCCCAAAIIIIAAAgj0owADV/2Iz6YRQAABBBBAAAEEEEAAAQQQQAABBNoLMHDV3oYlCCCAAAIIIIAAAggggAACCCCAAAL9KMDAVT/is2kEEEAAAQQQQAABBBBAAAEEEEAAgfYCDFy1t2EJAggggAACCCCAAAIIIIAAAggggEA/ClRrtVrbzXd1dbVdFi+wxmmdSqXiOm1TMdb6io6jfRLIJquz1uT44mftL0XH0f+yfU8lVmf88OtNf7H2K2sc/Y/+R//L7wOhlM9XQaI55fzStIhzVhdrnOqm/8XC3Xn8siYqsbpY41Qn/U8K6TQY/bjiKt0HmEMAAQQQQAABBBBAAAEEEEAAAQQQKIlAtV6v99gUS4wqscQ1Gg1TnLW+ouNon0TzE8d3xl20Jn74cX7J7wP8fPTNBT/8JMD5pW/9AD/8goDl85pii4yj/wX97NTijF/WLZTgFyTSU4uL1rDE0f/StvFckX5ccRXLkkcAAQQQQAABBBBAAAEEEEAAAQQQKI0AA1elORQ0BAEEEEAAAQQQQAABBBBAAAEEEEAgFmDgKtYgjwACCCCAAAIIIIAAAggggAACCCBQGgEGrkpzKGgIAggggAACCCCAAAIIIIAAAggggEAswMBVrEEeAQQQQAABBBBAAAEEEEAAAQQQQKA0AgxcleZQ0BAEEEAAAQQQQAABBBBAAAEEEEAAgViAgatYgzwCCCCAAAIIIIAAAggggAACCCCAQGkEqrVarW1jurq62i6LF1jjtE6lUnGdtqkYa31Fx9E+CWST1Vlrcnzxs/aXouPof9m+pxKrM3749aa/WPuVNY7+R/+j/+X3gVDK56sg0ZxyfmlaxDmrizVOddP/YuHuPH5ZE5VYXaxxqpP+J4V0Gox+XHGV7gPMIYAAAggggAACCCCAAAIIIIAAAgiURKBar9d7bIolRpVY4hqNhinOWl/RcbRPovmJ4zvjLloTP/w4v+T3AX4++uaCH34S4PzSt36AH35BwPJ5TbFFxtH/gn52anHGL+sWSvALEumpxUVrWOLof2nbeK5IP664imXJI4AAAggggAACCCCAAAIIIIAAAgiURoCBq9IcChqCAAIIIIAAAggggAACCCCAAAIIIBALMHAVa5BHAAEEEEAAAQQQQAABBBBAAAEEECiNAANXpTkUNAQBBBBAAAEEEEAAAQQQQAABBBBAIBZg4CrWII8AAggggAACCCCAAAIIIIAAAgggUBoBBq5KcyhoCAIIIIAAAggggAACCCCAAAIIIIBALMDAVaxBHgEEEEAAAQQQQAABBBBAAAEEEECgNAIMXJXmUNAQBBBAAAEEEEAAAQQQQAABBBBAAIFYYMjo0aOnxQVxvlLpHtdqNBpxcSZvjdOKQ4cOdZMnT87UERdY6ys6jvbFR6GZtzrj1zSLc/jFGs281cUap5o5vzR9Qw6/IJGeWl2scaqd/pc21hx+WZPeuOCHXxDg/BIkmlN+PpoWcc7qYo1T3fS/WLg7j1/WRCVWF2uc6qT/SSGdBqNfdcKECWmFaK5Wq/m5er0elWaz1jitOXz4cNdpm4qx1ld0HO2TQDZZnbUmxxc/a38pOo7+l+17KrE644dfb/qLtV9Z4+h/9D/6X34fCKV8vgoSzSnnl6ZFnLO6WONUN/0vFu7O45c1UYnVxRqnOul/UkinwejHrYLpPsAcAggggAACCCCAAAIIIIAAAggggEBJBBi4KsmBoBkIIIAAAggggAACCCCAAAIIIIAAAmkBBq7SHswhgAACCCCAAAIIIIAAAggggAACCJREgIGrkhwImoEAAggggAACCCCAAAIIIIAAAgggkBZg4CrtwRwCCCCAAAIIIIAAAggggAACCCCAQEkEGLgqyYGgGQgggAACCCCAAAIIIIAAAggggAACaQEGrtIezCGAAAIIIIAAAggggAACCCCAAAIIlESgWqvV2jalq6ur7bJ4gTVO61QqFddpm4qx1ld0HO2TQDZZnbUmxxc/a38pOo7+l+17KrE644dfb/qLtV9Z4+h/9D/6X34fCKV8vgoSzSnnl6ZFnLO6WONUN/0vFu7O45c1UYnVxRqnOul/UkinwejHFVfpPsAcAggggAACCCCAAAIIIIAAAggggEBJBKr1er3HplhiVIklrtFomOKs9RUdR/skmp84vjPuojXxw4/zS34f4Oejby744ScBzi996wf44RcELJ/XFFtkHP0v6GenFmf8sm6hBL8gkZ5aXLSGJY7+l7aN54r044qrWJY8AggggAACCCCAAAIIIIAAAggggEBpBBi4Ks2hoCEIIIAAAggggAACCCCAAAIIIIAAArEAA1exBnkEEEAAAQQQQAABBBBAAAEEEEAAgdIIMHBVmkNBQxBAAAEEEEAAAQQQQAABBBBAAAEEYgEGrmIN8ggggAACCCCAAAIIIIAAAggggAACpRFg4Ko0h4KGIIAAAggggAACCCCAAAIIIIAAAgjEAgxcxRrkEUAAAQQQQAABBBBAAAEEEEAAAQRKI1Ct1WptG9PV1dV2WbzAGqd1KpWK67RNxVjrKzqO9kkgm6zOWpPji5+1vxQdR//L9j2VWJ3xw683/cXar6xx9D/6H/0vvw+EUj5fBYnmlPNL0yLOWV2scaqb/hcLd+fxy5qoxOpijVOd9D8ppNNg9OOKq3QfYA4BBBBAAAEEEEAAAQQQQAABBBBAoCQC1Xq93mNTLDGqxBLXaDRMcdb6io6jfRLNTxzfGXfRmvjhx/klvw/w89E3F/zwkwDnl771A/zwCwKWz2uKLTKO/hf0s1OLM35Zt1CCX5BITy0uWsMSR/9L28ZzRfpxxVUsSx4BBBBAAAEEEEAAAQQQQAABBBBAoDQCDFyV5lDQEAQQQAABBBBAAAEEEEAAAQQQQACBWICBq1iDPAIIIIAAAggggAACCCCAAAIIIIBAaQQYuCrNoaAhCCCAAAIIIIAAAggggAACCCCAAAKxAANXsQZ5BBBAAAEEEEAAAQQQQAABBBBAAIHSCDBwVZpDQUMQQAABBBBAAAEEEEAAAQQQQAABBGIBBq5iDfIIIIAAAggggAACCCCAAAIIIIAAAqURqNZqtbaN6erqarssXmCN0zqVSsV12qZirPUVHUf7JJBNVmetyfHFz9pfio6j/2X7nkqszvjh15v+Yu1X1jj6H/2P/pffB0Ipn6+CRHPK+aVpEeesLtY41U3/i4W78/hlTVRidbHGqU76nxTSaTD6ccVVug8whwACCCCAAAIIIIAAAggggAACCCBQEoFqvV7vsSmWGFViiWs0GqY4a31Fx9E+ieYnju+Mu2hN/PDj/JLfB/j56JsLfvhJgPNL3/oBfvgFAcvnNcUWGUf/C/rZqcUZv6xbKMEvSKSnFhetYYmj/6Vt47ki/bjiKpYljwACCCCAAAIIIIAAAggggAACCCBQGgEGrkpzKGgIAggggAACCCCAAAIIIIAAAggggEAswMBVrEEeAQQQQAABBBBAAAEEEEAAAQQQQKA0AgxcleZQ0BAEEEAAAQQQQAABBBBAAAEEEEAAgViAgatYgzwCCCCAAAIIIIAAAggggAACCCCAQGkEGLgqzaGgIQgggAACCCCAAAIIIIAAAggggAACsQADV7EGeQQQQAABBBBAAAEEEEAAAQQQQACB0ggwcFWaQ0FDEEAAAQQQQAABBBBAAAEEEEAAAQRigSGjR4+eFhfE+Uqle1yr0WjExZm8NU4rDh061E2ePDlTR1xgra/oONoXH4Vm3uqMX9MszuEXazTzVhdrnGrm/NL0DTn8gkR6anWxxql2+l/aWHP4ZU1644IffkGA80uQaE75+WhaxDmrizVOddP/YuHuPH5ZE5VYXaxxqpP+J4V0Gox+1QkTJqQVorlarebn6vV6VJrNWuO05vDhw12nbSrGWl/RcbRPAtlkddaaHF/8rP2l6Dj6X7bvqcTqjB9+vekv1n5ljaP/0f/of/l9IJTy+SpINKecX5oWcc7qYo1T3fS/WLg7j1/WRCVWF2uc6qT/SSGdBqMftwqm+wBzCCCAAAIIIIAAAggggAACCCCAAAIlEWDgqiQHgmYggAACCCCAAAIIIIAAAggggAACCKQFGLhKezCHAAIIIIAAAggggAACCCCAAAIIIFASAQauSnIgaAYCCCCAAAIIIIAAAggggAACCCCAQFqAgau0B3MIIIAAAggggAACCCCAAAIIIIAAAiURYOCqJAeCZiCAAAIIIIAAAggggAACCCCAAAIIpAUYuEp7MIcAAggggAACCCCAAAIIIIAAAgggUBKBaq1Wa9uUrq6utsviBdY4rVOpVFynbSrGWl/RcbRPAtlkddaaHF/8rP2l6Dj6X7bvqcTqjB9+vekv1n5ljaP/0f/of/l9IJTy+SpINKecX5oWcc7qYo1T3fS/WLg7j1/WRCVWF2uc6qT/SSGdBqMfV1yl+wBzCCCAAAIIIIAAAggggAACCCCAAAIlEajW6/Uem2KJUSWWuEajYYqz1ld0HO2TaH7i+M64i9bEDz/OL/l9gJ+Pvrngh58EOL/0rR/gh18QsHxeU2yRcfS/oJ+dWpzxy7qFEvyCRHpqcdEaljj6X9o2nivSjyuuYlnyCCCAAAIIIIAAAggggAACCCCAAAKlEWDgqjSHgoYggAACCCCAAAIIIIAAAggggAACCMQCDFzFGuQRQAABBBBAAAEEEEAAAQQQQAABBEojwMBVaQ4FDUEAAQQQQAABBBBAAAEEEEAAAQQQiAUYuIo1yCOAAAIIIIAAAggggAACCCCAAAIIlEaAgavSHAoaggACCCCAAAIIIIAAAggggAACCCAQCzBwFWuQRwABBBBAAAEEEEAAAQQQQAABBBAojUC1Vqu1bUxXV1fbZfECa5zWqVQqrtM2FWOtr+g42ieBbLI6a02OL37W/lJ0HP0v2/dUYnXGD7/e9Bdrv7LG0f/of/S//D4QSvl8FSSaU84vTYs4Z3Wxxqlu+l8s3J3HL2uiEquLNU510v+kkE6D0Y8rrtJ9gDkEEEAAAQQQQAABBBBAAAEEEEAAgZIIVOv1eo9NscSoEktco9EwxVnrKzqO9kk0P3F8Z9xFa+KHH+eX/D7Az0ffXPDDTwKcX/rWD/DDLwhYPq8ptsg4+l/Qz04tzvhl3UIJfkEiPbW4aA1LHP0vbRvPFenHFVexLHkEEEAAAQQQQAABBBBAAAEEEEAAgdIIMHBVmkNBQxBAAAEEEEAAAQQQQAABBBBAAAEEYoFqPEMeAQQQQAABBJoCN910k38o6LRp09xxxx3nrrvuuuZCcrkC6667rjv5pJP9ssfGP+Z23333JO72229P8htttJF77733knkyCCCAAAIIIIAAAgjkCTBwladCGQIIIIAAAtMF5pxzzsRh/vnnT/Jk2gvMNddcbkhliA+YZ555UoHxW4X1lqCypQUXXNDtuOOOvlnPP/+8u+iii8rWRNqDAAIIIIAAAggMOgEGrgbdIWeHEUAAAQQQQCBPYMUVV3RbbbWVX/T2228zcJWHRBkCCCCAAAIIIDCLBRi4msXgbA4BBBBAAIHBKnD11Vc7XXU1ZcoU05t6BqsT+40AAggggAACCCDQFGDgqmlBDgEEEEAAAQRmosDRRx89E2unagQQQAABBBBAAIGBKFCNnzfRuoNdXV2tRbnz1jitrGdadNqmYqz1FR1H+ySQTVZnrcnxxc/aX4qOo/9l+55KrM745fvFpdVqNfX7S7b6pwe3v/vuu8n5b9FFF3V6QLl+1919993u6aefTqrp6Xho3c9+9rO+zkcffdRNnDgxWTcvo/r0HKkPPvjAX8GkK5mUVMfnPvc599prr7lx48b5stbz87zzzuvWWGMN94lPfMJpWw888IDTPlqStqv6Vl11VbfIIou4e++917366qt+1dY6etrnsL2+ti8+PnLQcVHSfn7hC19wSyyxhN/Hhx9+2F/xpWWhbUOGDHFzzz23m2+++VTs05AhFReeaxYf37B84YUX9s7LLbect1C9cgwOIS5vGrabtywus8ZpnVa/uJ6Qt9ZXdBztC0cgPbU645d2C3P4BYn01OpijVPtnF/SxprDL2vSGxf88AsC1vOL7RNqqJUpAggggAACCHiByy67zOlh3krf+ta33IYbbuh22GGH1IfZ73//+27q1KnunHPO8f98cM5/O+20k9tuu+1S6yrsP//5jzv00EPdgQce6JZZZhm/5uabb+7eeOMNn19ppZXc6aef7vMvvPCC23PPPd3YsWPdsGHDfNk777ybDFz5gun/rbfeetPr/NH0Aa+5Q5GfTmtMcy+9/JI76qijnAZh2qXhw4e7U0891S348QWTh7ArVtu6886/ufjNga113Hbrbck67d4qOKPtO+yww9wGG2zgN3nuuee6v/71r+7kk092H/3oR5NmhAeva5Bur732Ssq//e1vu+9973vJvDLy+dOf/uTLTjnlFHfXXXf5/EILLeSOOOIIt8oqq/j58N/WW2/ts6+//rqvSw93JyGAAAIIIIAAAgj0XaBar9d7rMUSo0oscY1GwxRnra/oONon0fzE8Z1xF62JH36cX/L7wOzw86E2tj6XqTL9ipyQ9tlnHzdixIgwm5rOMcccbuedd3bvv/++u/jii/2ycD7QVUJnnnmmv3IntdKHM4sttpj71a9+5dR34iuZwvoqD0lXeJ1//vnuIx/5SCiaftVR83eurkA66KCD3CabbJIsjzN6E6Cu+Dpj7Bnux0f8OBm0iWN0FZcGyuK2hOUa6Bk9erS/2iyUaRquBlM+vG1Q+VbPItqnepV0LDQQKPu8tNpqq7nTTjstGbwKV2flxapMy8MxaDVuXUdXaV144YXe+rbbbmtdnJoPxzFVmDNjieP8kgP3YRF++TYWF61piaP/5Rvj1zcX/PCTAOeXvvWDgeLHFVft+wFLEEAAAQQQMAmEQStdXaUrjv773/86vaFOV0SFtPvuu7tLL73UfwALZQcccEBq0EqDOU8++aS/0mqFFVZwGrjKGyQK68fTcPVXKNMVUPGthttss01q0Epvzbv55pvdyy+/7G/5W3nllf0VXxpc0lVXSuGKI+U1IHPmGWemBp+eeeYZ98gjj/hluu1wzjnn9P8U39vU1/bF21t++eWT2Yceesg9/vjjTleKff7zn088NXilWx0ffPBBf0vnUkst5WPCMdOxvOGGG3w99913n58ef/zxycCglt9///1Og1O6lVBXYGlQUINl+nfkkUdNH8jbIHW8k0aRQQABBBBAAAEEEDALMHBlpiIQAQQQQACB9gIaANpll13cSy+9lAR997vfdbpdUEmDGXrWkm5hU9JA0Kabburz+m/ChAku3G4WngW55ZZbur333juJsWR0G9wPf/jD6bfuvZOE6yqszTbbLJnXrYC6NU4DZSFpkEwDaxp8Utp1111TA1f7779/Mmil2wpP/unJ7ne/+11Y3Q/o6JZIDRD1NhXRvtZt6gq3/fbbz91zzz3Jos985jPu7LPOTvZD/hq4euyxx/ztf7pN8aSTTvLx7733ni8LK2u/NLgX0iWXXOKv2grzV111lbvgggucbiFV0hVoitfAGQkBBBBAAAEEEEBgxgWa9znMeB2siQACCCCAwKAW0ACQBkniQSuBaCBHgzwh6UHoIWkgKNzKpltxNFDUmnRroR7wbk3jx4/3A1LxoJXWPeSQQ5IrjXQllgbT4kErxeh5Wvvuu6+yPulh5nrwupIGlkaNGuXz+u+6669zf/zjH5N5ZXQFl26JjPc3FdBhpq/ty6v64IMPTg1aKUZXhz0//VlgIekB69akh4fGt2GGq7Di9WWogSoZ61/wi2PII4AAAggggAACCPROgIGr3nkRjQACCCCAQEZAt9zpdrG8pDf7hbTAAguErFt++RWS/HXXXef0UO+8dOyxx+YV55b96Ec/yi3XWwZDuvrqq/xzp8J8PNWgSzygFa7SWmeddZJBNg1M6flQeUkPjb/jr3fkLepY1tf2tVb+yiuv+DcdtpZr/sknn0iK4we3J4VtMq3PiDjhhBOcrohrvZVTD8gfNeqL/l+41bBNlRQjgAACCCCAAAIIGAS4VdCARAgCCCCAAAKdBP7973+3Xfza66+5BT7ePWAVv/45HsS65ZZb2q6vq7g0mNQ6QNK6gp659Nxzz7UW+3ndlhiSnuukNxXmJV0BFj+oXM99Uvr0pz/tp/rv9cmv+6urkoKWjAa/Ro4c2VLaebav7WutXc8Ya5fi536FK97axbaW6zbM8Dwz3c6pZ5TpKrVnn312+hsV73TXX3+903O/SAgggAACCCCAAALFCTBwVZwlNSGAAAIIDFKBTgMl7UjmnmuuZFG7AacQoOc19TRw9f77+W8JnmeeefxD10Ndyy67rNM/Swq3xi299NJJ+KRJk5J8XkaDOL1JRbSvdXuTJ09uLSpkXs8OO++889wyyyyT1KfBL/no37bbbutvEbzxxhv82xfffPPNJI4MAggggAACCCCAwIwJcKvgjLmxFgIIIIAAAomAHuTdm6RBKL29L6R2txmG5fGVWqHMOv3Yxz5mDc3E6fY4paFDhybLQllS0MdMEe1rbYIG+mZG0pVv3/72t/0Va3qemK5ya016KPvmm2/urrjiiukPaJ+ndTHzCCCAAAIIIIAAAr0U4IqrXoIRjgACCCCAQF8FNAAS3/63+OKLOz2XKS/pOUzhLYN5y3sq0wPD4zRmzBj397//PS5K8mE7elh8nPTGw/BGvZ6eC7XkkkvGq/aYL6J9PW6k4ICbbrrJ6Z8e2L7KKqu4jTfe2Ok5YIsuumiyJTkdfvjh7qCDDkrKyCCAAAIIIIAAAgj0XqDa6bXV+kCm1NO3q9Y41aVvbTttUzHW+oqOo30SyCars9bk+OJn7S9Fx9H/sn1PJVZn/PL94lI9kyr+/TVHdY5k8UILLeTfyhcvDwvjq6XmnXdeN2zYMP97VW/+C4NAGvR49dVXwyqp47b22msn5crozYThSp74rXiV6Vdw5W1f6+iKsLk+vDVxvfXWc+1ubVR/0UDMxz/+ca3m9OY83XYXD6otuOCCTgNt+myQ9/kgPANK61erXcn+aj5OemthuNKsr+1TveG2xv9n707g5Cjq/o9Xht3lCgS5RIiBRx4URLnkCAgIiSBBDoMCCgpyyyEql+RR5PTh0gcRQfiDyKUcyiGICCg3QriPKIh4EMIhciVAgIVM/vutpXqqj5n97U4n29n91OuVdHfNr6tr3l3bO1tTXa11+QRnbccpnk8rW7/Yc8SIWspTt1eOHz/eF/Xkk0/6ea20ofN2ySWX+H9qI5pMX0ZKmk+s6JxYfy6tcToWv3+lkE74pT3CltXFGqdyaX9Bt7HEr2ERr1ldrHEqm/YXC/eu45c3UY7VxRqnMml/UkinOeHXoW9Rm6Vm37xm461x2k8f4FodUzHW8sqOo34SyCers/bk/OJnbS9lx9H+8m1POVZn/Ir94lx1UMS/v2a927hNTB1B6uCJXw/7vvPOO2HVvf766+7ZZ591GtGkkUah42qLLbZwp59+ehIXn7cf/vCHSb5WnnnmmaQjKe5oqfc87a/o+NrnhRdeSDpQxo0b50455RRl55I6pP5n0v8ktzFqdJbKvO2229yuu+7q43WbozqnLr/8cv8+4kLUObbWWmslWe+++07yfpPM91Y0r5c675TarZ/KeOONN7TwSeUG55AXlvHTG7P1C5PRK3b27HrKU7cITpw40RczbdozPU8U3C4UmSyff/55/8TFY445xufpPBadk/j8JjsXrFjjtCu/f/OA+OVNlGN1scapTNqfFNIJv7RH2LK6WONULu0v6DaW+DUs4jWrizVOZdP+YuHe9TnhxxxXeWdyEEAAAQQQmOMCF110UXIMdUDtv//+yXZY0egdfSBqN5111llJETrW9ttvn2yHFXVInXzyyUmnleaJCrcUTpkyxXcuhdh9993Xj2gK22F54oknuv4+qU/7tlu/cPx2l/EIsvnnnz81If5DDz2UFD969HIu7jRMXuhZGTt2bLKZvQ0yeYEVBBBAAAEEEEAAAbMAc1yZqQhEAAEEEECgPIEbbrjB7bbbbv5pdCp1l112cZtssol74IEHfKfQqquumrr9rZ0jaz6mffbZJ+kEO+SQQ9yGG27ofv/73/uRX6uvvrr7yle+4hZZZJHkMKeeemqyrhXN13TmmWf6PHXqqOPtyiuvdPfee6+/NW7HHXd08Yil1M59bJRRvz4OYXpZHXQhqSPv5z//uXv44YfdpZde6jQZ+8yZb/bchrigD9F7P/vss92dd97pXnnlFbfpppu6zTbbzMkypBtvvDGsskQAAQQQQAABBBAYoAAdVwOEYzcEEEAAAQTaFTjooIPcBRdckNwyqNFV2RFWurVNHUphJNPs2bMHdFiNhjrppJOSzjCNDIpHB8WF3nrrrf5WwDjvwQcfdNddd52bMGGCz9bcXTvssIP/F8fpdkjN5dXf1G79+nu8onhZz5gxIzkfmtdK/3Rb41133eWOOeZod8IJJ/hd1bGlkWf6V5R0i+B5551X9BJ5CCCAAAIIIIAAAv0Q4FbBfmARigACCCAwfAX0FMA4zao35riK57GKY7Qe75eN061kn/nMZ9zVV1+dmy9Kt+o9+uijfl6luLNKc2mFFJetOZlaJc0jpU4njZBqljQJ+6GHHuoOO+ywwpCjjjrK3044u2c+raKkUUl77LFH8tKsWQ2jJLPJSrv1i48Vr2cPF5sVxf3oRz/yI6uy+2n75ptvdjLQuWmVNCfYV7/61VYhvIYAAggggAACCCBgFGDElRGKMAQQQACB4Sew0UYb+TetydSzaauttkplZUdKhRd1C2BIYbLKsK2l5lXSXFb6pyfjrbTSSv6JdZpsXMfVyCaN7lFSh1Hc8fKXv/zFqY5F9fM7ZP5Th8sBBxzglllmGbf++uu7tdde2x9TE5mrQ0u3vfWVfv3rX7s//vGP/lZDTdKuJ8doNJJGaWm0klJ4smD2/Yb8Zsdop37f/e53nf4pZY8bH0+3O4ZbHovirr32Wj+yTE9z1GTzmnBdzpq4XkmjznRr4+abb+5WXHFFf6unnmI4bdo0969//cvdfvvt7p///Gd8SNYRQAABBBBAAAEE2hCg46oNPHZFAAEEEEBgoALrrruu++QnP+l318TfGs2jziqtxx0q6mAKaeabvU/hC9sDXaozRnM06V+c4uPG+dl11fP6669311xzTfalUrbbrV+7lVBn4h133NG0GI2cUwdXNln9svuxjQACCCCAAAIIINBcgI6r5ja8ggACCCCAwBwT0PxSX/ziF335X/jCF/zE7NlbCTWS54gjjkjq0Oo2vySIFQQQQAABBBBAAAEEhpBAR6tvB3V7giVZ41SWbilodUzFWMsrO476SSCfrM7ak/OLn7W9lB1H+8u3PeVYnfGb+356ot/OO+/sD6xbAX/xi1+4o48+2j355JNu6aWX9qOx9KS/RRdd1MfoNkFN5B7/DuX8tnfe8MMvCPD5JUg0lvx8NCziNauLNU5l0/5i4d51/PImyrG6WONUJu1PCumEX9ojbFldrHEq19r+GHEVzgJLBBBAAAEE5qKA5kPSCKp11lnHH3X55Zd35557bmEN1Gk16X8mub/97W+Fr5OJAAIIIIAAAggggMBQFeiwTOhqiRGQJU7zRljirOWVHUf9JFqcLOcNv2I75eJXbGNxwa/YzupijePntz3ngfhpovSTTjrJbbzRxm5EbURhBTQZ+6RJk5yeVNcsWX6OBlK/ZscL+ZbjKtYSR/2Can6JX95EORYXaxztr9gYv/Zc8MNPAlxf2msH+OEnAUZcNW8HvIIAAggggMAcFzjssMP87YA77rijf0rdBz7wATd9+nR3//33+yf1aWQWCQEEEEAAAQQQQACB4SpAx9VwPfO8bwQQQACBygjMmDHDnX322Ul9wjxW1hElyY6sIIAAAggggAACCCAwxARqQ+z98HYQQAABBBBAAAEEEEAAAQQQQAABBIaIAB1XQ+RE8jYQQAABBBBAAAEEEEAAAQQQQACBoSZAx9VQO6O8HwQQQAABBBBAAAEEEEAAAQQQQGCICNBxNUROJG8DAQQQQAABBBBAAAEEEEAAAQQQGGoCdFwNtTPK+0EAAQQQQAABBBBAAAEEEEAAAQSGiEBHeHJR0fvp7Owsys7lWeO0Y61Wc62OqRhreWXHUT8J5JPVWXtyfvGztpey49ppf7fffnv+xJGDAAIIIIDAIAlstNFGqSPz+SrF4TesnyMUjB9+1vZSdhztL9/2lGN1xg+/0F4YcVXcFshFAAEEEEAAAQQQQAABBBBAAAEEEBhkgY7u7u4+q2CJUSGWuHq9boqzlld2HPWTaHHi/A7cRXviV32/9dZbL6lkGBna13mzxqngMWPGuKlTpybHKFqxlld2HPUrOhsuGSHcVzvADz8JlP1zaS2P9jd02t/kyZP9m8lec/h8WnyOlZu1KorEr0ilNw+/YhuLi/a0xNH+io3xa89luPkx4qp5e+EVBBBAAAEEEEAAAQQQQAABBBBAAIFBFKDjahDxOTQCCCCAAAIIIIAAAggggAACCCCAQHMBOq6a2/AKAggggAACCCCAAAIIIIAAAggggMAgCtBxNYj4HBoBBBBAAAEEEEAAAQQQQAABBBBAoLkAHVfNbXgFAQQQQAABBBBAAAEEEEAAAQQQQGAQBei4GkR8Do0AAggggAACCCCAAAIIIIAAAggg0FyAjqvmNryCAAIIIIAAAggggAACCCCAAAIIIDCIAh1dXV1ND9/Z2dn0tfgFa5z2qdVqrtUxFWMtr+w46ieBfLI6a0/OL37W9lJ2XBntL742VbF+ceuifrFGY71sF2t5ZbS/xrso//cg9Yt1G+uc34ZFvGZ1scapbD4fxMK966384t9H+OXtlNPKL7sH7S8rgl9epDfH2q6scSqV9pfXxi9vohyrizVOZQ6V9seIK51NEgIIIIAAAggggAACCCCAAAIIIIBA5QQ6uru7+6yUJUaFWOLq9bopzlpe2XHUT6LFifM7cBftiV/1/YrOUVFe0TuxxHF9KZLrzcOv2Mbioj0tcbS/YmP82nPBb874ZX+m+fltzxk//IJA9mcr5GeXZcbR/rK6jW2LM34Nr+zacPJjxFX27LONAAIIIIAAAggggAACCCCAAAIIIFAJATquKnEaqAQCCCCAAAIIIIAAAggggAACCCCAQFaAjqusCNsIIIAAAggggAACCCCAAAIIIIAAApUQoOOqEqeBSiCAAAIIIIAAAggggAACCCCAAAIIZAXouMqKsI0AAggggAACCCCAAAIIIIAAAgggUAkBOq4qcRqoBAIIIIAAAggggAACCCCAAAIIIIBAVoCOq6wI2wgggAACCCCAAAIIIIAAAggggAAClRCg46oSp4FKIIAAAggggAACCCCAAAIIIIAAAghkBUaMHz9+djYzbNdqvf1a9Xo9ZBUurXHaedSoUW769OmF5YRMa3llx1G/cAbSS6szfmm3sIVfkEgvrS7WOJU+0OvLr371K1+57bffPqmk9bjWuHbql1QqWrEe1xpH/SLcaBW/CCNatbpY41T0QH9+o2olq9bjWuOoX0KbWsEvxZFsWF2K4op+H6lgfj4S3mSlyC95MbOCXwakZxO/vIlyrC7WOJVJ+5NCOuGX9ghbVhdrnModKu2vY+rUqcEpt+zq6vJ53d3dudfiDGuc9hkzZoxrdUzFWMsrO476SSCfrM7ak/OLn7W9lB1XRvuLr01VrF/cuqhfrNFYL9vFWl4Z7a/xLsr/PUj9Yt3GOue3YRGvWV2scSqbzwexcO96K7/49xF+eTvltPLL7kH7y4rglxfpzbG2K2ucSqX95bXxy5sox+pijVOZQ6X9caugziYJAQQQQAABBBBAAAEEEEAAAQQQQKByAnRcVe6UUCEEEEAAAQQQQAABBBBAAAEEEEAAAQnQcUU7QAABBBBAAAEEEEAAAQQQQAABBBCopAAdV5U8LVQKAQQQQAABBBBAAAEEEEAAAQQQQICOK9oAAggggAACCCCAAAIIIIAAAggggEAlBei4quRpoVIIIIAAAggggAACCCCAAAIIIIAAAnRc0QYQQAABBBBAAAEEEEAAAQQQQAABBCop0NHV1dW0Yp2dnU1fi1+wxmmfWq3mWh1TMdbyyo6jfhLIJ6uz9uT84mdtL2XHldH+4mtTFesXty7qF2s01st2sZZXRvtrvIvyfw9Sv1i3sc75bVjEa1YXa5zK5vNBLNy73sov/n2EX95OOa38snvQ/rIi+OVFenOs7coap1Jpf3lt/PImyrG6WONU5lBpf4y40tkkIYAAAggggAACCCCAAAIIIIAAAghUTqCju7u7z0pZYlSIJa5er5virOWVHUf9JFqcOL8Dd9Ge+FXfr+gcFeUVvRNLHNeXIrnePPyKbSwu2tMSR/srNsavPRf85oxf9mean9/2nPHDLwhkf7ZCfnZZZhztL6vb2LY449fwyq4NJz9GXGXPPtsIIIAAAggggAACCCCAAAIIIIAAApUQoOOqEqeBSiCAAAIIIIAAAggggAACCCCAAAIIZAXouMqKsI0AAggggAACCCCAAAIIIIAAAgggUAkBOq4qcRqoBAIIIIAAAggggAACCCCAAAIIIIBAVoCOq6wI2wgggAACCCCAAAIIIIAAAggggAAClRCg46oSp4FKIIAAAggggAACCCCAAAIIIIAAAghkBei4yoqwjQACCCCAAAIIIIAAAggggAACCCBQCYGOrq6uphXp7Oxs+lr8gjVO+9RqNdfqmIqxlld2HPWTQD5ZnbUn5xc/a3spO66M9hdfm6pYv7h1Ub9Yo7Fetou1vDLaX+NdlP97kPrFuo11zm/DIl6zuljjVDafD2Lh3vVWfvHvI/zydspp5Zfdg/aXFcEvL9KbY21X1jiVSvvLa+OXN1GO1cUapzKHSvtjxJXOJgkBBBBAAAEEEEAAAQQQQAABBBBAoHICHd3d3X1WyhKjQixx9XrdFGctr+w46ifR4sT5HbiL9sSv+n5F56gor+idWOK4vhTJ9ebhV2xjcdGeljjaX7Exfu254Ddn/LI/0/z8tueMH35BIPuzFfKzyzLjaH9Z3ca2xRm/hld2bTj5MeIqe/bZRgABBBBAAAEEEEAAAQQQQAABBBCohAAdV5U4DVQCAQQQQAABBBBAAAEEEEAAAQQQQCArQMdVVoRtBBBAAAEEEEAAAQQQQAABBBBAAIFKCNBxVYnTQCUQQAABBBBAAAEEEEAAAQQQQAABBLICdFxlRdhGAAEEEEAAAQQQQAABBBBAAAEEEKiEAB1XlTgNVAIBBBBAAAEEEEAAAQQQQAABBBBAICtAx1VWhG0EEEAAAQQQQAABBBBAAAEEEEAAgUoIdHR1dTWtSGdnZ9PX4hescdqnVqu5VsdUjLW8suOonwTyyeqsPTm/+FnbS9lxZbS/+NpUxfrFrYv6xRqN9bJdrOWV0f4a76L834PUL9ZtrHN+GxbxmtXFGqey+XwQC/eut/KLfx/hl7dTTiu/7B60v6wIfnmR3hxru7LGqVTaX14bv7yJcqwu1jiVOVTaX4feDAkBBBAYzgIbbbTRcH77vHcEEEAAgYoI8PuoIieCaiCAAAIIVEqgo7u7u88KWWJUiCWuXq+b4qzllR1H/SRanDi/A3fRnlX2++AHP+hGjx7tZs2a5e64447iN9qTO1R/PlZccUW32mqruZkzZ7rrr78+ef8bbrihN/nHP/7hnn766SS/aKXK51f1jev38Y9/3C2++OLupZdeclOmTEneTl/nd+zYsU5tZerUqW7y5MnJfq1W4uO2G9dX/eLyyzyuyrWUR/3iM5Bexy/tEbYsLoq1xNH+gmp+iV/eRDkWF2sc7a/YGL/2XPDDTwJcX9prB0PFjxFXzdsBryAwbAS+8Y1vuPXWW8+/37AcNm++543uueeebty4cb6TKnRcLbjggu7444/3DDfddJObNGnSoJF0dPReqt99991S6nDKKae4RRZZxL380stuwpYTzGUe+b0j3eJLLO47rrbffnvzfgQigAACCCCAAAIIIIAAAgMVYHL2gcqxHwIIIDAXBHbddVd35513+n8aKUVCAAEEEEAAAQQQQAABBIaTACOuhtPZ5r0i0ERAtwdqVE9ZI3qaHGaeyn7nnXfcAw884GbPnu07jQar8vPNN19yaE2uWEa68cYb3fLLL++efPLJMoqjDAQQQAABBBBAAAEEEEBgjgnQcTXHaCkYgXlH4KqrrnKXXXbZvFPhuVBTdeLpFkrrHCBzoUqlHeLEE08srSwKQgCB4Smw8cYb+6dE//3vf3f//Oc/hx3CNtts4/TFwv333+9vnxZAmD9w+vTp7i9/+cuwM+ENI4AAAgggMKcE6LiaU7KUi8A8JLDKKqu4j3zkI36Op8svv9zXXKN79thjD/8IVc37NG3aNLfpppu6D3/4w26FFVbwf6jcfffd7ne/+52fNLHo7Spus802cx/72MfcM888437zm9+4v/71r36Cb+W9/vrr7vbbb/e7Lrnkku7zn/+8X//lL3/pHwf7rW99y6200krukksucepcC2mhhRZym2++uVtnnXXccsst5/71r3+5m2++uc8J1FWfT3/6034idk1MrpFH99xzTyg2tRwxYoSbOHGif28PP/ywr3cqoGfjox/9qC9Pf6yoo0sTlv/xj38srMe2227rVl55Zf9+//SnP7m1117bz6slh5dfftnX47e//a176623/GH0Hr/yla8kc48pc4cddnCaIF0Wr7zyio8byH86j0sttZR7/vnn3W233ZYrYq211nL6o/S///u//agsnf/HHnssF0cGAggMTwFdn04++WT/5m+55Rb37W9/e9hBfOc73/Hv+Ve/+pX7wQ9+4NfD/IG6Pqtja7CSfn/rnybk1T8SAggggAAC87oAHVfz+hmk/giUIKAOqjApe+i4WmCBBfyk5SpeE5WPHz/eLb300snR1KmhTil1Nmn/7Ifj/fbbz2l+pjgpVp1V6gRRp5Nux9OT+5TUgbP77rv7dXWoHHbYYf72RWWogyh0XCnutNN+4hZaaEEfq//U8TZhwgQ/Omrvvfcu7GQ58MAD3c4775zso5Utt9zS7/O3v/0tla8NvX91nCllJ2fXHwTHHnus77TyAe/9pw6ffffd13eiHX744fFL7utf/7qfEF2dV9ttt53LPvJ8/fXX94477bST75SSdfAIBanTTUlP9VMH2UCT/uAKk7PHHVe6XfT888/3HWyhbJ2nL33pS74zrjZfObcqhrJZIoAAAgiUL6DOxPnnn99/qbPjjjuWfwBKRAABBBBAYC4L8FfIXAbncAjMiwLquFBHyuz6bD9KJx7to06lgw8+OPW21OETd1rpdjvto/1HjhzpO61SO2Q2Jh0+Kem00gadpusAAEAASURBVEuzZs3yEeoYOufsc5JOK92O8Y9//MPNnPmmf72rq8v9/Nyfuw022MBvh//UCRZ3Wqnz7IUXXvD10T6rrrpqCDUtL7zwwqTTSnV7+umnk/JUgEY0/eIXvygsS16h0+rFF190//73v309FCyb008/3e8X6hjemzJfe+01fxx17M2JpNEC6lgLSU8dfPXVV/3mBz/4QbfYYouFl1gigMAwFtA1/b777nMPPvigu+uuu4axRPqtaxSvbh1s54uFdIkD29KIYSV9yUJCAAEEEEBgKAgw4moonEXeAwJzQUCdGMced6zTbW5Kuo0ujCraZJNNkttG3ve+9zndFqekjqr9D9jff5DXtjo/zj33XLfoootqs2kaURvhO7q+973vuSlTpiSTxmuUk15T+r//+z936aWXJmXss88+foSSXtdtK6EOOtZ2E7fzcepkOu6449wf/vAHP9JKtydeeMGFbvElFk/K6WtFo5402kxJnV977rmnr6v+kFt88cWdbhtRB5RidFufbqfMJo0003vTSC6l//qv//IdXZovRUadnZ1OnVpbb721f096b0rqINRti0rqcCszjRs3zi2zzDK+yDfeeMMfV7dgKum2xh/96Ee+Xj6D/xBAYFgL6Nbo/fffv/Tr0LyOGuYPLPv6PK+7UH8EEEAAAQTaFegYM2ZM0zLCNzXZW4CyO1jjtN+oUaNcq2Mqxlpe2XHUTwL5ZHXWnpzfedNPtwKGFH4+datcSOqAOvSwQ52+xQ2v61tlddboA7o6h0K+JjQPT8K77FeXuf/85z/JaypPHUcnnXRSKDp5Lb4NUR07+qNIy5D/qU99yqmjSUlzSelb/nBM5V133XV+FJTy1AGz7rrr+tFhukUvdHZpDilNmLvssssmtzYedfRR7sc//rGKcLURtaTMhRde2OfpP62HY4W5XGTy3e9+199GKb9wnTzyyCPdD3/4Q7+vbpd89tln/Xr4OdLGT37yEz93VChTHWqa3Dh0iK222mp+TjDFqiMwpA984AO+k0zbobxw3BCTXRbFhbz5OuZL3lc8ak4dhCo31E8ddBdffLHbZZddfPE65+G17PHCdjjGQOoXysguub5kReztQHvih19ZP5f6XbDFFlv4a73mLQy3W+vapRGsGqmpa7I64jXCVHn6vfDII4/4efU0Z2JR0qhO3T6ueF3/NQeiftfo95FG3CqFL0+0rrJ1PVcnu34n6JZ2fZGi254nTZqUuk5qvkR9maB5GvW0WNXlzjvvdM8995yKKvz50JcIul1ax1bdHn/8cV9/XRNDin//6ZZvfYGhORQ1f2L2+qf3oTprXsT3v//9/veD4u69997kC5pQrn736f2orrqFX/H6MmP11Vf3v3P1VFh9MaL3EZLe34c+9CHX2dHps5Zccin/RY5G9oYvSvRCf9uBbtFvdl71HnX7/0MPPRSqkVvqfOjLJJWxxBJLuLffftvP7ahzptvV9R7jtMYaa/gpAmbOnOmnCdC16zOf+Yz/EuWpp55ymndR71/vQ6/p84H20e2ROke39Nwqqbg4xdc/OclxhZ55L/VFjc6B6qJ1pex5i8vRen/9+ipPZcb103ZRKvu41vJUF+qXPyP45U2UY3WxxqlM2p8U0mk4+nVorpRmKXxjpD9OWyVrnMrQHzutjqkYa3llx1E/CeST1Vl7cn7nTb833+y91U61Dz+fmnw3pMcef8yPfMqeX92ypjz9QRL2Gz16dNjNdwjpm/k4KU4f+kOHVNhPH7ZD0oTvelKVUmh/+mMjpFNPPTU5XsjTUn/QqD5KmmxeH0bDfuocUodZuNCH65qOrz969AG2PruelKtfkiHpw6zitG8YLfa3J//mRz+F+sXl6UO5PkCrzPD+wgdXxWmy+WzSh/7QcaX9w37xbZn6AyvkZ4+bLS9sF8WFusx6d1ZS3hKLL+F3UUebJrrPpp/+9Kf+dkuda72HUI9sXNguOm54LV5a47RPtv3F5YR1a3llx1G/cAbSS6szfmm3sFVVP/1+CHPwqZMg3BqnDnB1CugaMWPGDPfNb34zvBW/XHHFFd3ntv1caiRuCFCH1QknnJAa2amOIF279WAPzQ2opM4sdcQoaf4mPWhC13B1MIXbsPXFgq5R8tN1+4gjjkhu7/Y79vynuRG1v653Gj2cvb7oC5Cf//znfgRt2EedHdpHX4KEpPcZrocaUaz5A3Xd1ryM4feCYovmZ9TvPb1vxWXnZ/zEJz6RvGd1TumLEnWkhaSRuppnUsc866yzfLa+GNLvvpA0F6Tc1JF43nnnhezk92pcv+TFaCW0P93+3+q86hbzZudVHYY6tjqv4qT66z3utttufh7FcE4Vc8ghh/h5N3UeVUfFhKT9NunpnNSXUHpAgG6vj130e/SzW37WHfD1A/ztrGE/nV+dq7PPPjv5nBBe03ndc4893Sk/OsVdeeWVqfMWYuJlcLH69RWnsrPtLz5eWC/7uNbyqF84A+klfmmPsGV1scapXH4+gm5jORz90r9FGhasIYAAAomAvj0uSvo2NJv0baqSPqhlO61CrJ4wGDquQl681Le32aROoJA0gXhR6pivcUnT6CSlMGJJdVV9woU+3l/f/sflx6/F6/rAHJI6xO64446wmVqGD9FdnV2pfG0UmSlf83UNVtI3+WFUWvgDLFsXdXZp3q24Qy8bwzYCCCAgAV1nQ6eVOv5feeXVnpGw7/edF7rWnHbaaf7JpeF3hEbIhpGq2l+dVer80fVbneWh00qvFSVdv+Nr+Kx677yIilXHjjrMlFSufv9o5NNSPaORVJcwJ6FGaIWk0VW67Tv8vtB++j04cuQifo7FrbbaKoSalhqxdcbpZyTXWV3vVd4yy3zAl6fjaH7Ggw4+KDWiLBR+9NFH+1WNQvv3v1/ocVnMjwRWpjoQNWLrgQce8E+/1YgvdeYphXprLsgyUtF5ff/7l/YdR0XnVZ1V+tIjdFrpSyuNhPrAB5bt+beMP7ca0azOpKKnMKrM0GklM32uCO9N80WqY1FJ71NP59V7V3vRfpqzMXRkKkYjozX3ZDinKku/+/WZRb/XtM9BBx3kn1SsqQhICCCAAALVEmj8lVetelEbBBCokIC+pbSmcNthmNTbul8cpw/n2RQ6xJQfOoayMfG2Rjwphc6jeFRZHKd1a6dRGBEV9rfUI8SGpUZTVS3Ff/C1snjrrbfouKrayaM+CFRYQB0F4VZsdR5pdEzojNp4442T29c0519IF1xwge/sUGe5ruNnnnmmv20svN5q+etf/9pp/zB6Z1zP3H2h00qdJnpoiDo4lLJzEq655prJyKlDDz006eDQLWl6cq6uf+r00C3Te+21V6tq5F5rNj+jytM8iaqXOk7i+RmzhegLHd1+Hr780LyDGpGmpCf2quNKI5CUNAJOZauTbvvtt/d5Zf4Xn1edI42IKzqvqpdGoCkp5gc/+IFfV6eR9tPti+rUWnqppf0ydGT6oPf+06ir//nO/yRtRQ+LCZ2iCtHDUdS5pYeXqCx9saXf1Xr/+twQvniTnfKUNGpPD20Jo481j6PaqTq9dth+B99Oq/i72lee/xBAAIFhKkDH1TA98bxtBOaUgD7ca3Ly8AGx6Djx7YRFrxflqSMsjJ762te+lnzgjGM1yirMVxLmt3jn3Xd8XUKHWhwf1jXiyJL0ATmkP//5z063LIbOq6LONn04nxdSmIdLdW01okrnlYQAAghYBPQQjNBppXhdI3Wb9L777ut3DyNY1YEVRtHo9i+NvgkdCuo8UCeRbudr9TtFBarDKjyV1R+g5z/d4qakETnq3AidVsrTujqNwq3b6mRR54pug9QoLCVdw9WpFHeo6Di6xS3MueUDW/z32c9+NpmfUR018UNFtNs555zjb4vT7Xa6PXG55ZZL5jgMxephHercC51WytdE8LodUUnzfM2tlD2vOkdF51X10XmVveaw0tyOcdJ+GrWs2/7UaaffL0VfeF37u2uTTivtr3MUOq7UqXXAAQf4Tiu9pvOk+cDCXJS6ffT3v/+9n59svXXXU4h/8IluRYyTnpCpDi+NXlNddthhB6enB5MQQAABBKojUKtOVagJAggMBYHw7aa+ZQ23B2Tfl77p7m8KHVHaTx/e9XS97D996NUkrfoXJpcPc0SNXHhkcmtF9tgf+q/G/FrZ1+LtJ554ItlUR5iOr7lH9C+ui/4AUR20nBeSOuT0B4BSdlRZqL/O50ILNuY9C/ksEUAAgSIBjZTKpgcffDDJ0u14SppUOySNmMomdUbceOON2ezUtq5fuiUtTprbKhxDcyaq8yeb9FCMMLImdKRpgnmNvFHSBPNxp1XYP9tBFvKLlhtssEGSrU6qohTPK6hRYtl0xRVXZLP8lzTqFFKK56TMBZacYT2vOqw6q/T+P/nJT/r5pUJV9CWTbv+MbcJr2eVll12WytLv/3BOXnv9tVRnpALjzsnQoafRdOqQUrr22mv9Mvvf1VdfnWSpM5WEAAIIIFAtAUZcVet8UBsE5nmBf/VMkrv88sv7D/76pvpnP/tZ6j0dddRRyR8FqRf62NBtEPpmVklPCtS3rNmkb1nDB9XwrbaeeBXmcNpnn31y3/rqFoHFl7B1pOnDsuZr0ZwcmlRX5YaOsVAX/RGmeTKU9EeaJnotK+lJXnMqTZ8x3f+Rpyc36olXjz76aOpQ8g4f/FMvsIEAAggUCITRr/FL8a3I4XoWbuVTnEZcFaW+5mh6/Y3Xk1FaYf/QEaVty5yE4Ul88eTmzeoTnqIYjtVqGd+K3Z/5GeMy9SCUoqSOK3WyhYeOFMWUnWc9r+G4qptGu02YMMHPbRlu4w+v97XUZ4psCk8hjNtTNibe1nxYIe3ylV3cTjvtFDYLl2F0d+GLZCKAAAIIDIoAI64GhZ2DIjB0BTQhahi9s9eee7mvfvWrvqNHHxyPPPJI/+F1IO9eE+WGubY0/D/uuNLILs2dETqtNMF4mONET6kK9dHToHQLQEjqoFF9+5PiW190K0E4pspQJ5gmHQ5Jt7y0m+IP5rqVpdkotnaPE0+MrJELsglJc4p87nOfC5ssEUAAgT4FwqiYvgLDbYKK05xMRSncOlj0mvKKXs+OHtVt3UX/smXGt7LHo3fiuDBKK85rtp6dn7GoDvGXAkUdO9kvSJoda27kW8+r6qJOO91aqCcmfvCDH/TzWoU6ynDmzDfDZtNlK+ui815UkJ5IFpKsi86B8kKK10MeSwQQQACBwRVgxNXg+nN0BIacgG4VPO/88/w3rPqAqPlMwpwm4c2qIyn+oB7yWy31AfU73/mO+/GpP/b7fuUrX3Ff3vnLrvudbj8BeyhPH6r333//pCjV55cX/9LtvPPOPs+P1tr/ABfmvlJm+NY62anFiuYUUQeYRlxpPiiN7ArzW8Ufdq+//np3//33tyjJ9pIm2dUkskqbb765/6fHot966622AoxRN9xwg59LRh/w9T50S4vel0ZFhM6ygZw34+EJQwCBYSqgW/jCqCtda4o6RlZdddV+6xTNSdiqkNDBFI9uCnnZ/RZddNFsVtPtVvMzht8Z4XeIColvi29a6Dzygm4V1AhlpZdfetn98aY/+vmqHn/8cX/Lv57kODe+FInPqb5w0uTsRSmcj/DFV1EMeQgggAACgyPQ0Wqyy3AB76tq1jiVoyHDrY6pGGt5ZcdRPwnkk9VZe3J+532/8PMZOivCO1J+9vyG4fqKCfupveiDoSYvVwdLmGNEMbrN7uKLL/aPqNbtGO+8826yn8oOSZ0lcXkh/6GHHnJ77b2XHyWlOZfUWRV/O60Pm/ogrD8Uwv7aV3Ny6JvzA3o6rLSP/oXXdQui/mmSXqWQX/T+fUDPfxpFptsSNemuUvwzoj+6rrnmGqfHaYeyFBOs1AEX5+u1bNKtHyFG83nodpX4VgfN3xUfM7t/vF0Ul9Rldrouek/q9Ntwww19EfG+Z511lj9voR6hfvGx4vV43zg/u26N037Z9pctS9vW8sqO07GpnxTSyeqsvfBL22mrqn5xveLzFm7/U92z1wjFxdfVcJ1TB9N66/VOnK35pbK3Kaus+PY9lRGO3+p48S1mmgNKT+UrSnrqnm77fv311/1k4XqKYEjrrrtuak6kcFzN2RRSeB9hOyxDrN5fuG1Rvx90+3pIIUaTsm+77bY+W/N86bofWykudg77Z99/KC9+PXse9Fo2LsRnlyEue5xsXFzX4KHOvTCaTiPGJm43MZkmQA6qVzwPpH6Xh7rqvYYU8sJ2vFS9Qh1DflFd4vkpVV5RW9B++pJNx9ak8a06r7LHDMfOLq1x2q/o/A60POtxrXHUL3smerfxa88FP/yCgPX6x4irIMYSgWEsoM6e+BtfUejpgBtttFFLFQ3/b5YmT57stt56a//hW7fT6RvP8JS98AF95sw3kt31QbGv4ylYH/q32mor/4FXf+wsvfTSfpLaO++807355psufkJeUnjPiiZ4/d3vfucnTddtcPrG97bbbksmcs3OPaL3P65nktysi8pUx49uQVRnjh5HrvLUKaeJfjXSqmjEgDq55NCsfuedd57Tv6Jf5JqbS3/Y6J+Ooz+s4g/n8fu0rIcOt2ysOtXUFnQcTU6r0VcaNXb33Xd724suuqiwftly2EYAAQSsAvqS4wtf+IIPV8fBfvvtl9pV12HdZtbfpOuwbkVbaKEFfceRfle88MILqWJWX311d+CBB/o8/U7QNXjKlClJjH4n6Zqc/T3Q6ndfsvN7K/rCJUz2rSfihicdxnHHH3+8nxtSednJyOO4eWk9dFqpzvriSL9f1KkVkuaRyt7OGV4re6mHp4Sk33/ZJxzqNU0/oNvxldRpVcaIaV8Y/yGAAAIIlCLQEf6QbFWaJUb7W+L0i8sSZy2v7DjqJ9HiZDlv+BXbKXe4+E2cONHpG2x17hx++OFOT3OKv8HWt7BLLrGkh9I30RaXIj/9MaB/cVJHS6vy9OFZTxTSv1ZxcZmt4vThVp1h+tcqLpTXzs+H5u3SPyWNetJEt0rhqVJ+o+C/8IeC4jSpbpi0viDU/2Gh96HjqJOqVbK8X+1fZlw7fs3eC/UrlinTxdoOOL/F56KKfnHHeXzewmjOojorLu7U1zVJ7UzXz68f8HX/kAyNwDnmmGPciSee6G9TVidDGA0bdFRG6EhqdTzFn376T9yhhx7qdz333HP9LexhHi3NSaiRsSFpHkXVR7eX6yl/m266qe+0uuSSS5xuTddIXn0rrE6meG7D8D5COWGpOqo8jTLWKF397tMx1ekVOk7k+P3vfz/ptNK1d9q0ab6I2Eplxc7hGM3ev46rkUWqpzqImo0eUpwlNTtO2Deua/CIR5bpVtBVVlnFj3TSex47dqx/33E70nqoj95rSCEvbMdL1Ss4h/yiushUnVfqqBw5cqR/AqU6EUM70oNktpu4nS9C+6vzsNVxw7EsMYq1xBWd33Cc7NJSnvW41jjqlz0LjW3L+cCv4ZVdwy8r0rttcVGkJW6otD9GXBW3FXIRQGCAArrFIXw7ftRRR/k/FMIHSd3ipg/xYT6qMp+4N8DqzpO7aa6reJJ565vQaK1WHVfWcohDAAEEyhQ4fNLh7qwzz/K/G3SrcrhdORxjoPPrXX311f6LFE0SrjkJr7jiCv8hP3uLmUbKPvLII+Fw7thjj3W6HVCdPxqppdf1x4GePKjfX+qcCV8KJDs1WdEfDAOZn7FJcaZsjWLTiGTVUQaaX2rClr1fdpgKKCFI71tP1l1zzTV9af/v//0/31HUMV9H8hlAt2eqI0lJnUX6TKAHrcyJpAexqA46px/72Mf87YCa+F0dZvG5VMepRlyTEEAAAQSqJUDHVbXOB7VBYJ4XuOmmm9xBBx3sb8/QI8j1zbVuj9MfDYuNWiz5wKrJxfUaqf8Celrh73//e79j+Ma4WSnh1kPFqeOKhAACCLQroE6JkIrWw5NcQ0xYqsMnpHg/jYbRHEg/+tGP3PJjlk9+T6iz6L777vO3iO+2225+19deey0UkcwdGI8ISl58b2WXXXZxhxxyiNtmm218jjouQtKXKr/5zW/cSSed5G+NDvm6VupWd91CrlunlcJ+2kejdc444wyfF7+PUI/4fWrfe+65x+361V17RoCd7ormZ5w27Zme27QPT93KGJebLU9lximOVb5Gl6lzJkyMXpuvMWdUvJ91PZTf3/N60EEHuZ/97Gf+YSY6Vvh9pPejuSBPPvlkpweDqJ7qQArWwbHZ8ZLXe0ZcZVOoq/LjdZ3TcJtgmDMtniNTnWh6KjCfS7KibCOAAALVEKDjqhrngVogMGQE1EGy++67+aH4ukVBH/b1bXecbrnlFnfEEUfEWaz3Q0AfwP/xj3/4PfoaIhz+2Oorrh+HJxQBBIa5gEakaERPuL4EjqL5m8JrWsYTscf5WtetzLolT0nzI+k6p9vzlDQKJqT44RvqXOorqZNDt+Op00i3qGkEkMrWnITXXXdd6vbFuCwdR/Mx6ha3T33qU04jhu+66y5/y1mzOSA322wzX0TWRZm6dU6jZXWrt+oR5tzS/IxFk4WrQ03/QtKt8NnUbF5I3Ub/6U9/2ulpjKqLbtlvJ1nOq6YICLezh2NpBPaXvvQlt8Yaa7h11lnHLbjggn5uyfg2f81ZudZaa/nOK82NqRRu72z2eyu87yJnzV0ZJvsP9QjLGTNmOHVkalS45qdcaaWVnJ5qqQcC/OlPf8q157AfSwQQQACBwReg42rwzwE1QGDICWgOkS222MLP57HBBhu40aNHu//85z/+Q/+9997rNDy/6APnkIPgDSGAAAIItBTQ/Ed62IWS5pm66qqrXJiHKuz4iU98wq+qw2mgSR1RGqkaRqtay1GnUuhYavf3lkYAafL3MAF8u+W1eg86VvyExt13393Ps6V9wq1xfY3kUpzOR7sdX2FOyqL3q84tPZxlbiZ1oOofCQEEEEBg3hGg42reOVfUFIF5TkC3eOgfCQEEEEAAgSIBjbQKo4n23Xc/p9vI48nENefRkkv2PtBDI55IAxPYY489BvQ0Wt3q327H1cBqzF4IIIAAAgg0BOi4aliwhgACCCCAAAIIIDAXBTTiRpOJ67a2hRZa0E/Q/dxzz/d0ssznbxkMo4NeeOEFP2n6XKzakDrUF7/4xWSkc5hryjJHYnjK4ZDC4M0ggAACCMxzAnRczXOnjAojgAACCCCAAAJDR2Dvvfd2euiE5n9SR9Xo0cul3tzzzz/v50riaW8pln5txLfGhVv2ms0hFQoOcWGbJQIIIIAAAoMl0NHql1L4RqavylnjVE6tVku+8WlWrrW8suOoX/EZsTrjh58ErO2l7DjaH+2P9lfcBkIuv3+DRGNpvQ5pD/wabmGtTL999tnHP31u/Pjxfl5EPb1Pt5pr0uzp06f7Q4bPrNbjWuNUOOc3nNXGEr+GRbxmdbHGqWzaXyzcu45f3kQ5VhdrnMqk/UkhnfBLe4Qtq4s1TuVa2x8jrsJZYIkAAggggAACCCAwaAIaFXTeeee5vm5hG7QKcmAEEEAAAQQQGBSBjr6GCatWlhhrnJ5yUmZ51uNa46ifpIqT5bzhV2ynXPyKbSwu+BXbWV2scfz8tueMH35BoMzrGj+/QTW/LNOZn9+8b8ixOOMXtPJL/PImyrG4WONof8XG+LXngl+1/Bhx1fx88AoCCMyjAh0dHU1vSdbQ1TfffLPpO1tggQX8kFV9CNK/oqQhrYpT6qu8ov3JQwABBBBAAAEEEEAAAQQQsAnQcWVzIgoBBOYhgeOOO85tuummTWs8uz7bzXhthp8M+Fe/+lUq7pabb3EjaiPcxRdf7M4444zUa9pQR9Vll13mll12Wf+aHtv+hS98IRdHBgIIIIAAAggggAACCCCAQPsCtfaLoAQEEECgWgIjRoxoWSF1TI0aNcodcsgh7vvf/35hrEZVZVO20+rZZ591O+20UzaMbQQQQAABBBBAAAEEEEAAgZIEGHFVEiTFIIBA9QRmzZrlttxyy1TFPvShD7m11lrL7bbbbk63FH760592F110kXvsscdScdmNbKfV1KlT/ePZizq4svuyjQACCCCAAAIIIIAAAgggMDABOq4G5sZeCCAwDwjMnj3bvfrqq6maTpkyxenfQw895E4//XT/2rhx41p2XGU7rf7+97+7XXbZxelx7eHx7KmDsIEAAggggAACCCCAAAIIIFCKQP5emFKKpRAEEECg2gL33XdfUkGNwmqWsp1WGpn15S9/2XdaNduHfAQQQAABBBBAAAEEEEAAgXIE6Lgqx5FSEEBgHhNYbLHFkho///zzyXq8ku20euSRR9zuu+/e9GmD8b6sI4AAAggggAACCCCAAAIItC/Q0eo2F/3RZknWOJWl+WBaHVMx1vLKjqN+Esgnq7P25PziZ20vZcfF7S+edyp7vdFxV155ZTdp0qTkZN11112565L2++Uvf+mWWWYZH/fGG2+4/fff38+LlezYs2J9H9qHn49Yrncdv7yJcqwu1jiVSfuTQjrhl/YIW1YXa5zKpf0F3cYSv4ZFvGZ1scapbNpfLNy7jl/eRDlWF2ucyqT9SSGd8Et7hC2rizVO5Q6V9sccV6GVsEQAgSEnoMnXr7zyytT70kgr5Yf01FNPuXvuuSdsJsuJEycm61pZeOGF3Y477uguvfTSVD4bCCCAAAIIIIAAAggggAACc06go7u7u8/SLTEqxBJXr9dNcdbyyo6jfhItTpzfgbtoT/zmnp9+jkNacsklw2puqUnaDzzwwJbn5oEHHnBrrrGmG1Eb4fbfb393yy23uKeffjpXFuc3R+IzLC4KtMRxfS42xq89F/zwkwDXl/baAX74BQHL73PFlhlH+wv6+aXFGb+8W8jBL0iklxYX7WGJs7a/xrCDdF3YQgABBOZ5gdn12e70M3qfHBjezHzzzeemTZvmNDl79omDISYsr7nmGnfccce5Pffc0+21116+8+rMM890W2+9NfNcBSSWCCCAAAIIIIAAAggggMAcFKDjag7iUjQCCAyuwKz6LHfhhRemKhHmvOrrGwDNe3XSSSf5fc855xy32WabuRVWWMFpBNcRRxzhjj766FS5bCCAAAIIIIAAAggggAACCJQvwFMFyzelRAQQGAICU6dOTb2L/fbbz7377rs+b8stt3Rjx45Nvc4GAggggAACCCCAAAIIIIBA+QJ0XJVvSokIIDAEBV566SV3wgknJO/s5JNPdossskiyzQoCCCCAAAIIIIAAAggggED5AnRclW9KiQggMEQFNOeVJmtX0i2Hp5122hB9p7wtBBBAAAEEEEAAAQQQQKAaAnRcVeM8UAsEEJhHBA4++GD39ttv+9qussoqbqeddppHak41EUAAAQQQQAABBBBAAIF5T4COq3nvnFFjBBDoQ0CPVW03hfmssuXMnDnTHXrooUn21/b5mltiiSWSbVYQQAABBBBAAAEEEEAAAQTKE+CpguVZUhICCFREYNKkSQOuydj1eyddD08fLCpo8uTJbr311vMvtYor2pc8BBBAAAEEEEAAAQQQQAABu8CI8ePHz24WXqv1Dsjqa/SCNU7HGTVqlJs+fXqzQ/p8a3llx1G/4tNidcYPPwlY20vZcbQ/2h/tr7gNhFx+/waJxtJ6HdIe+DXcwhp+QSK9tLpY41Q67S9trC388ib9ccEPvyDA9SVINJb8fDQs4jWrizVOZVvbX0f2ke9xxcJIgu7u7jg7t26N045jxoxxrY6pGGt5ZcdRPwnkk9VZe3J+8bO2l7LjaH/5tqccqzN++PWnvVjblTWO9kf7o/0Vt4GQy+erINFYcn1pWMRrVhdrnMqm/cXCvev45U2UY3WxxqlM2p8U0mk4+jHHVboNsIUAAggggAACCCCAAAIIIIAAAgggUBEBOq4qciKoBgIIIIAAAggggAACCCCAAAIIIIBAWoCOq7QHWwgggAACCCCAAAIIIIAAAggggAACFRGg46oiJ4JqIIAAAggggAACCCCAAAIIIIAAAgikBei4SnuwhQACCCCAAAIIIIAAAggggAACCCBQEQE6ripyIqgGAggggAACCCCAAAIIIIAAAggggEBagI6rtAdbCCCAAAIIIIAAAggggAACCCCAAAIVEejo6upqWpXOzs6mr8UvWOO0T61Wc62OqRhreWXHUT8J5JPVWXtyfvGztpey42h/+banHKszfvj1p71Y25U1jvZH+6P9FbeBkMvnqyDRWHJ9aVjEa1YXa5zKpv3Fwr3r+OVNlGN1scapTNqfFNJpOPox4irdBthCAAEEEEAAAQQQQAABBBBAAAEEEKiIQEd3d3efVbHEqBBLXL1eN8VZyys7jvpJtDhxfgfuoj3xw4/rS3Eb4OejPRf88JMA15f22gF++AUBy+c1xZYZR/sL+vmlxRm/vFvIwS9IpJcWF+1hiaP9pW3jrTL9GHEVy7KOAAIIIIAAAggggAACCCCAAAIIIFAZATquKnMqqAgCCCCAAAIIIIAAAggggAACCCCAQCxAx1WswToCCCCAAAIIIIAAAggggAACCCCAQGUE6LiqzKmgIggggAACCCCAAAIIIIAAAggggAACsQAdV7EG6wgggAACCCCAAAIIIIAAAggggAAClRGg46oyp4KKIIAAAggggAACCCCAAAIIIIAAAgjEAnRcxRqsI4AAAggggAACCCCAAAIIIIAAAghURqCjq6uraWU6Ozubvha/YI3TPrVazbU6pmKs5ZUdR/0kkE9WZ+3J+cXP2l7KjqP95duecqzO+OHXn/ZibVfWONof7Y/2V9wGQi6fr4JEY8n1pWERr1ldrHEqm/YXC/eu45c3UY7VxRqnMml/Ukin4ejHiKt0G2ALAQQQQAABBBBAAAEEEEAAAQQQQKAiAh3d3d19VsUSo0IscfV63RRnLa/sOOon0eLE+R24i/bEDz+uL8VtgJ+P9lzww08CXF/aawf44RcELJ/XFFtmHO0v6OeXFmf88m4hB78gkV5aXLSHJY72l7aNt8r0Y8RVLMs6AggggAACCCCAAAIIIIAAAggggEBlBOi4qsypoCIIIIAAAggggAACCCCAAAIIIIAAArEAHVexBusIIIAAAggggAACCCCAAAIIIIAAApURoOOqMqeCiiCAAAIIIIAAAggggAACCCCAAAIIxAJ0XMUarCOAAAIIIIAAAggggAACCCCAAAIIVEaAjqvKnAoqggACCCCAAAIIIIAAAggggAACCCAQC9BxFWuwjgACCCCAAAIIIIAAAggggAACCCBQGYGOrq6uppXp7Oxs+lr8gjVO+9RqNdfqmIqxlld2HPWTQD5ZnbUn5xc/a3spO472l297yrE644dff9qLtV1Z42h/tD/aX3EbCLl8vgoSjSXXl4ZFvGZ1scapbNpfLNy7jl/eRDlWF2ucyqT9SSGdhqMfI67SbYAtBBBAAAEEEEAAAQQQQAABBBBAAIGKCHR0d3f3WRVLjAqxxNXrdVOctbyy46ifRIsT53fgLtoTP/y4vhS3AX4+2nPBDz8JcH1prx3gh18QsHxeU2yZcbS/oJ9fWpzxy7uFHPyCRHppcdEeljjaX9o23irTjxFXsSzrCCCAAAIIIIAAAggggAACCCCAAAKVEaDjqjKngooggAACCCCAAAIIIIAAAggggAACCMQCdFzFGqwjgAACCCCAAAIIIIAAAggggAACCFRGgI6rypwKKoIAAggggAACCCCAAAIIIIAAAgggEAvQcRVrsI4AAggggAACCCCAAAIIIIAAAgggUBkBOq4qcyqoCAIIIIAAAggggAACCCCAAAIIIIBALEDHVazBOgIIIIAAAggggAACCCCAAAIIIIBAZQTouKrMqaAiCCCAAAIIIIAAAggggAACCCCAAAKxwIjx48fPjjPi9Vqtt1+rXq/H2bl1a5x2HDVqlJs+fXqujDjDWl7ZcdQvPguNdaszfg2zeA2/WKOxbnWxxqlkri8N37CGX5BIL60u1jiVTvtLG2sLv7xJf1zwwy8IcH0JEo0lPx8Ni3jN6mKNU9m0v1i4dx2/vIlyrC7WOJVJ+5NCOg1Hv46pU6emFaKtrq4uv9Xd3R3l5letcdpzzJgxrtUxFWMtr+w46ieBfLI6a0/OL37W9lJ2HO0v3/aUY3XGD7/+tBdru7LG0f5of7S/4jYQcvl8FSQaS64vDYt4zepijVPZtL9YuHcdv7yJcqwu1jiVSfuTQjoNRz9uFUy3AbYQQAABBBBAAAEEEEAAAQQQQAABBCoiQMdVRU4E1UAAAQQQQAABBBBAAAEEEEAAAQQQSAvQcZX2YAsBBBBAAAEEEEAAAQQQQAABBBBAoCICdFxV5ERQDQQQQAABBBBAAAEEEEAAAQQQQACBtAAdV2kPthBAAAEEEEAAAQQQQAABBBBAAAEEKiJAx1VFTgTVQAABBBBAAAEEEEAAAQQQQAABBBBIC9BxlfZgCwEEEEAAAQQQQAABBBBAAAEEEECgIgIdXV1dTavS2dnZ9LX4BWuc9qnVaq7VMRVjLa/sOOongXyyOmtPzi9+1vZSdhztL9/2lGN1xg+//rQXa7uyxtH+aH+0v+I2EHL5fBUkGkuuLw2LeM3qYo1T2bS/WLh3Hb+8iXKsLtY4lUn7k0I6DUc/Rlyl2wBbCCCAAAIIIIAAAggggAACCCCAAAIVEejo7u7usyqWGBViiavX66Y4a3llx1E/iRYnzu/AXbQnfvhxfSluA/x8tOeCH34S4PrSXjvAD78gYPm8ptgy42h/QT+/tDjjl3cLOfgFifTS4qI9LHG0v7RtvFWmHyOuYlnWEUAAAQQQQAABBBBAAAEEEEAAAQQqI0DHVWVOBRVBAAEEEEAAAQQQQAABBBBAAAEEEIgF6LiKNVhHAAEEEEAAAQQQQAABBBBAAAEEEKiMAB1XlTkVVAQBBBBAAAEEEEAAAQQQQAABBBBAIBag4yrWYB0BBBBAAAEEEEAAAQQQQAABBBBAoDICdFxV5lRQEQQQQAABBBBAAAEEEEAAAQQQQACBWICOq1iDdQQQQAABBBBAAAEEEEAAAQQQQACBygh0dHV1Na1MZ2dn09fiF6xx2qdWq7lWx1SMtbyy46ifBPLJ6qw9Ob/4WdtL2XG0v3zbU47VGT/8+tNerO3KGkf7o/3R/orbQMjl81WQaCy5vjQs4jWrizVOZdP+YuHedfzyJsqxuljjVCbtTwrpNBz9GHGVbgNsIYAAAggggAACCCCAAAIIIIAAAghURKCju7u7z6pYYlSIJa5er5virOWVHUf9JFqcOL8Dd9Ge+OHH9aW4DfDz0Z4LfvhJgOtLe+0AP/yCgOXzmmLLjKP9Bf380uKMX94t5OAXJNJLi4v2sMTR/tK28VaZfoy4imVZRwABBBBAAAEEEEAAAQQQQAABBBCojAAdV5U5FVQEAQQQQAABBBBAAAEEEEAAAQQQQCAWoOMq1mAdAQQQQAABBBBAAAEEEEAAAQQQQKAyAnRcVeZUUBEEEEAAAQQQQAABBBBAAAEEEEAAgViAjqtYg3UEEEAAAQQQQAABBBBAAAEEEEAAgcoI0HFVmVNBRRBAAAEEEEAAAQQQQAABBBBAAAEEYgE6rmIN1hFAAAEEEEAAAQQQQAABBBBAAAEEKiPQ0dXV1bQynZ2dTV+LX7DGaZ9areZaHVMx1vLKjqN+Esgnq7P25PziZ20vZcfR/vJtTzlWZ/zw6097sbYraxztj/ZH+ytuAyGXz1dBorHk+tKwiNesLtY4lU37i4V71/HLmyjH6mKNU5m0Pymk03D0Y8RVug2whQACCCCAAAIIIIAAAggggAACCCBQEYGO7u7uPqtiiVEhlrh6vW6Ks5ZXdhz1k2hx4vwO3EV74ocf15fiNsDPR3su+OEnAa4v7bUD/PALApbPa4otM472F/TzS4szfnm3kINfkEgvLS7awxJH+0vbxltl+jHiKpZlHQEEEEAAAQQQQAABBBBAAAEEEECgMgJ0XFXmVFARBBBAAAEEEEAAAQQQQAABBBBAAIFYgI6rWIN1BBBAAAEEEEAAAQQQQAABBBBAAIHKCNBxVZlTQUUQQAABBBBAAAEEEEAAAQQQQAABBGIBOq5iDdYRQAABBBBAAAEEEEAAAQQQQAABBCojQMdVZU4FFUEAAQQQQAABBBBAAAEEEEAAAQQQiAXouIo1WEcAAQQQQAABBBBAAAEEEEAAAQQQqIwAHVeVORVUBAEEEEAAAQQQQAABBBBAAAEEEEAgFhgxfvz42XFGvF6r9fZr1ev1ODu3bo3TjqNGjXLTp0/PlRFnWMsrO476xWehsW51xq9hFq/hF2s01q0u1jiVzPWl4RvW8AsS6aXVxRqn0ml/aWNt4Zc36Y8LfvgFAa4vQaKx5OejYRGvWV2scSqb9hcL967jlzdRjtXFGqcyaX9SSKfh6NcxderUtEK01dXV5be6u7uj3PyqNU57jhkzxrU6pmKs5ZUdR/0kkE9WZ+3J+cXP2l7KjqP95duecqzO+OHXn/ZibVfWONof7Y/2V9wGQi6fr4JEY8n1pWERr1ldrHEqm/YXC/eu45c3UY7VxRqnMml/Ukin4ejHrYLpNsAWAggggAACCCCAAAIIIIAAAggggEBFBOi4qsiJoBoIIIAAAggggAACCCCAAAIIIIAAAmkBOq7SHmwhgAACCCCAAAIIIIAAAggggAACCFREgI6ripwIqoEAAggggAACCCCAAAIIIIAAAgggkBag4yrtwRYCCCCAAAIIIIAAAggggAACCCCAQEUE6LiqyImgGggggAACCCCAAAIIIIAAAggggAACaQE6rtIebCGAAAIIIIAAAggggAACCCCAAAIIVESgo6urq2lVOjs7m74Wv2CN0z61Ws21OqZirOWVHUf9JJBPVmftyfnFz9peyo6j/eXbnnKszvjh15/2Ym1X1jjaH+2P9lfcBkIun6+CRGPJ9aVhEa9ZXaxxKpv2Fwv3ruOXN1GO1cUapzJpf1JIp+Hox4irdBtgCwEEEEAAAQQQQAABBBBAAAEEEECgIgId3d3dfVbFEqNCLHH1et0UZy2v7DjqJ9HixPkduIv2xA8/ri/FbYCfj/Zc8MNPAlxf2msH+OEXBCyf1xRbZhztL+jnlxZn/PJuIQe/IJFeWly0hyWO9pe2jbfK9GPEVSzLOgIIIIAAAggggAACCCCAAAIIIIBAZQTouKrMqaAiCCCAAAIIIIAAAggggAACCCCAAAKxAB1XsQbrCCCAAAIIIIAAAggggAACCCCAAAKVEaDjqjKngooggAACCCCAAAIIIIAAAggggAACCMQCdFzFGqwjgAACCCCAAAIIIIAAAggggAACCFRGgI6rypwKKoIAAggggAACCCCAAAIIIIAAAgggEAvQcRVrsI4AAggggAACCCCAAAIIIIAAAgggUBmBjq6urqaV6ezsbPpa/II1TvvUajXX6piKsZZXdhz1k0A+WZ21J+cXP2t7KTuO9pdve8qxOuOHX3/ai7VdWeNof7Q/2l9xGwi5fL4KEo0l15eGRbxmdbHGqWzaXyzcu45f3kQ5VhdrnMqk/UkhnYajHyOu0m2ALQQQQAABBBBAAAEEEEAAAQQQQACBigh0dHd391kVS4wKscTV63VTnLW8suOon0SLE+d34C7aEz/8uL4UtwF+PtpzwQ8/CXB9aa8d4IdfELB8XlNsmXG0v6CfX1qc8cu7hRz8gkR6aXHRHpY42l/aNt4q048RV7Es6wgggAACCCCAAAIIIIAAAggggAAClRGg46oyp4KKIIAAAggggAACCCCAAAIIIIAAAgjEAnRcxRqsI4AAAggggAACCCCAAAIIIIAAAghURoCOq8qcCiqCAAIIIIAAAggggAACCCCAAAIIIBAL0HEVa7COAAIIIIAAAggggAACCCCAAAIIIFAZATquKnMqqAgCCCCAAAIIIIAAAggggAACCCCAQCxAx1WswToCCCCAAAIIIIAAAggggAACCCCAQGUEOrq6uppWprOzs+lr8QvWOO1Tq9Vcq2Mqxlpe2XHUTwL5ZHXWnpxf/Kztpew42l++7SnH6owffv1pL9Z2ZY2j/dH+aH/FbSDk8vkqSDSWXF8aFvGa1cUap7Jpf7Fw7zp+eRPlWF2scSqT9ieFdBqOfoy4SrcBthBAAAEEEEAAAQQQQAABBBBAAAEEKiLQ0d3d3WdVLDEqxBJXr9dNcdbyyo6jfhItTpzfgbtoT/zw4/pS3Ab4+WjPBT/8JMD1pb12gB9+QcDyeU2xZcbR/oJ+fmlxxi/vFnLwCxLppcVFe1jiaH9p23irTD9GXMWyrCOAAAIIIIAAAggggAACCCCAAAIIVEaAjqvKnAoqggACCCCAAAIIIIAAAggggAACCCAQC9BxFWuwjgACCCCAAAIIIIAAAggggAACCCBQGQE6ripzKqgIAggggAACCCCAAAIIIIAAAggggEAsQMdVrME6AggggAACCCCAAAIIIIAAAggggEBlBOi4qsypoCIIIIAAAggggAACCCCAAAIIIIAAArEAHVexBusIIIAAAggggAACCCCAAAIIIIAAApURoOOqMqeCiiCAAAIIIIAAAggggAACCCCAAAIIxAIjxo8fPzvOiNdrtd5+rXq9Hmfn1q1x2nHUqFFu+vTpuTLiDGt5ZcdRv/gsNNatzvg1zOI1/GKNxrrVxRqnkrm+NHzDGn5BIr20uljjVDrtL22sLfzyJv1xwQ+/IMD1JUg0lvx8NCziNauLNU5l0/5i4d51/PImyrG6WONUJu1PCuk0HP06pk6dmlaItrq6uvxWd3d3lJtftcZpzzFjxrhWx1SMtbyy46ifBPLJ6qw9Ob/4WdtL2XG0v3zbU47VGT/8+tNerO3KGkf7o/3R/orbQMjl81WQaCy5vjQs4jWrizVOZdP+YuHedfzyJsqxuljjVCbtTwrpNBz9uFUw3QbYQgABBBBAAAEEEEAAAQQQQAABBBCoiAAdVxU5EVQDAQQQQAABBBBAAAEEEEAAAQQQQCAtQMdV2oMtBBBAAAEEEEAAAQQQQAABBBBAAIGKCNBxVZETQTUQQAABBBBAAAEEEEAAAQQQQAABBNICdFylPdhCAAEEEEAAAQQQQAABBBBAAAEEEKiIAB1XFTkRVAMBBBBAAAEEEEAAAQQQQAABBBBAIC1Ax1Xagy0EEEAAAQQQQAABBBBAAAEEEEAAgYoIdHR1dTWtSmdnZ9PX4hescdqnVqu5VsdUjLW8suOonwTyyeqsPTm/+FnbS9lxtL9821OO1Rk//PrTXqztyhpH+6P90f6K20DI5fNVkGgsub40LOI1q4s1TmXT/mLh3nX88ibKsbpY41Qm7U8K6TQc/RhxlW4DbCGAAAIIIIAAAggggAACCCCAAAIIVESgo7u7u8+qWGJUiCWuXq+b4qzllR1H/SRanDi/A3fRnvjhx/WluA3w89GeC374SYDrS3vtAD/8goDl85piy4yj/QX9/NLijF/eLeTgFyTSS4uL9rDE0f7StvFWmX6MuIplWUcAAQQQQAABBBBAAAEEEEAAAQQQqIwAHVeVORVUBAEEEEAAAQQQQAABBBBAAAEEEEAgFqDjKtZgHQEEEEAAAQQQQAABBBBAAAEEEECgMgJ0XFXmVFARBBBAAAEEEEAAAQQQQAABBBBAAIFYgI6rWIN1BBBAAAEEEEAAAQQQQAABBBBAAIHKCNBxVZlTQUUQQAABBBBAAAEEEEAAAQQQQAABBGIBOq5iDdYRQAABBBBAAAEEEEAAAQQQQAABBCoj0NHV1dW0Mp2dnU1fi1+wxmmfWq3mWh1TMdbyyo6jfhLIJ6uz9uT84mdtL2XH0f7ybU85Vmf88OtPe7G2K2sc7Y/2R/srbgMhl89XQaKx5PrSsIjXrC7WOJVN+4uFe9fxy5sox+pijVOZtD8ppNNw9GPEVboNsIUAAggggAACCCCAAAIIIIAAAgggUBGBju7u7j6rYolRIZa4er1uirOWV3Yc9ZNoceL8DtxFe+KHH9eX4jbAz0d7LvjhJwGuL+21A/zwCwKWz2uKLTOO9hf080uLM355t5CDX5BILy0u2sMSR/tL28ZbZfox4iqWZR0BBBBAAAEEEEAAAQQQQAABBBBAoDICdFxV5lRQEQQQQAABBBBAAAEEEEAAAQQQQACBWICOq1iDdQQQQAABBBBAAAEEEEAAAQQQQACBygjQcVWZU0FFEEAAAQQQQAABBBBAAAEEEEAAAQRiATquYg3WEUAAAQQQQAABBBBAAAEEEEAAAQQqI0DHVWVOBRVBAAEEEEAAAQQQQAABBBBAAAEEEIgF6LiKNVhHAAEEEEAAAQQQQAABBBBAAAEEEKiMQEdXV1fTynR2djZ9LX7BGqd9arWaa3VMxVjLKzuO+kkgn6zO2pPzi5+1vZQdR/vLtz3lWJ3xw68/7cXarqxxtD/aH+2vuA2EXD5fBYnGkutLwyJes7pY41Q27S8W7l3HL2+iHKuLNU5l0v6kkE7D0Y8RV+k2wBYCCCCAAAIIIIAAAggggAACCCCAQEUEOrq7u/usiiVGhVji6vW6Kc5aXtlx1E+ixYnzO3AX7YkfflxfitsAPx/tueCHnwS4vrTXDvDDLwhYPq8ptsw42l/Qzy8tzvjl3UIOfkEivbS4aA9LHO0vbRtvlenHiKtYlnUEEEAAAQQQQAABBBBAAAEEEEAAgcoI0HFVmVNBRRBAAAEEEEAAAQQQQAABBBBAAAEEYgE6rmIN1hFAAAEEEEAAAQQQQAABBBBAAAEEKiNAx1VlTgUVQQABBBBAAAEEEEAAAQQQQAABBBCIBei4ijVYRwABBBBAAAEEEEAAAQQQQAABBBCojAAdV5U5FVQEAQQQQAABBBBAAAEEEEAAAQQQQCAWoOMq1mAdAQQQQAABBBBAAAEEEEAAAQQQQKAyAnRcVeZUUBEEEEAAAQQQQAABBBBAAAEEEEAAgVhgxPjx42fHGfF6rdbbr1Wv1+Ps3Lo1TjuOGjXKTZ8+PVdGnGEtr+w46hefhca61Rm/hlm8hl+s0Vi3uljjVDLXl4ZvWMMvSKSXVhdrnEqn/aWNtYVf3qQ/LvjhFwS4vgSJxpKfj4ZFvGZ1scapbNpfLNy7jl/eRDlWF2ucyqT9SSGdhqNfx9SpU9MK0VZXV5ff6u7ujnLzq9Y47TlmzBjX6piKsZZXdhz1k0A+WZ21J+cXP2t7KTuO9pdve8qxOuOHnwTe//73u5VXXtmtuOKKbsEFF3RPPvmke+KJJ9xTTz3l4i+xrO3KGkf7o/1JwNpeyo6j/dH+aH/FbSDk8vk+SDSW1uuQ9sCv4RbW8AsS6aXVxRqn0odK++tIU7GFAAIIIIAAAsNNYOutt3YHHXSwW2ihBQvf+qxZs9ytt97qfvjDH7oXX3yxMIZMBBBAAAEEEEAAAQTmhAAdV3NClTIRQAABBBCYBwQ6OjrcxRdf7L+Na1Xd+eabz40bN85tusmm7vgTjnfXXXddLnyttdZyPdMP+PzJkye72267LRdDBgIIIIAAAggggAAC/RWg46q/YsQjgAACCCAwRAROPPHEVKfV7PpsN+2Zae7555936qwaPXq0W3zxxZ06uJRG1Ea4SYdPck8//bSbMmVKSmGbbbZxEyZM8HkrrLACHVcpHTYQQAABBBBAAAEEBipAx9VA5dgPAQQQQACBeVhgjTXWcBtuuGHyDv7617+6Qw891L3yyisuntuys7PT/eAHP3Bjx471seq80vYWW2yR7MsKAggggAACCCCAAAJzSqD3sYFzqnTKRQABBBBAAIFKCmy55ZZJvd544w23++67+06rJPO9lXfeecd94xvfcL/97W+TlxZeeOGe+bAWSrZZQQABBBBAAAEEEEBgTgkw4mpOyVIuAggggAACFRaP8T90AABAAElEQVRYc801k9ppTqp33303eapb8kK0cvLJJ7utttoqydGcVjfddJO/jVBPt5l//vmT13SboTq2NFrrzTffTPKzKx/+8Ied6qHOMT3BsK+nDmf31/ZHP/pRp7osueSS7uGHH3bhvRTFxnl6guLaa6/tPvKRj7jZs2f7fR966CH38ssvx2GsI4AAAggggAACCAyyAB1Xg3wCODwCCCCAAAKDIRCPmFpkkUX6rMJbb73ldDvhcsst52NHjRrll2eccYZbffXVU/urM+rmm2/2eRrZ9dJLLyWvL7DAAu6UU05xa66xpp8zK3mhZ2XmzDfdLbfc7I4++ug426+rzDPPPNOva46tb33rW07HXnrppZPYL33pS379kUce8a/HtzyGIMUfc8wxvsMs5Gn5xS9+0W/qVsm99trLz+MVv846AggggAACCCCAwOAIdOhb0mZJ35RakjVOZdVqtZbf6CrGWl7ZcdRPAvlkddaenF/8rO2l7DjaX77tKcfqjN/w89PoJo1SUlr7E2u7jTfe2N1///3FEO/l7rnnnn4ttCt9hggTtzfbUSOxwmcNjW469dRTnW41LEoLLbSgU0eXRlGp80idZSGNHDkyrDqNltLTEEM9khfeW1lttdXc1Vdf7XbZZRf3wgsvJC8vuOCC7tJLL+sZDbZgkpdded/73tcTc6n77ne/6+64447kZX6/JRTJSjP/JCBawS/CeG8Vv7yJcqwu1jiVSfuTQjrhl/YIW1YXa5zKpf0F3cYSv4ZFvGZ1scap7KHS/pjjKm4prCOAAAIIIDBMBO65557knWrCdd0KeMEFF7qdd945NYopCWqy8pvf/MbdcMMN7sUXX0wiZsyY4fNuvPHGnlFUM32+PmRphFTcafXoo4/2HPMCd91116U6mPRUQnVMNUvqCAsf2p599ll3+eWX94zUusXpuCHpOMcee2zY9Mvjjjsu6bSaNWuWe+CBB9xPfvITd8IJJ7hrr73WKU9JtzoeccT3/Ic9n8F/CCCAAAIIIIAAAoMm0FE0jD5bG0uM9rHE1et1U5y1vLLjqJ9EixPnd+Au2hM//Li+FLcBfj7acxmo34UXXui22WYbt+yyyyYVGD16ObfHHnv4f7pt75///IefM0q3/T3xxBNJXFjRdU0dV/p31FFHuQkTJviXFHvEEUckI60Ud8ghhyTb6iD65je/6eLOszFjxjjd6rfddtv5MjQabNVVV3UPPvig39Y8WNn0v//7v/7Ycf7555/vVl55ZZ+lkVtxGVoP6ZJLLkluPVT9rrzySnf22We7q666yodoVJZGiGneLCV+fj1D4X/8fitkMf3e15744cf1pbgN8PPRngt++ElgqFxfGHHVvD3zCgIIIIAAAkNWQJOxa3TVv/71r8L3qI4bdfToaYPq5Lr55lvcgQceOKCnCS666KJum623SY5zzjnnpDqtwgsnnnhiaoJ23S7YLKlDSx1m2bTffvu5t99+O8kOtzdqqHw82uu+++5LYsLKc88950dhqdNO/3RLIgkBBBBAAAEEEEBgcAXouBpcf46OAAIIIIDAoAnoNr4dd9zRqXNHTwiMb7XLVkodWero+sMf/uA23HDD7Msttz/xiU8kE7FrtNW5557bNP7WW29NXvv4xz+erGdXdItfUXrjjTdSc3WFEWXZbxzVSTZx4sTcHF377ruv23TTTfw/3QJJQgABBBBAAAEEEBhcAZ4qOLj+HB0BBBBAAIFBF9BcU5MmTfK38ulpgeuvv7775Cc/6Vb7+Gpu8SUWT9VP8z9prihNfP7kk0+mXmu2oVv24vSd73wn3vTrerLha6+95kaPHp28FiZ1TzKiFT3hsFn685//7DbYYAP/8hJLLJGEaZTWeuut57dV9kEHHeS+8Y1vuKeeesrdddddfkL3ZiPQkkJYQQABBBBAAAEEEJirAnRczVVuDoYAAggggEC1BaZPn+47cPRUPiXd5qdRWTvttHMysbk6r9T5tNtuu5nezIc//OEkTvtqbi1r0iTs2fmtNCdQNi8uTx1xIXV1Np6erI4qTQa/4oorhpf9ROwf+tCHnP5pRJluEbzxxhvcaaed5jvSkkBWEEAAAQQQQAABBAZFgFsFB4WdgyKAAAIIIDB4ApoI/fOf/7z/t+6667asiG4f1KTlEyZskbqVcPnll2+5X/yiRlMNNIWnB8b7hycVxnnxeng6YJyndc3rtdNOO/lOt8cffzx5imAcp1sit912W3fFFVcMaD6vuCzWEUAAAQQQQAABBNoXYMRV+4aUgAACCCCAwDwloCf36Ql+Shq9tNFGG/VZ/7feestddNFFTpOfK2mi846ODt8Z1NfOU6dO9RO9K27atGd6Osx6nxwY76fONMVZ0siRI1uGrbDCCsnr77ybfxqh5unSv/nnn9+tttpqPfNZbepvjVxmmWWS/TTS7Hvf+547/PDDkzxWEEAAAQQQQAABBOa+AB1Xc9+cIyKAAAIIIDCoAg8//HDScaW5nnQr3xNPPNFnndTJFdLs+mxTp5XiNR/VhAkT/K5LLbVkKKJwqQ6jTTbZxL/2wgsvuLvvvjsXpw6zxRdf3L388su515ShzqiQpk2b5leXW245p0nilTQH1t///nc3e/ZsJ4t7773X56vM8847L3maoJ6qSEIAAQQQQAABBBAYXIGOVhOfFg3PL6quNU776nHUrY6pGGt5ZcdRPwnkk9VZe3J+8bO2l7LjaH/5tqccqzN+w8vvL3/5S+oNf/WrX3VHHXVUn+1l6623TvZ77fXXUr/PNXdVSOF3QWh/8UTqGuU0btw4d8cdd4Rwvwz7aOL3MIH6s88+6+fXUkAoK+z0uc99zo8AC9thqTiVH5ImXdfnDsVrQnmlUG62zNdff92dfvrp7phjjvFxI0cukrzHUD//QpP/suU1Ccu9l3bjtD/1yytazwd+eTvl4NeeC374BQGuz0GiseTno2ERr1ldrHEqe6i0v1oMxToCCCCAAAIIDH2BV155xf373/9O3uj48ePd97//fTdixIgkL17RCKcjjzwyNal59ul7Gr0UUvwkP+VNmTLFvfjii+Fl9+1vf9sV3e63zjrrJJ1WCr7mmmuSfbIre++1t1tppZWy2e74449P/cF9/fXX+5jJkycnscsuu6xbaqmlku14ZezYscnmc889m6yzggACCCCAAAIIIDA4Ah3xsP9mVbDEaF9LXL1eN8VZyys7jvpJtDhxfgfuoj3xw4/rS3Eb4OejPZeB+u2zzz7u8ssv90/VUxkbb7yxu+qqq9xjjz3mO5o035SetKfbCFdbbfXkiYKK1W2CGhkVX9ceeugh95nPfEYvO03crlFLutXvzDPP9HGaK+qcc87xry+22GI9x76iZ8TUhe7BBx906ujSiKi1117bv67/9HRDPQFQE6orZZ8iOKI2wp111ln+VkKNqtJIru23396pUyok3WYYRns98MAD/omBmnxd6bLLLnPnnnuu076qp+a50kittdZaK+zubrjhhuQ98vObsORW4naQe/G9DPyayfD5oJmMpV1pX0sc7a+ZMn7NZCztivbXTM/WrvDDTwLW6zNzXDVvL7yCAAIIIIDAkBV47rnn3EknneQO//bhTp1ASnr6n54y2OpJg3pin24r1P5xuvHGG/1IqpCnjiClCy+8sKfDaKZ79NFHfUeZnmaopA6kvffe269n/9Mx9FrotMq+HrY1VF4TyxdNLv/qq6+6gw8+OIT6D0bHHHO0O+GEE3yeRpHpGM3qoI47zXdFQgABBBBAAAEEEBhcAW4VHFx/jo4AAggggMCgCWiE1VZbb+VHPfVVCY14UufUxIkT3S233JILf+2113zHlDqdmiV1lKkzqdU32RohtfPOO7vsrYhxmZqL6sQTT8yNwgox6iTbddddcx1fN998s+90e/vtt0No4fK2225zmveLhAACCCCAAAIIIDD4Aoy4GvxzQA0QQAABBBAYNAHNPfW1r33N6al7GmmleaN0q9/CCy/s58HSyCN1Jt10001+1JIq2uwhK+qY+ulPf+rnqdJoKT3RT7f8xUmTsms01hprrOHjdCuiOr1mzJjhzj///NTcW/F+2fUrrrjC6d8qq6zitthiC7f00ku7xx9/3E/6/vTTT2fDk+3rrrvO/eEPf3Cbb765+8hHPuJWWGEFt8ACC/i6Pvnkk+722293rfZPCmIFAQQQQAABBBBAYK4I0HE1V5g5CAIIIIAAAtUWeOaZZ9y1117rK9lqRFRf70KdUOoYUmrWwaVOrfvuu8//C+WNGTPG3GkV9tFSc3LpX5yaHTfEaPSY3qtGkCm1835DmSwRQAABBBBAAAEE5owAtwrOGVdKRQABBBBAAAEEEEAAAQQQQAABBBBoU4COqzYB2R0BBBBAAAEEEEAAAQQQQAABBBBAYM4I0HE1Z1wpFQEEEEAAAQQQQAABBBBAAAEEEECgTYGOVvNA6DHTlmSNU1m1Wq3pnBfhWNbyyo6b0/UbMWKE05OKSAgggAACCCAwcIGRI0e6yZMnD7wA9kQAAQQQQKBiArPrs93Gn9q4Za3mtb9/m70Z6/vQ/sO5/wC/XgG1F0ZcNWsN5COAAAIIIIAAAggggAACCCCAAAIIDKpAh+VJOpYYvQtLXL1eN8VZyys7bk7WTyOulNSbPnb9sX5d/4VRbxY/PXVJjyZvlazllR2nOlG//JmxOuOXt1MOfu25WPz0TdZdd93lD7TeeusVH/C9XEt5Ci07TmVyfZFCOlmdtRd+aTtt4Zc36Y8Lfi4Z+RdfO60u1jidE35+820Vv7yJcqwu1jiVSfuTQjqV6ae/Ee+++25/AMvfgwosM25O/v2bVstvWd4H9cu7hZzh5MeIq3DWWSKAAAIIIIAAAggggAACCCCAAAIIVEqAjqtKnQ4qgwACCCCAAAIIIIAAAggggAACCCAQBOi4ChIsEUAAAQQQQAABBBBAAAEEEEAAAQQqJUDHVaVOB5VBAAEEEEAAAQQQQAABBBBAAAEEEAgCdFwFCZYIIIAAAggggAACCCCAAAIIIIAAApUSoOOqUqeDyiCAAAIIIIAAAggggAACCCCAAAIIBAE6roIESwQQQAABBBBAAAEEEEAAAQQQQACBSgnQcVWp00FlEEAAAQQQQAABBBBAAAEEEEAAAQSCQMeYMWPCem5Zq/X2a9Xr9dxrcYY1TvuMGjXKtTqmYqzllR03p+s3YsQIHcKn2MD6PrTjcPbrlcv/j1/eRDlWF2ucyqT9SSGdhoJfeA96Z/G1Kf1Oe7dCbFm/F6zl6ei0v/wZwS9vohyrizVOZdL+pJBO+DU84mun1cUap6PQ/hrWYQ2/IJFeWl2scSqd9pc21laZfs3+Rswf1X7cMuvXn/drPa41Tsem/eVbwnD065g6dWpe4r2crq4uv9bd3d00Ri9Y4xSrX+ytjtmf8qzHtcbN6frFF6XYoCr10/svStSvSMXe7vHDLwhU9foXfvmpnvG1KdQ7Xlrbc9lxqkNV/YIP9QsSjaW1HWgP/BpuYQ2/IJFeWl2scSq93fYXXzutx7XGlVG/WNB6XGsc9Yt1G+v4NSziNauLNU5lt/vzO9j1a/Y3YlyvsG51scap3HndT+/B+n7LjsNPAvlkddae1vbHrYJ5Z3IQQAABBBBAAAEEEEAAAQQQQAABBCogQMdVBU4CVUAAAQQQQAABBBBAAAEEEEAAAQQQyAvQcZU3IQcBBBBAAAEEEEAAAQQQQAABBBBAoAICdFxV4CRQBQQQQAABBBBAAAEEEEAAAQQQQACBvAAdV3kTchBAAAEEEEAAAQQQQAABBBBAAAEEKiBAx1UFTgJVQAABBBBAAAEEEPj/7N0HnCVFuffx2sPMEHURSaYVCQIKAlcRFRVhRZLhNaAiCoggKFxQAQUTKAJXwXQFRUBBEUUUI0FQAVGi6EUlmBBcQFQkLEkc4Oxb/559zqkO58xzZnqYnp1ffT67HU51dfW3q2u6q6u7EUAAAQQQQAABBMoCNFyVTZiDAAIIIIAAAggggAACCCCAAAIIINAAgaGRkZGe2RgeHu75W/qDN56WabVaod86FcebXt3xpjp/c+bM0SqykBp4t0MLzma/Mbny//iVTTTH6+KNpzQpf1LIhyXBT/vVQlo32bx06N3euuMpD5S/dE+MjXud8SvbaQ5+k3PBr+uX1p1eF288rYX6r2ttY/iZRH7odfHGU+qUv7yxpur063WNWF6rf7115m+Q7fWu1xtP66b8lUvCbPTrXq2UPZiDAAIIIIAAAggggAACCCCAAAIIIIDAtAkMjY6OjrtyTxwl4onXbrdd8bzp1R1vKvOXtqZXWVXN0/alYSrzl66napz8Van4yr2WxA+/ph6/upNlwVNOFXc64jXVz+zIn0mUh57ygl/ZzebgZxL5ocdFS3jiTbb8Va2jal5+C8amPPEmm7+JrlfLkb8qPZ8LftV2XhdvvJl+fIx3jVil6DkuZ4tf6lOnC36pbH68Tmfv8du9WsnnhSkEEEAAAQQQQAABBBBAAAEEEEAAAQSmVYCGq2nlZ+UIIIAAAggggAACCCCAAAIIIIAAAr0EaLjqJcN8BBBAAAEEEEAAAQQQQAABBBBAAIFpFaDhalr5WTkCCCCAAAIIIIAAAggggAACCCCAQC8BGq56yTAfAQQQQAABBBBAAAEEEEAAAQQQQGBaBWi4mlZ+Vo4AAggggAACCCCAAAIIIIAAAggg0EuAhqteMsxHAAEEEEAAAQQQQAABBBBAAAEEEJhWgaGRkZGeGRgeHu75W/qDN56WabVaod86FcebXt3xpjp/c+bM0SqykBp4t0MLzma/Mbny//iVTTTH6+KNpzQpf1LIhyXBT/vVQlo32bx06N3euuMpD5S/dE+MjXud8SvbaQ5+k3PBr+uX1p1eF288rYX6r2ttY/iZRH7odfHGU+qUv7yxpur063WNWF6rf7115m+Q7fWu1xtP66b8lUvCbPTrXq2UPZiDAAIIIIAAAggggAACCCCAAAIIIIDAtAkMjY6OjrtyTxwl4onXbrdd8bzp1R1vKvOXtqZXWVXN0/alYSrzl66napz8Van4yr2WxA+/ph6/upNlwVNOFXc64jXVz+zIn0mUh57ygl/ZzebgZxL5ocdFS3jiTbb8Va2jal5+C8amPPEmm7+JrlfLkb8qPZ8LftV2XhdvvJl+fIx3jVil6DkuZ4tf6lOnC36pbH68Tmfv8du9WsnnhSkEEEAAAQQQQAABBBBAAAEEEEAAAQSmVYCGq2nlZ+UIIIAAAggggAACCCCAAAIIIIAAAr0EaLjqJcN8BBBAAAEEEEAAAQQQQAABBBBAAIFpFaDhalr5WTkCCCCAAAIIIIAAAggggAACCCCAQC8BGq56yTAfAQQQQAABBBBAAAEEEEAAAQQQQGBaBWi4mlZ+Vo4AAggggAACCCCAAAIIIIAAAggg0EuAhqteMsxHAAEEEEAAAQQQQAABBBBAAAEEEJhWgaGRkZGeGRgeHu75W/qDN56WabVaod86FcebXt3xpjp/c+bM0SqykBp4t0MLzma/Mbny//iVTTTH6+KNpzQpf1LIhyXBT/vVQlo32bx06N3euuMpD5S/dE+MjXud8SvbaQ5+k3PBr+uX1p1eF288rYX6r2ttY/iZRH7odfHGU+qUv7yxpur063WNWF6rf7115m+Q7fWu1xtP66b8lUvCbPTrXq2UPZiDAAIIIIAAAggggAACCCCAAAIIIIDAtAkMjY6OjrtyTxwl4onXbrdd8bzp1R1vKvOXtqZXWVXN0/alYSrzl66napz8Van4yr2WxA+/ph6/upNlwVNOFXc64jXVz+zIn0mUh57ygl/ZzebgZxL5ocdFS3jiTbb8Va2jal5+C8amPPEmm7+JrlfLkb8qPZ8LftV2XhdvvJl+fIx3jVil6DkuZ4tf6lOnC36pbH68Tmfv8du9WsnnhSkEEEAAAQQQQAABBBBAAAEEEEAAAQSmVYCGq2nlZ+UIIIAAAggggAACCCCAAAIIIIAAAr0EaLjqJcN8BBBAAAEEEEAAAQQQQAABBBBAAIFpFaDhalr5WTkCCCCAAAIIIIAAAggggAACCCCAQC8BGq56yTAfAQQQQAABBBBAAAEEEEAAAQQQQGBaBWi4mlZ+Vo4AAggggAACCCCAAAIIIIAAAggg0EuAhqteMsxHAAEEEEAAAQQQQAABBBBAAAEEEJhWARquppWflSOAAAIIIIAAAggggAACCCCAAAII9BKYM3/+/EW9fmy1xtq12u12ryjZfG88RZ47d25YuHBhLel51+uNtyTm7zGPeUx4xjOekXlfc8014f777+/Yj+cSy0ZYaqmlwvXXXx9uvfXWMF45WBL9OlgVI+P52SLeePiZWH6IX97Dprwu3nhKtwn187x588J6660XHn744XDBBRfY5mbDJuQvl6HCBPkrgMTJmVb+ylvQncP+7VrY2KOxf1UfyP7uu+8Of/jDH7JVe9frjadEl+T9+9znPjfMmTMnLFiwINx2223u4xI/K+n5odfFG29JL395Pf/fhZnst87ISLbZtz/ySLg7/ptJ9cuThobCcrEN4P54/f+3eC5mYbz9sebwcJgbrxvvWrQoLHjooXGvG8dLz9ar4UzyS/Odjnu3t+54S5LfnHXWWadnw9XI4oNudHQ0dS+Ne+NpQV2U6A9nv+BNr+54vfI3FA9gBV1IKdS9Xm96Wvegfq9+9avDwQcfrEXDBz/4wfDjH/84G9d/4633iiuuyOJ+5zvfCZ/+9KfDeOVAkQfNX7aCHv+Nlz9bzBtP8cmfqXWH+HUtNGbHuxptF8U/vuOVe/zyfjbldSnG+/CHPxx22GGHLJnNNtvMksuGHL85jmyi6FeO0Z2DX9fCxmaDn06C9U83n6x+q6teezT8fvKTnwTdhLvzjjvDdttvl+0673q98ZRov+PD3OyCool+ytsyyyyT7ecHH3zQinhYbrnlwoUXXphN62bAIYccMu75ny1cl9+g6XnX642n9ffbv+Sv/3UeflZC8sNe5W8kHov/97znZZE/d/PN4fj4byaVv+9vvHFYO9Ybv7333rDT737X2ehe22sRvrHhhuFZsa6+KN5kePef/8z5s8EsHo7nZ9Hrjqd0Z1L5M4fiUC48KlhUKUzvuuuu4ZJLLsn+bRgPSAICCCy5AquvvnrneN9///2X3A1lyxBAYNYIXHTRRVm99o1vfGPWbHOdG5qeB26wwQZ1Jl1rWieeeGLWQFXsqVrrSkgMAQQQQACBaRIY60o0TSufCatVrwsLdqfNpmfCUN3qf/WrX2VZ/ctf/jITskweEZg2gZl+vE8bHCtGAIHGCugRMYWZeA6jfKun+FOf+tTw53gHfzrCTPm7YPu5aKTeYVdddVX2qKBuxBIQQGBqBR6JvfW/Gh/JVc37y3FejzO1OZlY6t/4xz/CGrH35p/+/e+JJcBSCEyRAA1XUwTblGSvu+668M53vrMp2SEfCCCAAAIIIICAW+DjH/+4Oy4RywJ6zcU+++xT/oE5CCAwJQJquPr4jTdOSdqPRqKnx0Y3AgJNFJiVDVdPeMITwtvf/vbwtKc9Lb434bHhlltuDmrg+eY3v9nZR3onwFve8paQvmPl9a9/fXhefGb57LPPDv/85z87cTXykpe8JIu77rrrhnvuuSf87Gc/Cz//+c+z8TTiYx/72LDttttms84///yg9xBoeuuttw4rrrhi+O1vfxu+973vdV5Ami47kfFVV101y5uW1Xsi7rzzzlwyel70hS98Ydh8883DyiuvHH7961+HH/3oR+EfsbWdgMCSIKB3fuh410cKVltttXDHHXeEP/7xj9lxpqEFHd9rrbWWTYaN4zP+e+yxR7jsssvC//3f/3Xma0RpbbnllkGPD6sXw5VXXhnOO++8cHN8j0ExvOAFLwhPfvKTw9/+9rfs/X5ax6te9aqw6aabZvXI5ZdfntU9no8fFNOumlbaeuTxd/G9BJdeeml49rOfndUB66+/fnb8K69nnXVWrm4aji/UfOtb3xoe97jHZfWbPuRQDC9/+cvDk570pGw7tK0K2va3ve1t2VD1nepR1ZF6t94qq6wSVMf94Ac/CA888EAWX/WpPvrwzGc+M7PStqu+6bftWkZ1pB7RUX2pHqR65KlfHaV6T/tH2646V9ujXhsyKQbVe6997Wuz2V//+teDLN797neHtddeO5x22mnZNhSXYRqB6RbYcccds7/dT3ziE8O/413xP/3pT+H3v/997h2iL37xi4OOe+sx9PjHPz6r01QX6TwjDaobX/ayl3WOGX2U5ac//Wl2TpDG03hap6k+UZ223XbbTVmdpmNZ9cnf//73cPHFF2fZUd2z2267Ze8hVH10yy23hG222SbL2xprrBFujBeNql903OtdhcVQdR4oly9+8YvZS+AVv+o8UHWFXnR+5plnZnWQ6ib1BtPfEr1H6hWveEX2jr6ll1467LXXXll+9HfiP//5TzjllFOK2Qiqq175yleGR+LLm5Xmv/71r1wcvVtrp512Cs95znPCmmuumX1gR39nTjrppM55ovxf+tKXBpUFBe1vrVtpKp6sXvOa12TD3/zmN53lbEX6Xdulv0k6L1Z9rN5t5557bva3zeLZUHlR3aq/pd/+9reDvOWg80iVRTuPvOmmm2yR3FDr0t+JtOxqv+q8mYDAZAQ2iX/vnxiPvb/Gc4Vr4vuZNo0fdXhZrPf0zqlDCz02nxzPDf8rxt9whRWCaohfxmu3X8d/d/R5r/NSsffqFiutFDaJ73FaN14n/jvWLX+J6zoj1h23xWPcgnpaPT+eT+l9PDfE8x/7bd24rlXiOcYd8cXl1993X1g95nXzGG/zmM9bYjq//feD4Rd332XJVA6V7+fGZTaIaT0cj3FPvisT6jNzg7h9K8a6586Yz+tiPovhaXHbN45x1lp22XBDPOavjL3Kbo35JyAw1QKz7uXs++67b3jzzm8Oc1qqVvJB3amPOeaY8P3vfz/7Q5w2ZKUxP/axj2UXqYqvxia9V0AvPSuGRe1F4dOf+XSuQUwnfHrRuYLSf93rXtc5qUyXP/XUU8Oxxx6bzsrGB325Wr+Xsyutk08+OawQK79i0IWtLlQVeDl7UWdsmpfnPTouXmflpnh8qFH2f/7nf7LGiKrc6qRex6+CGl5sXWlcnVAfdNBB2Syd4B9++OHZRUIax8Z14WIfQ7B5arjRReHtt9+efVFVDSLFoJcOv32vt2eNOZaHib78115krEYkXVi86EUvKq4u3BdPRHTxoK90KSh/yqeCGuY/+tGPZuPpf7o4VH2nCyvVK8pf+tJfbbsufIr1ierBPd++Z3bxpUarYtDjzHvuuWd2Yaff0pezn3POOWH77bcvLpJdkB111FHhhz/8Yek3XeTtv9/+lXW8Lkx32WWXcG88oTVn1cnWo+PII48M733vezsvsLa6TysZb38oTrH8aV4x2HrHS6/ueMoH+SvujfE/UpIu0QS/leJF0+mnn559YSnNm43/8pe/DO9617uyj8l85Stfyb7Qab/ZUMe9GnksqBHsgPccMO4xY/HTOk038dQQXQxpnWa/TdTP6rT05ez6wpQaxhXUkK26RY1AxaDGPN24UMORhfHOA1Xfq9FLDTK9zgMPO+ywrGFH50pqVFMjjRqUrL5VvffiLV4cPv/5z2c3OLTu9Eao5UUNXfpwjoL+dthL1DX9lKc8JWt4Ur1bFbT9H/rQh7JGqt13370qSnj+85+fvbDd0i2+nF03K/R3sMpOCaqx/33ve1/2t8RW8NnPfjZreFIdpu1TeSsGbf8+++7TeVWFfh+k7FL/FUXHput28aantU/0+K3aEu96vfEsf0fGhig1Xv0k3qRXg9Fe8aahwsOxgWmjeBNS6akxaZdYV+xfcd2muMepYXjxzfv07/Tj47JfiF84fWbFNZOW+1T88NiXYgO6Qq+Xsx8WG3s2i3XX/8UGMj2G9/p47lUMv4tff3/nddfHRqP8C/OV7z3i9vTL9+cLN08H9bOPp/V6OfuysaHt0FgvviI2BhbDz+66K6wcG+Xkw8vZizpj0979UXc8rX0mHL9W/qr1xs7XdBzMmqCLWPWiUqOV/qjqJENfztNdPAUVlEMOPiTreaQLO52QPfBA9/leXexont3p10WbLpxUGBRUwek9UgsXP8+s9bznPe8J++23X/Z78b83vOENWaOV7oopL+m6lE9dgE1V0ImQehfYRabyoG27P1aYCtZoNVXrJ10EplpAPW3UIKEeNApqcNHxnr7rTT2q7At2mm8NOYqv41mNTfb5dc1Tg7LubCvomFElq+NG9YmCegaol05V0MWNNVqpjlAjii230uNXCrrIVMNYXUG9wuwiStuuesvWp+PeGuzqWp+2XenqsRTVqQ/FO3UKqgd1YWSNVqpb9c+Ceqmqt1dVsEYr1b3aP/alLPUo0MWelk2DLkh1EWU3JrRvtI8sL7rDrxsT6nlSFVT/29fD9Lv2MQGBJgmccMIJnUYr/b1W75Zrr722U8bVeKzGegU12ugYsKDyXKzTdMwceOCBEzpmVKdZo9WjUafZdhSHOldSw4vqN9U9d8ULKAvrxQtN9aC04DkP/MynP9P3PFCGdt5o6aqRy+pbzXukPbm6Q+eXapCzRivVYX/9619zPerUQ049bDVf+9m+fK31a1r/+vVmXTb2llCPKWu0UnlSr381wlndp95iX/jCF5RkKeic2RqttKz+xlhdqzr4c5/7XK4+HaTsllbGDAQGEHhpbOC3Rist9mDsRWjhiNhz0Rp/NP/CWF9cGRuS1LilsE9sMD4qxknD0vHc7IexF741Wi2M5zlnxXrgZ4tv/inue+K14HNjo5QnqHHNGq2uj8fOJTEdW/+Gyy8fvrHhBqWvp/3P05+ey7fWXcz3J2KcqQyfjjde00YrfXXw2sXnc1vERnDzmco8kPbsFhiaTZv/5je/ubO5e+29V1CXaQvqcv6Od7wjO3nTuHpe6U6Y7mKpy7XCAQcckC1jLaEf+MAHOnft1VtDd+rtJEFdqf/3f/83a5h6005vyrqfp3f8bL26m6V3D6gruy6UdedTJ5EKejeVTirsRMCWqWOoO4p2Qa8u4Xrcxy4KzaKO9ZAGAtMloMZXa4Q444wzwic/+cksKzp+9WjFKYsf21B5Vy8jfTlKj8Kpl42C5n3qU5/q9LRRg5U1POmCQPH16K3S011rawhWHD0GoTv2xaALq93ftnv2SJ1+0+MkavxW74Hl48mK6qA6G5RUd6iHmO62q37RYyBqWFPDjxrcVQfUWb+oLlHvKT0aqEYsPY6kz9hbOPTQQ7NHAzW9ySabhOOPPz77SY+d9AraB9brQXnWjQC7QFTvV9WZCrqb/6Y3vSkb1zbJ0h4NVIOgGs90kS1n1a3WyypbYPF/utjSRa96falBQBeCVt+n8RhHYDoEdCypF46CGhd088uCyvVZZ50de0Eumz2epvnqlahgvUlvvfXWsPPOO2fz9F96zKh+0HFhx4zqJh2fagC3Y0Z1STGoTlNvUTV4KFTVaccdd1xxsdqn1RvrHe98R+aixNPe5qovrDGv33mgGrje+MY39j0PVK8obau8qoLO2b761a/mGs+q4o037/3vf3/uHE37ze6Y6yaBbc8uu+wae8++JqtXv/zlL2d1nBqddP46XtA5rdVvegQ7fR+qbvx897vfzepxPQopT01XBf1N0fmu8qfGK90c0N9E/Z3R46rq5ZWWXTW06dF8Cypf6sWnvxnqAUtAoC6Bw268MZwfb9wtXHwjTY8FbhvPFRTU6PPfsXH/vvh3XmGF+GjcN2JD7ZqxQVdxvhwbwa9dfJy/Jd70mht/Vzg7pvfexa+Z0PGjxpqvxQZyhbfGeHpszhPUULVDfA2FHhFUGJozJ5yx0UbZI4h6HHCH2Bj/w3iuqfCs+FqbHeJrDRSU7wPijTzlW/VQmm/FOTHW83+KjWF1hw3j358XLW6Yuyn2Fts13jD512KfteIxfGo8vzKjutdNegiYwJD90bIZ6dAaNtJ5VePeeFpWFxD91qk43vQGjaeLUgu6W5bmQ13v9Y4G3eXSnUP7TX94LWh9mq+h7oLN32p+9pN6M+gkwy6SNVMnNrpbppMkXQzpgkp/3NM8q8JRI1W6nP7g631XG8XKS+tSbxA9LmNhUL80bY0rTd1l04mPgi7wdKGpBjfbZl2A6+RBeVDQOtN8ZzN7/Ddo/nokk832rtMbT4mSv7L4kuqnO+0Wbrjhhk751vaqF45OphVHF3NW9lOLYrm3xwV1UaBHT9RrSMtpGY3rpF8XLArqyaWGj2I4+5yzs3eH2PrUYK0eD1/9ylezekJ3z0+peA9KMR1Np3mt+l3zdKH5i1/8ohNX26oeZLoYVdC7tzQvTcvqiSxCj/8svg0VTS5qVLLGHm2b3pOj98EoXBrftyVz23b1EpGbLlZ0wWPz0zpL7zzRxZL9pn2iuva8887PLtC1nBr99F4VPTJj9bUapbSdtpzWr4YsvbNHeVYdqwYxhXR9qg/1+LbqZqsr0m3MFujzny3TJ0rO+tGMp3WRv7L4TNq/9jdZW6Eem2n5Vtn99re/1ekRqnf72Y0022p9dS7d3vSY0WOy6TGj4+K///u/swYRO2aqGnu/FdeZ1q9VdZo1xk+2/OlcyrY53Q41nu2y6y65czfdeFCPd8VXI4wt1+88UOdfuumguL3OA+WSrjv9kp/O8awx3uJomy1YHmxaw7T+0TKKo+FL54/17NV+1c1NzTc/fRlQ5516P98TnrB61lgod8tLa07+PNvyovVZGjrXfdnWL9Os7DFK9ZxK86cbmfo7p/NBBT1iLVMFW4/GVadrmy1/yoca73ReqaAbOfoblJbd2+KLn9N1aRvV6Ka6V0Fl1+rybEaf/9Jt6xMt+8m2vV88b3p1x1OeyF95z3idzW9Ocrx9MDZanR1flxALbKe8fSA2wiqop9WBsfFnNMa3sqim6L1jg9T5i6993hgf4zs83oTTe63+e/ENg7seejgcHs8fbRnl74/xMeTfxnOZZ8VzGfW4Wjoeq0NJPlSW7fhI8/dR9ZRMrr2Ur/fEed+P56VqxFIj2HmLe3QdutZYDzDL93+SuryY753jckfGdBQG9bPtsmNc+bV574m9Si28M75T8Z44Yb/dHI/hD9/01/DZtdfKomg5z7o9cWydHB8m0R3ORr/uX9SuwxI7ppd1WvjWt74V9t9///hH/wnZLJ3g6fE8najpkZ3xgv4I6yRKQS8Xrgp6saUFvbSyGHRn015anP6WvrdlnXXWSX+qZfxZz3pW56RALy5Nu5fbCvTeAgICM1nAegBoGw5+38HhiCOO6DTYaJ56/6jHgnpKjhf0B9Me2VBPB707qhhUv1ivyqf36K5dfCGy0lB6C+8Zu0OnRpy6ghpf7L0maZrpo4+6K15XUGOgHulLg7bNgi5eisF6eeoiqipUvedP8X760590oqv3nIKZ6yJIF1PFoAsqexm/eoXoMadiUF0uNwICTRRQQ7AF3VzSo1e6CWWNH2pYUJ2mf8VGK1suHabHjBp1i6F4zNgjZWk8NdYUw1TVacX12PTv//D7zisabJ6G9lqH4aHhzmzPeaD8POeBnUTjiBrP9GL3OoLqNDu/VL1adZ6onl86T+v1GN94+UjXUbXvtbxeYaH6VKHX49Uqg8Vw9dVXd2bZ38207KpxsFh2dU4+SNntrIARBCoE1JvpnMJ5mi5414037hUuiA1C9y7uaZXNWPzf7bG8/2PxOcDmi3uLr66GqNhQpHDFvfeE/8TrxWJ4fzz/e1e8Qfq+v3SvM4txitM/Th5ptt9uj+u+YXEPrKfGBlwF5Xu9xedInny/eHGvqGzhGv/7r8Xnp1fE87zbKs6Tfh5fKp8+klnjqkkKgY7AkOck3RNHKXri6WTKE8+b3iDx9EJJnYyohVIXLrq7o3+62NQfWjUY6cImzZ8956/16A+4/WaPDGn+zm/aOfuDq/FeQX+8taydBCieHqux9DRt43q5qgU9FmDzNW9Qv7RRSuNKS1+msaBeD2n6Nj89ydA60223OFXDQfNXlUZxXlX+inE07YlH/qrkxuYtaX46nnfbbbesgUIXAXpkQf90TKuHgHoy6g57elGQHp9pubfGEUlpvKphRL/Z3Y+R4ZFSedR6dRe/yllfxFIdoTtzqpvUE6kqntZRDL3iabvS32w8/bKoHdfpdls9UVxPOm3L2QWzftNddFuHxbWGKU0X6zvN04WxBVs2rbN00ZYGO3714nl7FEaPP6p3m3peKWgf2FcP02XtN5uni3D1WknX16s+1DKWP1u+amj5q/qtOM+TnpapMx75K+6F7rTHebr91GCuXohbbLFFlnF9MVAfUlCjyW1/vy07DtS7qfj+JdtKHW92rGt702NmvDpNaaixV3WVBdVpVp8U/Yp1mhq1J+un7bT12HYoL+p9ZPMtbxraOzvbi7rnnf3OA9Wor8fK1ZCjvFpIzwNVX1j9p9+tDrvv/vs6Ny5sOQ3TdKrymNY/lm7690bnYrZc6qcbn/ZYp63P8pJur35L62lLIz2HveqqqzrrsLRsqPd56d2A+rukZZVfW4/iqHHLtsHS1v6wYPPGK7u6ySL7Ytm1bbf0eg098SwvvdJI53vSU/w645G/dA/kxz3O8lu0+LjVo2z/KTSu6At+FraPjwJuHntiVgV73O3x8VxC6101ubH2m1iPVeXlxhjvxuTG3aJ4s9OC6g8tk+ZPDTz3xDxWhWvjY35qYFsmptGKy+rrfhYs39YjKj0Wi/m2ZTSsynP6u8bT8mfpylPLzo0W1nind3L1Su/GuE3rx8cGtZzVZ8X1VE33Si+Nm+YvnV817klPy9UZj/xV7YmxeR5nr1/3yOq9viXmF12s6iWe+rS9ToAs6A+yvvbysfi+lFNO+UrPO0sWX0N7z4TGdVGsi6Wqf/pdwS5ox6bG/teFXFXQ+3MsqKdH3UGPB1mwk06btqH1HLFphgjMNAGVYb1HQw1UaaWpxiH1NNCjEfpaleedGulJvhyqjvWqYzw1s4uodJ6Npyf6vXofWVzvsO5jOL34qcpD+kLkqt/Ti7+q34vz0jq6+Jsa9iwoX6onU3/P/lG9XwzpxXDxN6YRaIKAeoiqp8098T0nFnQOosYFvddPjfH2wmz7vWpYxzHzaNdpVduhealFrzg2v995oHqj6zxQPdF79TCydIpDnXRPJOjVDcWgxngL11xzjY3WOtRj1hbUgN8r6GZLv2CNVv3i2G8qu+qVlu4vK7t6h5e37Fp6DBHoJfBQclPM4qQNV5qnhp6qfxbfhnrflIU/1PTuqJsX96qydNOhel1Z0Evhq/L92Hgeq39p/m2ZqRiuGnudWdCL6XuFe/r81msZ5iMwiEC3GXeQpWZwXN0d2nvvvbM7ULpg1QuX9WJgvStAQS821Umhuiz3C9YFXXH0pTG9/LQY7EJKF0NVDURVj6oojfQdDPZoSzHtyUynd7R6nZzpnRAEBGa6gHodfeQjH8n+6b1O2267bdZQ9eQnPTlrcFYjlj7EoC9N9bvwUL1hQb1ydNfeQnqc27y0oczm6b0dvUL6CE76ZcNe8adjvr3LYKLrtjuE3uV1QSOXtCHflk0b3/8U37WgfaeGMe1PXUzrAmm8RigtR0BgJgqo57j+rb766lmdph5Yaoy3xmXdoLvooouynuS9tq94zKRf3tMyVfWa6r40zNQ6bbzzQD2y7TkPTC0mOq4X5BeDejlZqGrYst8mM0zPYVeL7/LpFSx/qk8HaaTqld7Xvva1oH9KV3+Pe5Vd9aolIFCngL1IXGl+O3YQODm+37NXUP1nX/m7M5Z9C8vW1JlgxeTxZUvbhqsljUT3x4agqnxX1c+2fFWjnf020eEdo10D69lVlVaa96rfmYfAZAVmTcOVTujUYKWgXhb6o3jxxRdn/zRPXbNP+9pp2cVs2ptKv1WF9FE63blMv1Bo8dVzQi+31AmiXkycXvwqjj4zXBXsZcb6LV1PVdyJzEvT/K//+q+gdwsUg3qgERCYyQJqfNYJuT4Jf/7552fHvI57vTdJx6ZeIKsvHamxQ41a/e5spw3IupBIj3dr0FFjla1Tx3p6nMlR8XpdhNjdbzW6VDV6PZr7QV94KgY1cNt2Fn+byukNNtig8rHMTTfdtLNaa4DSXXy9s0s9qXp99Us3K/TFVzVyFfdPJ0FGEGiogBrY9TdbZf2UU07JHqvSUP90HqIXXOvxQYWtttqqb8OV4qTHTFqn6Tc73nW82DFTFUd1afq4tZZVSOu0unt/jq1h8P91Hmhfzqs6D9TXB4/+xNHu80BPDuyRG8XV+ouNPxtvvHEpmbSBsNd5or7ip/2i9JXvfjdeSiuIM/R30YJu3la9q1UXx6uusmoW7d578u8vtGW9Qyu7Kiv6iIluoKrc6p/Krr48qbKtoLJLw5VXlnhegdtiL3wLK8TzPj1OWBVeGM8jnhDP826LDVZ6/C+Nt148P7oofk26GA5cY42wU7yRoMau519xRfHn0vQqI/GVNbHcV70va6PF75LSepVeVb5H4jmMQnq+qHyvEs8z/xa389Y+PbpKmXHMuPOh0SwvelzQ3nVVXGyZaJr2Tiv+zjQCdQjU/xxaHbmaojTUFVn/7Otg6WrUffwPf/xDNktfZKkKaY+B9AROXwKrCvpamO58ap32EtQ0nk4Wqno22ddYFLf4DoN0+YmOpxfoOuGxlvs0vb33fkc6yTgCM05AX/TUsacvZxWDTp7TBtuqxpp0GV1s2GMxekdc1R1qXYDoK1Za5zbbbJMu3hmv6smpuPZS9vTY7Cz0KIzoDr89mldVV6nX2nSEffbZt7Ra1ZmbbLxJNl+PJ9oL4f8SvxCkoIvD17zmNdl4+p96h3ziE5/I9s/rXrdj+hPjCMwIgZe97GVZ+dUXMq1hyDKuhov0Rdm9GsktvobpMWNfdEt/9xwzb3vb29JFsvEm1GmlTC2eofpZ/6rOA/8av8Q1yHlgr3Wk829KPlBRbKTSI4Ebb1RuuFKjjdXHOkdTnZYG9bTTzUXddLln4T0DN1opLb3Py9ahnk9qPCoGOannq8Kll11a/HmgaSu7Or8t3hxW2U2/WOkpuwOtnMgIRIFHYiPQrYsbr7aNN+P03qZiWCM2xH8xNv4fFhuitorvHVW4JTYCWe+rXeIHvfSVwTSsGNPRFwD1Tqq/xHNL70PD21d8IGajeDP1aYt751+4+OXtyrfyoDBevj8WO2G8tKIXZ5rfiY7bY5L6euK8ikecXxNvFNt7sCa6DpZDYDyB8l+q8ZaYob/rwvPOO8Zayddfb/3sXRDppuhukH3B7193dF8smT7f/9rXvrZzAqHHVy6//PIsCV10fulLX8o1AO26667hNa8eu3jSur/zne+kq8vGdUdT3f3t0UDduTz55JOzXgOKoEar9LG+UgITnKG7rPa1MTVaKW/25RedvOjRqSc/+UkTTJ3FEGiGgDUC6ThT41V6Yq5jLr1Q+9WvfpVl2hpBNKHeOekJtO5wW9DjwXbcap4aoT/3uc/Zz8E+/96ZsXhkhx12CDvuuGOnrtAXwfR1Qwunn366jT6qQ1043HHn2JcS9a4cXYzqYkkXGLJLezg9mhlTPaTHMu1CR48InnnmmZ2LKd2lt2Avqda0vg6rF/FbUEPjN7/5zY77OeecbT8xRGDGCKSvJDj66KNzN77Ue3SvvfbqbMsll1zSGbe78qqz0seS02NGjwqmx4zi6ZEuu7HV65jRewR1bmTxmlKndTY+GRnvPFD13Hjngf/v//2/znlgknTP0SuS3hf6sq2+ZK26Vb2KTjrppE5dliagj1r88KwfZrPkqpssdo6m4XHHdb/6fOFFF3YWtXf/qUFLr8FI/+Z1Ii0e+XfszWHL6m/kt7717ZDewNF+3HuvsacU1EP1M5/5TDGJgabTsnvUUUeVyu773//+Tnpp2e3MZASBGgQ+mnzw5Uuxp/1KSePVWrE31SnPeGZnLWcsft/wQ/H86OjYqK2gx+Q+Hxu2lovHmMKycXh4bOSy8N3kwwQ2r9dQjUybx15S1tizQazDj0++JP/DJK0PL74xp7SU78f1yfc3Ym/GqQhHJI3wp8cnhtLGqy1iY9kHEoepWD9pIiCB/G2cJdzk45/4eHZXR3eQdDGm96CoEUfP2usPvQXdlbegr8sonoLuGOnfYYcdln115oMf/GD24mf90dcjLfrcu7rE66QkTU/rSr+uZWlrqItEXazqhCq9q6YTzf333z+NWuv44YcfHjbffPPscQCdoOorXFqnPhstH3tfTK0rJTEEHkUB3cHV+zN0LOqlxbqrrPdHqceOjlkLZ511VufxDdUHOvlXY7QaO/SIob62dcghh4Tvfe972aOA6nGlr3GpwVfHjHpi2kWb0tSxZA1hto50eOCBB4YD3nNA0Jef0npCn7LXI8Vp3tLlpnpcXyvTBaiCHnHWvzTo7rzdfU/nT/W4Pp2uxzqL61dvEX050oIa+U//5ulZL1fVpbqw13tZ9ChNaqqbDp/85Cdz9a2lwRCBJgvopeH77bdf1vi0RrxIOP+888PCexZmZdl6bSr/OhYuiu+4sqBHz6yHjhp+1VNR9eGgx4ylVxzqZfD777d/zzqtGH86pyd7HqgGIf3T+Z/2x3jhsssuy+oh/Y1Qo5P+jqSh17mW6ig1HqlBUueJ+rtSPE/URz10o9GC6nB7zYMayRSe//zn28+lof5G6jxQj1frJoH+1ukcVn+X0vNR3WBNb+qUEnLMSMvuU5/61HHLblpnO5InCgIugSvjxwZ+Euu/l8YGI3397uexsfrOhx6OvajGGqUskc/Gr6f+JXmU8JuxTt0xXiutHTsYvDAex7+MPR71kvL0fU9Xx8cKvx2/rjxIOCE2gqk3l/6px5aFT6j3Z/IRmiviuet58auy28SeYsr3BRttFO6K+VaHyDQPx/x1Qdbry9Kpc/ibeH78o/iY5LbxmlnrPHeTTTID9UDTo5cK2g5riKtz3aSFgAl0jxKbswQPdSKnd0BY92j9sdYL0u3iURc5+l3vvrKgC930fQOab3/Q9YdcPSjU5dqC0rT0dAGsO0u9PjOtizF7/MjSVDrq5aXHDO03S3siw/S9BzrpsaC01eMkfUGnThR0Yap4unNrd2nTNGx5hgg0XUDHrhqJrBzrGNNHGOyEWPWALgbsBN+2Rz1z0pAem3p04gc/+EHnZ6VljVY6bnRR+OEPf7jzezqi+sLuvus4s3pCcfS+FfV+qCPYO1V0QVQV0vkWV/HUYK+LrGJQfPUgs0do0mXSuiFN19JI56Xj9rulZUPNt3jab+ptpXpZIW00000C7YtiUK8AXYxZXad9k+7vX//61+GNb3xj7tGa8bahuA6mEZhOATUo2wcLdEyoMSRttNK7i9761rfmsqjzmvR8In3tgY4Z1YGDHDOWuOo0nVcpPCp1Wrtbp1XVGVlGkv/SY9tmK7/jnQeqMch7Hmj5sKGtx4Zyf8tb3pI1CNk8Gy6IvT8OPvhgm8zVS7rZqRsu6bue0r9F+jq20k23UTdabqu4cE7jpON6ZF7r0KsyLOgc1tajMqG/Z3oSIA2Whp1Lp79p3OpwjVtcjavs2ovnvWVXyxEQ8AqMnS3EchcbUHqF98byflTSe2il4bGvCyr+ffF85yM33hhOKfRaUq+r1/32t+G7i3thKW7aYPT1GH+v66/vPCaYrt0eM9QyFv4cj73PLf7ojxp60karY+NL479S8eL4A+K1Zprvx1Xk++Rbb7FVTGpo+ddjimn4QLxheEJSx8jAGq32i/n73uIPS+SXSlNgHIHJCcx55jOf2bN82QWZXTj0WpU3npbXnaN+n95VHG96E42nkzx1LjMQQAAAQABJREFU01YvKT0KpD/0esGvujKr91VV/vROAf3TSYjeg6CTlNRFXfB1Z2vttdcOugumx5Ss10UaT3GsR5dOjvT5X/Xg0B08pamXCtvFrSyKYSr8tH49IqD3WeiCUO/vSk82vM7K61TkL/Uremia/FWp+F2WdD+dhKvXjv6pp5QahtVbR2XdLgCLguqVpQ826AJPx7I1flk8vQRcH1HQ59P1203xJEg9puziz+JpqAZq9d7SRd4ee+yRnbjrvSUbxTtmN8YTJPWySvPh3R91x1Nedfyq/tJLcvUOnVvjyZMae/RYiYW61+tJT3W1ehLIUM7pRbjly4ZKT3WZltHLizV9S7x7qjv+6mliwbNexfXGU1zqPynkA355D5vyuvSKpw9K6DxGN9/US0Z1mo7X9JEsW5eGqsvi+V72OJgaKnScp0HHzCbxDrodMzovUoO6NTSkcdM6Te/4VB5Vv/aq02zZJh0fVeeBd8QeDTon69VDXueAelxZ9Y8aCHs1Vml7q/abzhNVt+oRPp3rqf6vimdeNlRe9fdG+1w3UrWs8loVlJ7OQ9UApX2nMlEViuvV49hax7rrrpt9SEjnr9pGu8Ey3nmY1uHdv9oO/Q1My64a4tKbwMX8VW2D5nnjKa43f4o73vZ61+uNR/4kUA5T6bd87CW0TuxBtW7892BssLolnsup15Qaa/qtV41MWm6VeKzdFRu0/hqXuzM5Rypvxdgclb9DYw/K58Z/N8T4r4vHsnorPSP2oHp6vBbV+v8c/90TG4z7lT/le/2YxnoxD/fG+Gm+i+vutx3FuIMcH/qEz4Yx30+IN2+vi41wf4j/1LhnwbtebzylO0j++vkpLe96vfHInwTKYSr8hsqrWfLnqCeUek2kPSfG22p1qdc/BdsR6TI6OdDJXBqq4qW/27i+QKY7Wr0OtK233jqst956WXSdwNh7DGz54tBONH75y18Gz7sCdLKQnjAU02MagZksoMYkNVLpn4Idl72ON8XRI4P2jqyqeGoAUW8t/bP0qhqtlFYxKD31wuzVE1PH+vz583N3rYtpaNqOc7u7rfopfeF81TKeeWqI0/v77B1+nmWmOo72hf7pxKVfo5XlQxee6j1W1YPM4jBEYCYLqCdO2htH26Ljo1dQI4uOIauvivGKx0yveMXlND1enabH3XbbbbesZ5j3/EX1mvJ8/PHHV94QqMrHIPOqzgPl16vRSmmrjrUGo36NVr3yofPEXg1JvZbRfOVVfy/UkFR1Y7W47J///Oee55PFuDat89Dil6/1m/2dsXh1DFVu0w8c1ZEmaSAwqMD9sY5RQ5X+DRIejA00v1v8GN8g9WTVOtRIprQGSU/5/k1sPNe/qvNTredJseF601jvpr0nq9afzlspNkT9IfbgvSQ+rTBeuDuex/7cEW+8dPgdgUEFhoo9CaoS8MTRcp546snjiedNr+54U52/tJLRhW5qkY5ruyzo62jqFTVoUI8Jewl7v2V7rbe4jCfeVPsV85ROk79UozvucVFsTzz2b9e1OFaX30te8pLOu6aK6+g3rQad0047rWeUuvJnK/Ckp7h1xqP8mX556HHGr+xmc/AzifxwPBc7p+kXTz1O9RL3iQS9wFyPtPUK/dabLuOJx/GRiuXH8ct72JTHRXE98Sh/ploeLil+ixb3SlLDd79t6vdbqtMr3sbxqYBD43sQBw03xR5UFyaPQ/Zavtd6i/HrjMfxUdTtTnuclxS/WdnjqrurZ8aYvpClR5wUBukqaT3EZsZWkksEEJCA3r+ix+HsgrCXit3ps3ienki90mI+AgggMFUC6in0pje9aaDzF9VrOtFW71cCAggggIBf4Nz4KPilsUdU8TyxXwq6vrwxvlaBgECTBWi4avLeWZw3vYvC3kehkzm90LNfsJcRe1pg+6XDbwgg8OgLqAFK76sZ7/jlOH/09w1rRACBwQXUAKX3anH+MrgdSyCAAAKDCuidXfo3Ent2KYx3Pqk4S8f4egSQgECTBWi4epT3ztVXXx0OOuigbK0aJyCAwJItoONdj8rcGT8jTEAAAQRmugB12kzfg+QfAQSmQ+AD8f1zj4svdb83NhIREEBgcAEargY3m9QSeldD+pnlSSXGwggg0HiB9OMHeu8cAQEEEJjJAmmdZj0/Z/L2kHcEEEDg0RC4LX4BVv8ICCAwMYHWxBZjKQQQQAABBBBAAAEEEEAAAQQQQAABBKZWgIarqfUldQQQQAABBBBAAAEEEEAAAQQQQACBCQrQcDVBOBZDAAEEEEAAAQQQQAABBBBAAAEEEJhagaF+7yewz2iOlwVvPKXTarVCv3Uqjje9uuORPwmUg9dZS7J/8fOWl7rjUf7KZU9zvM744TdIefGWK288yh/lj/JXXQZsLudXJtEdUr90LdIxr4s3ntKm/KXCY+P4lU00x+vijac0KX9SyIfZ6EePq3wZYAoBBBBAAAEEEEAAAQQQQAABBBBAoCECQ6Ojo+NmxRNHiXjitdttVzxvenXHI38SrQ7s34m7aEn88KN+qS4DHB+Tc8EPPwlQv0yuHOCHnwl4ztcUt854lD/TLw89zviV3WwOfiaRH3pctIQnHuUvb5tO1elHj6tUlnEEEEAAAQQQQAABBBBAAAEEEEAAgcYI0HDVmF1BRhBAAAEEEEAAAQQQQAABBBBAAAEEUgEarlINxhFAAAEEEEAAAQQQQAABBBBAAAEEGiNAw1VjdgUZQQABBBBAAAEEEEAAAQQQQAABBBBIBWi4SjUYRwABBBBAAAEEEEAAAQQQQAABBBBojMBQY3KyBGVkaGgojIyMZP+0WZpOwwMPPJBO5saXWWaZ0Gq1woMPPph9ISj34+IJ/a54FvqlZ3EYIoAAAggggAACCCCAAAIIPDoCw8PDQf+WXXbZsNxyy4270ocffji7btR1pL5Up+vBXmHppZcOSy21VPazvtymZQkILMkC+RaVJXlLH8Vt+9jHPha23HLLnmtc1F4U7rn3nnDiiSeGb33rW7l4F114UZjTmhNOPfXUcOyxx+Z+04Qawc4888zwxCc+MfvtH//4R3jlK19ZiscMBBBAAAEEEEAAAQQQQACB6RH4wfd/EFZ6/EqulZ977rnhyCOPDIccckh4+ctfnjVEbb755pXLbrPNNuGDH/xg57cPfehD4fzzz+9MM4LAkijAo4JTsFfnzJnTN1U1TM2dOzcceOCB4YgjjqiMq15VxaAW+89+9rOdRqu//e1vYccddyxGYxoBBBBAAAEEEEAAAQQQQGAaBXTN5w1V135VyxYbrQ477DAaraqgmLfECQzNmzev50bZAaSuiv2CN57SUINNv3Uqjje9uuPVlb/ll19eSQX1rHr7Xm/PPfKnnlIbbLBBeO1rX5v1nnrpS18aLrzwwvDnP/85F6/opJ5WarRaddVVs7Rvu+22cMABB4TVVlstm07/q9vFm57yUMx3mi8b96ZXdzzyZ3sgP/Q645d3syn8TCI/9Lp44yl16pe8sabwK5sM4oIffiZA/WIS3SHHR9ciHfO6eOMpbcpfKjw2viT42aN8d999dzjmmGPKG5nM+ec//5l1TnjMYx7TmVu8Zt5iiy3Cvvvum/2u68zPfPYz4dprr628tl4S/AyC48MkusPZuH+HFixY0BUojOn5WgU9N9sveOMpDR2A/dapON706o5XV/7uv/9+JRUeaT8Sfv/73+f8rrnmmqxV/OKLLw7HHXdcFu8Zz3hG0HTqvHDhwo6TelqdccYZnUarG264Ieyyyy49n2Wu28WbnjZmNuzfbKfF/7wu3nj4mWx+iF/ew6a8Lt54Spfj13S7Q/y6FumY18UbT2lT/lLhsXH8yiaa43XxxlOalD8p5AN+eQ+b8rp44yldyp/pdodLgt8jjzySbdB9990ffvzjH3c3rmLMtvfee+/t/JpeM2+77ba5Rqv3vu+92fVjJ3JhxNJLry8LUTqTlL8ORWcEvw5FbsTr4o2nxL3lj3dc5XbFozdx1VVXdVa25pprdsaLI9ZoZe+0+stf/hLe/OY353pnFZdhGgEEEEAAAQQQQAABBBBAYOYLqNHqIx/5SLYh6ml14EEHhl/84hczf8PYAgQGEKDhagCsOqOuuOKKneT+/ve/d8bTkWKj1W9/+9ugF7+P9+hmmgbjCCCAAAIIIIAAAggggAACM08gbbRSD653vetd4eqrr555G0KOEZikAA1XkwScyOJ6NNBazbV8VYt5sdFKjx/uueeeWVe6iayTZRBAAAEEEEAAAQQQQAABBB5dgblzHxt22mmnniu97LLLgj66VQxpo5V++/SnP02jVRGJ6VkjQMPVFO5qvVD9u9/9bm4N6mml+RZuuummcOWVV9pkZ/j617++M64RvfBdFd4ll1ySm88EAggggAACCCCAAAIIIIBAMwX0wnX1lOoVVllllXD88cfnftb1YtrRQT/uvffe4ZxzzgkPPfRQLi4TCMwGgdZs2Mjp3MaVV145pP/SRiu9qH333Xfvm71f//rX2dcJFWn//fYPT3jCE/rG50cEEEAAAQQQQAABBBBAAIFmCOi9VA888O+e/26//faeGdXL1fWOY4UVVlghHHXUUT3j8gMCS7JAt+vPkryV07RtqqS+eMIXS1//u/nmm7Nunvo0qoK9db+Yze9///vhyCOPDHvssUf2mOCc1pzw0Y9+NGy33Xa856qIxTQCCCCAAAIIIIAAAggg0DCBW+NjgK997Wv65qrqevA///lP2HnnnYMats4990dhueWWDZtttlnYZpttwg9/+MO+6fEjAkuaAA1XU7hHH2k/Ek477bTg+QxpMRt675UarRROOumksPXWW4c11lgj6FHDD33oQ6Wuo8XlmUYAAQQQQAABBBBAAAEEEJh5AuoAseOOO4Z//OMfWeYPil8SPO6447Lxgw8+OFx66aXhjjvumHkbRo4RmKDAUFXrrqWlF4R7gjee0mq1Wj17GNm6vOnVHa+u/GkbLXjyWBXn1ltvzTntv//+4cwzz8zej7X99tuHCy64IFxxxRW2mtywKr1chMUTdcdTsrNh/5olfiaRH9bt4k1PuaD85feFpvArmwzigh9+JkD9YhLdIcdH1yId87p44yltyl8qPDaOX9lEc7wu3nhKk/InhXzw+M2ZM6ezUL9rbkWy9JZaaqlsGXWAuOuuuzrXg/q6/HnnnZf1ttKrZ0444cT4/uM3dtIvjlh6xflV0+zfsgp+ZRPN8bp44ylNb/nrtrBoKUJjBe68885wzDHHdPKn3lh6zpmAAAIIIIAAAggggAACCCCwZAvo+m/hwoXZRj75yU8K++6775K9wWwdAonAkOcxNk8cpemJ1263XfG86dUdr478KQ0L+uqDx6W4HQ8//HBpOX2h8FWvelVYf/31s9b3T33qU2G33XazVZWGE1lvKZFkhie9OvySVWajnvUqoice+Svqdqfx61qkYx4XxffEo/ylsvlx/PIeNuVxUVxPPMqfqZaH+JVNNMfj4o1H+as2xm9yLvjhJ4Gm1i+LFi3q7CBvffrII4/0XWa//fYLp5x8StC7j9/whjeEH/3oR+G6667rLFMc8ay3qX62LeTPJMrD2bR/6XFV3v+NnqOWdr2oT0ENWG95y1sanV8yhwACCCCAAAIIIIAAAgggMHkBfWHw1K+d2kno2GOPdT++1VmIEQRmoAANV1Ow09QqPNmQtranaT344IPhoIMO6sza5537hJVXXrkzzQgCCCCAAAIIIIAAAggggMD0CugF6wqLFvmvDe06Mu2tVdyKE088MSxYsCCbvfzyy4cjjjiiGIVpBJY4Ab4qOAW79JBDDslSHe8lfFWrft7zn1c1OzdPL2XXp1AJCCCAAAIIIIAAAggggAACzRPYbvvtskzNmzfPnTk1QnkaovTFQQICs0mAHlezaW+zrQgggAACCCCAAAIIIIAAAggggMAMEqDhagbtLLKKAAIIIIAAAggggAACCCCAAAIIzCYBGq5m095mWxFAAAEEEEAAAQQQQAABBBBAAIEZJEDD1QzaWWQVAQQQQAABBBBAAAEEEEAAAQQQmE0CQ/1eID48POyy8MZTYq1WK/Rbp+J406s7HvmTQDl4nbUk+xc/b3mpOx7lr1z2NMfrjB9+g5QXb7nyxqP8Uf4of9VlwOZyfmUS3SH1S9ciHfO6eOMpbcpfKjw2jl/ZRHO8Lt54SpPyJ4V8mI1+9LjKlwGmEEAAAQQQQAABBBBAAAEEEEAAAQQaIjA0Ojo6blY8cZSIJ1673XbF86ZXdzzyJ9HqwP6duIuWxA8/6pfqMsDxMTkX/PCTAPXL5MoBfviZgOd8TXHrjEf5M/3y0OOMX9nN5uBnEvmhx0VLeOJR/vK26VSdfvS4SmUZRwABBBBAAAEEEEAAAQQQQAABBBBojAANV43ZFWQEAQQQQAABBBBAAAEEEEAAAQQQQCAVoOEq1WAcAQQQQAABBBBAAAEEEEAAAQQQQKAxAjRcNWZXkBEEEEAAAQQQQAABBBBAAAEEEEAAgVSAhqtUg3EEEEAAAQQQQAABBBBAAAEEEEAAgcYI0HDVmF1BRhBAAAEEEEAAAQQQQAABBBBAAAEEUgEarlINxhFAAAEEEEAAAQQQQAABBBBAAAEEGiMwNDIy0jMzw8PDPX9Lf/DG0zKtViv0W6fieNOrOx75k0A5eJ21JPsXP295qTse5a9c9jTH64wffoOUF2+58saj/FH+KH/VZcDmcn5lEt0h9UvXIh3zunjjKW3KXyo8No5f2URzvC7eeEqT8ieFfJiNfvS4ypcBphBAAAEEEEAAAQQQQAABBBBAAAEEGiIwNDo6Om5WPHGUiCdeu912xfOmV3c88ifR6sD+nbiLlsQPP+qX6jLA8TE5F/zwkwD1y+TKAX74mYDnfE1x64xH+TP98tDjjF/ZzebgZxL5ocdFS3jiUf7ytulUnX70uEplGUcAAQQQQAABBBBAAAEEEEAAAQQQaIwADVeN2RVkBAEEEEAAAQQQQAABBBBAAAEEEEAgFaDhKtVgHAEEEEAAAQQQQAABBBBAAAEEEECgMQI0XDVmV5ARBBBAAAEEEEAAAQQQQAABBBBAAIFUgIarVINxBBBAAAEEEEAAAQQQQAABBBBAAIHGCNBw1ZhdQUYQQAABBBBAAAEEEEAAAQQQQAABBFIBGq5SDcYRQAABBBBAAAEEEEAAAQQQQAABBBojQMNVY3YFGUEAAQQQQAABBBBAAAEEEEAAAQQQSAXmzJ8/f1E6Ix1vtcbatdrtdjq7NO6NpwXnzp0bFi5cWEojneFNr+545C/dC91xrzN+XbN0DL9UozvudfHGU8rUL11fG8PPJPJDr4s3nlKn/OWNNYVf2WQQF/zwMwHqF5PoDjk+uhbpmNfFG09pU/5S4bFx/MommuN18cZTmpQ/KeTDbPQbWrBgQV4hmRoZGcmmRkdHk7nlUW88LTlv3rzQb52K402v7njkTwLl4HXWkuxf/Lzlpe54lL9y2dMcrzN++A1SXrzlyhuP8kf5o/xVlwGby/mVSXSH1C9di3TM6+KNp7Qpf6nw2Dh+ZRPN8bp44ylNyp8U8mE2+vGoYL4MMIUAAggggAACCCCAAAIIIIAAAggg0BABGq4asiPIBgIIIIAAAggggAACCCCAAAIIIIBAXoCGq7wHUwgggAACCCCAAAIIIIAAAggggAACDRGg4aohO4JsIIAAAggggAACCCCAAAIIIIAAAgjkBWi4ynswhQACCCCAAAIIIIAAAggggAACCCDQEAEarhqyI8gGAggggAACCCCAAAIIIIAAAggggEBegIarvAdTCCCAAAIIIIAAAggggAACCCCAAAINERgaGRnpmZXh4eGev6U/eONpmVarFfqtU3G86dUdj/xJoBy8zlqS/Yuft7zUHY/yVy57muN1xg+/QcqLt1x541H+KH+Uv+oyYHM5vzKJ7pD6pWuRjnldvPGUNuUvFR4bx69sojleF288pUn5k0I+zEY/elzlywBTCCCAAAIIIIAAAggggAACCCCAAAINERgaHR0dNyueOErEE6/dbrviedOrOx75k2h1YP9O3EVL4ocf9Ut1GeD4mJwLfvhJgPplcuUAP/xMwHO+prh1xqP8mX556HHGr+xmc/AzifzQ46IlPPEof3nbdKpOP3pcpbKMI4AAAggggAACCCCAAAIIIIAAAgg0RoCGq8bsCjKCAAIIIIAAAggggAACCCCAAAIIIJAK0HCVajCOAAIIIIAAAggggAACCCCAAAIIINAYARquGrMryAgCCCCAAAIIIIAAAggggAACCCCAQCpAw1WqwTgCCCCAAAIIIIAAAggggAACCCCAQGMEaLhqzK4gIwgggAACCCCAAAIIIIAAAggggAACqQANV6kG4wgggAACCCCAAAIIIIAAAggggAACjREYGhkZ6ZmZ4eHhnr+lP3jjaZlWqxX6rVNxvOnVHY/8SaAcvM5akv2Ln7e81B2P8lcue5rjdcYPv0HKi7dceeNR/ih/lL/qMmBzOb8yie6Q+qVrkY55XbzxlDblLxUeG8evbKI5XhdvPKVJ+ZNCPsxGP3pc5csAUwgggAACCCCAAAIIIIAAAggggAACDREYGh0dHTcrnjhKxBOv3W674nnTqzse+ZNodWD/TtxFS+KHH/VLdRng+JicC374SYD6ZXLlAD/8TMBzvqa4dcaj/Jl+eehxxq/sZnPwM4n80OOiJTzxKH9523SqTj96XKWyjCOAAAIIIIAAAggggAACCCCAAAIINEaAhqvG7AoyggACCCCAAAIIIIAAAggggAACCCCQCtBwlWowjgACCCCAAAIIIIAAAggggAACCCDQGAEarhqzK8gIAggggAACCCCAAAIIIIAAAggggEAqQMNVqsE4AggggAACCCCAAAIIIIAAAggggEBjBGi4asyuICMIIIAAAggggAACCCCAAAIIIIAAAqkADVepBuMIIIAAAggggAACCCCAAAIIIIAAAo0RGBoZGemZmeHh4Z6/pT9442mZVqsV+q1Tcbzp1R2P/EmgHLzOWpL9i5+3vNQdj/JXLnua43XGD79Byou3XHnjUf4of5S/6jJgczm/MonukPqla5GOeV288ZQ25S8VHhvHr2yiOV4XbzylSfmTQj7MRj96XOXLAFMIIIAAAggggAACCCCAAAIIIIAAAg0RGBodHR03K544SsQTr91uu+J506s7HvmTaHVg/07cRUvihx/1S3UZ4PiYnAt++EmA+mVy5QA//EzAc76muHXGo/yZfnnoccav7GZz8DOJ/NDjoiU88Sh/edt0qk4/elylsowjgAACCCCAAAIIIIAAAggggAACCDRGgIarxuwKMoIAAggggAACCCCAAAIIIIAAAgggkArQcJVqMI4AAggggAACCCCAAAIIIIAAAggg0BgBGq4asyvICAIIIIAAAggggAACCCCAAAIIIIBAKkDDVarBOAIIIIAAAggggAACCCCAAAIIIIBAYwRouGrMriAjCCCAAAIIIIAAAggggAACCCCAAAKpAA1XqQbjCCCAAAIIIIAAAggggAACCCCAAAKNEaDhqjG7gowggAACCCCAAAIIIIAAAggggAACCKQCc+bPn78onZGOt1pj7VrtdjudXRr3xtOCc+fODQsXLiylkc7wpld3PPKX7oXuuNcZv65ZOoZfqtEd97p44yll6peur43hZxL5odfFG0+pU/7yxprCr2wyiAt++JkA9YtJdIccH12LdMzr4o2ntCl/qfDYOH5lE83xunjjKU3KnxTyYTb6DS1YsCCvkEyNjIxkU6Ojo8nc8qg3npacN29e6LdOxfGmV3c88ieBcvA6a0n2L37e8lJ3PMpfuexpjtcZP/wGKS/ecuWNR/mj/FH+qsuAzeX8yiS6Q+qXrkU65nXxxlPalL9UeGwcv7KJ5nhdvPGUJuVPCvkwG/14VDBfBphCAAEEEEAAAQQQQAABBBBAAAEEEGiIAA1XDdkRZAMBBBBAAAEEEEAAAQQQQAABBBBAIC9Aw1XegykEEEAAAQQQQAABBBBAAAEEEEAAgYYI0HDVkB1BNhBAAAEEEEAAAQQQQAABBBBAAAEE8gI0XOU9mEIAAQQQQAABBBBAAAEEEEAAAQQQaIgADVcN2RFkAwEEEEAAAQQQQAABBBBAAAEEEEAgL0DDVd6DKQQQQAABBBBAAAEEEEAAAQQQQACBhggMjYyM9MzK8PBwz9/SH7zxtEyr1Qr91qk43vTqjkf+JFAOXmctyf7Fz1te6o5H+SuXPc3xOuOH3yDlxVuuvPEof5Q/yl91GbC5nF+ZRHdI/dK1SMe8Lt54SpvylwqPjeNXNtEcr4s3ntKk/EkhH2aj39D8+fPD9ttvn0mcffbZ4YILLsjGB52/5ZZbhm222WbcdH7/+99PKP1e+fGs90c/+lG46KKLloj1Pu95zwubb755X+fp2l6VH/ZvCJM5jti/5fpnusrzVKyX/cv+nYpy5fk7OBX180te8pKw7bbblv4ebbXVVmGHHXbI5qfbm85P68lB50/XejfbbLPwwhe+sJHbm+7fQT17xe9VrtL4U7F/p2u9de3fXuerveb32t5ifM6vOL8a5HrNU67S47dY3qbyenAq1sv5FedXU1GuPMdR+vd3ph9Hnu2dCmfv8TtnnXXWWZSdhVX8Zz2jRkdHK37tzvLG0xLz5s0LCxYs6C5cMeZNr+545K9iZ8RZXmf88JOAt7zUHY/yR/mj/FWXAZvL31+T6A699ZCWwK/rZmP4mUR+6HXxxlPqlL+8sabwK5sM4oIffiZA/WIS3SHHR9ciHfO6eOMpbW/54x1X6Z5gHAEEEEAAAQQQQAABBBBAAAEEEECgMQI0XDVmV5ARBBBAAAEEEEAAAQQQQAABBBBAAIFUgIarVINxBBBAAAEEEEAAAQQQQAABBBBAAIHGCNBw1ZhdQUYQQAABBBBAAAEEEEAAAQQQQAABBFIBGq5SDcYRQAABBBBAAAEEEEAAAQQQQAABBBojQMNVY3YFGUEAAQQQQAABBBBAAAEEEEAAAQQQSAVouEo1GEcAAQQQQAABBBBAAAEEEEAAAQQQaIzA0MjISM/MDA8P9/wt/cEbT8u0Wq3Qb52K402v7njkTwLl4HXWkuxf/Lzlpe54lL9y2dMcrzN++A1SXrzlyhuP8kf5o/xVlwGby/mVSXSH1C9di3TM6+KNp7Qpf6nw2Dh+ZRPN8bp44ylNyp8U8mE2+tHjKl8GmEIAAQQQQAABBBBAAAEEEEAAAQQQaIjA0Ojo6LhZ8cRRIp547XbbFc+bXt3xyJ9EqwP7d+IuWhI//KhfqssAx8fkXPDDTwLUL5MrB/jhZwKe8zXFrTMe5c/0y0OPM35lN5uDn0nkhx4XLeGJR/nL26ZTdfrR4yqVZRwBBBBAAAEEEEAAAQQQQAABBBBAoDECNFw1ZleQEQQQQAABBBBAAAEEEEAAAQQQQACBVICGq1SDcQQQQAABBBBAAAEEEEAAAQQQQACBxgjQcNWYXUFGEEAAAQQQQAABBBBAAAEEEEAAAQRSARquUg3GEUAAAQQQQAABBBBAAAEEEEAAAQQaI0DDVWN2BRlBAAEEEEAAAQQQQAABBBBAAAEEEEgFaLhKNRhHAAEEEEAAAQQQQAABBBBAAAEEEGiMwNDIyEjPzAwPD/f8Lf3BG0/LtFqt0G+diuNNr+545E8C5eB11pLsX/y85aXueJS/ctnTHK8zfvgNUl685cobj/JH+aP8VZcBm8v5lUl0h9QvXYt0zOvijae0KX+p8Ng4fmUTzfG6eOMpTcqfFPJhNvrR4ypfBphCAAEEEEAAAQQQQAABBBBAAAEEEGiIwNDo6Oi4WfHEUSKeeO122xXPm17d8cifRKsD+3fiLloSP/yoX6rLAMfH5Fzww08C1C+TKwf44WcCnvM1xa0zHuXP9MtDjzN+ZTebg59J5IceFy3hiUf5y9umU3X60eMqlWUcAQQQQAABBBBAAAEEEEAAAQQQQKAxAjRcNWZXkBEEEEAAAQQQQAABBBBAAAEEEEAAgVSAhqtUg3EEEEAAAQQQQAABBBBAAAEEEEAAgcYI0HDVmF1BRhBAAAEEEEAAAQQQQAABBBBAAAEEUgEarlINxhFAAAEEEEAAAQQQQAABBBBAAAEEGiNAw1VjdgUZQQABBBBAAAEEEEAAAQQQQAABBBBIBWi4SjUYRwABBBBAAAEEEEAAAQQQQAABBBBojAANV43ZFWQEAQQQQAABBBBAAAEEEEAAAQQQQCAVmDN//vxF6Yx0vNUaa9dqt9vp7NK4N54WnDt3bli4cGEpjXSGN72645G/dC90x73O+HXN0jH8Uo3uuNfFG08pU790fW0MP5PID70u3nhKnfKXN9YUfmWTQVzww88EqF9Mojvk+OhapGNeF288pU35S4XHxvErm2iO18UbT2lS/qSQD7PRb2jBggV5hWRqZGQkmxodHU3mlke98bTkvHnzQr91Ko43vbrjkT8JlIPXWUuyf/Hzlpe641H+ymVPc7zO+OE3SHnxlitvPMof5Y/yV10GbC7nVybRHVK/dC3SMa+LN57SpvylwmPj+JVNNMfr4o2nNCl/UsiH2ejHo4L5MsAUAggggAACCCCAAAIIIIAAAggggEBDBGi4asiOIBsIIIAAAggggAACCCCAAAIIIIAAAnkBGq7yHkwhgAACCCCAAAIIIIAAAggggAACCDREgIarhuwIsoEAAggggAACCCCAAAIIIIAAAgggkBeg4SrvwRQCCCCAAAIIIIAAAggggAACCCCAQEMEaLhqyI4gGwgggAACCCCAAAIIIIAAAggggAACeQEarvIeTCGAAAIIIIAAAggggAACCCCAAAIINERgaGRkpGdWhoeHe/6W/uCNp2VarVbot07F8aZXdzzyJ4Fy8DprSfYvft7yUnc8yl+57GmO1xk//AYpL95y5Y1H+aP8Uf6qy4DN5fzKJLpD6peuRTrmdfHGU9qUv1R4bBy/sonmeF288ZQm5U8K+TAb/ehxlS8DTCGAAAIIIIAAAggggAACCCCAAAIINERgaHR0dNyseOIoEU+8drvtiudNr+545E+i1YH9O3EXLYkfftQv1WWA42NyLvjhJwHql8mVA/zwMwHP+Zri1hmP8mf65aHHGb+ym83BzyTyQ4+LlvDEo/zlbdOpOv3ocZXKMo4AAggggAACCCCAAAIIIIAAAggg0BgBGq4asyvICAIIIIAAAggggAACCCCAAAIIIIBAKkDDVarBOAIIIIAAAggggAACCCCAAAIIIIBAYwRouGrMriAjCCCAAAIIIIAAAggggAACCCCAAAKpAA1XqQbjCCCAAAIIIIAAAggggAACCCCAAAKNEaDhqjG7gowggAACCCCAAAIIIIAAAggggAACCKQCNFylGowjgAACCCCAAAIIIIAAAggggAACCDRGYGhkZKRnZoaHh3v+lv7gjadlWq1W6LdOxfGmV3c88ieBcvA6a0n2L37e8lJ3PMpfuexpjtcZP/wGKS/ecuWNR/mj/FH+qsuAzeX8yiS6Q+qXrkU65nXxxlPalL9UeGwcv7KJ5nhdvPGUJuVPCvkwG/3ocZUvA0whgAACCCCAAAIIIIAAAggggAACCDREYGh0dHTcrHjiKBFPvHa77YrnTa/ueORPotWB/TtxFy2JH37UL9VlgONjci744ScB6pfJlQP88DMBz/ma4tYZj/Jn+uWhxxm/spvNwc8k8kOPi5bwxKP85W3TqTr96HGVyjKOAAIIIIAAAggggAACCCCAAAIIINAYARquGrMryAgCCCCAAAIIIIAAAggggAACCCCAQCpAw1WqwTgCCCCAAAIIIIAAAggggAACCCCAQGMEaLhqzK4gIwgggAACCCCAAAIIIIAAAggggAACqQANV6kG4wgggAACCCCAAAIIIIAAAggggAACjRGg4aoxu4KMIIAAAggggAACCCCAAAIIIIAAAgikAjRcpRqMI4AAAggggAACCCCAAAIIIIAAAgg0RmBoZGSkZ2aGh4d7/pb+4I2nZVqtVui3TsXxpld3PPIngXLwOmtJ9i9+3vJSdzzKX7nsaY7XGT/8Bikv3nLljUf5o/xR/qrLgM3l/MokukPql65FOuZ18cZT2pS/VHhsHL+yieZ4XbzxlCblTwr5MBv96HGVLwNMIYAAAggggAACCCCAAAIIIIAAAgg0RGBodHR03Kx44igRT7x2u+2K502v7njkT6LVgf07cRctiR9+1C/VZYDjY3Iu+OEnAeqXyZUD/PAzAc/5muLWGY/yZ/rloccZv7KbzcHPJPJDj4uW8MSj/OVt06k6/ehxlcoyjgACCCCAAAIIIIAAAggggAACCCDQGAEarhqzK8gIAggggAACCCCAAAIIIIAAAggggEAqQMNVqsE4AggggAACCCCAAAIIIIAAAggggEBjBGi4asyuICMIIIAAAggggAACCCCAAAIIIIAAAqkADVepBuMIIIAAAggggAACCCCAAAIIIIAAAo0RoOGqMbuCjCCAAAIIIIAAAggggAACCCCAAAIIpAI0XKUajCOAAAIIIIAAAggggAACCCCAAAIINEaAhqvG7AoyggACCCCAAAIIIIAAAggggAACCCCQCsyZP3/+onRGOt5qjbVrtdvtdHZp3BtPC86dOzcsXLiwlEY6w5te3fHIX7oXuuNeZ/y6ZukYfqlGd9zr4o2nlKlfur42hp9J5IdeF288pU75yxtrCr+yySAu+OFnAtQvJtEdcnx0LdIxr4s3ntKm/KXCY+P4lU00x+vijac0KX9SyIfZ6De0YMGCvEIyNTIykk2Njo4mc8uj3nhact68eaHfOhXHm17d8cifBMrB66wl2b/4ectL3fEof+WypzleZ/zwG6S8eMuVNx7lj/JH+asuAzaX8yuT6A6pX7oW6ZjXxRtPaVP+UuGxcfzKJprjdfHGU5qUPynkw2z041HBfBlgCgEEEEAAAQQQQAABBBBAAAEEEECgIQI0XDVkR5ANBBBAAAEEEEAAAQQQQAABBBBAAIG8AA1XeQ+mEEAAAQQQQAABBBBAAAEEEEAAAQQaIkDDVUN2BNlAAAEEEEAAAQQQQAABBBBAAAEEEMgL0HCV92AKAQQQQAABBBBAAAEEEEAAAQQQQKAhAjRcNWRHkA0EEEAAAQQQQAABBBBAAAEEEEAAgbwADVd5D6YQQAABBBBAAAEEEEAAAQQQQAABBBoiMDQyMtIzK8PDwz1/S3/wxtMyrVYr9Fun4njTqzse+ZNAOXidtST7Fz9veak7HuWvXPY0x+uMH36DlBdvufLGo/xR/ih/1WXA5nJ+ZRLdIfVL1yId87p44yltyl8qPDaOX9lEc7wu3nhKk/InhXyYjX70uMqXAaYQQAABBBBAAAEEEEAAAQQQQAABBBoiMDQ6OjpuVjxxlIgnXrvddsXzpld3PPIn0erA/p24i5bEDz/ql+oywPExORf88JMA9cvkygF++JmA53xNceuMR/kz/fLQ44xf2c3m4GcS+aHHRUt44lH+8rbpVJ1+9LhKZRlHAAEEEEAAAQQQQAABBBBAAAEEEGiMAA1XjdkVZAQBBBBAAAEEEEAAAQQQQAABBBBAIBWg4SrVYBwBBBBAAAEEEEAAAQQQQAABBBBAoDECNFw1ZleQEQQQQAABBBBAAAEEEEAAAQQQQACBVICGq1SDcQQQQAABBBBAAAEEEEAAAQQQQACBxgjQcNWYXUFGEEAAAQQQQAABBBBAAAEEEEAAAQRSARquUg3GEUAAAQQQQAABBBBAAAEEEEAAAQQaIzA0MjLSMzPDw8M9f0t/8MbTMq1WK/Rbp+J406s7HvmTQDl4nbUk+xc/b3mpOx7lr1z2NMfrjB9+g5QXb7nyxqP8Uf4of9VlwOZyfmUS3SH1S9ciHfO6eOMpbcpfKjw2jl/ZRHO8Lt54SpPyJ4V8mI1+9LjKlwGmEEAAAQQQQAABBBBAAAEEEEAAAQQaIjA0Ojo6blY8cZSIJ1673XbF86ZXdzzyJ9HqwP6duIuWxA8/6pfqMsDxMTkX/PCTAPXL5MoBfviZgOd8TXHrjEf5M/3y0OOMX9nN5uBnEvmhx0VLeOJR/vK26VSdfvS4SmUZRwABBBBAAAEEEEAAAQQQQAABBBBojAANV43ZFWQEAQQQQAABBBBAAAEEEEAAAQQQQCAVoOEq1WAcAQQQQAABBBBAAAEEEEAAAQQQQKAxAjRcNWZXkBEEEEAAAQQQQAABBBBAAAEEEEAAgVSAhqtUg3EEEEAAAQQQQAABBBBAAAEEEEAAgcYI0HDVmF1BRhBAAAEEEEAAAQQQQAABBBBAAAEEUgEarlINxhFAAAEEEEAAAQQQQAABBBBAAAEEGiMwNDIy0jMzw8PDPX9Lf/DG0zKtViv0W6fieNOrOx75k0A5eJ21JPsXP295qTse5a9c9jTH64wffoOUF2+58saj/FH+KH/VZcDmcn5lEt0h9UvXIh3zunjjKW3KXyo8No5f2URzvC7eeEqT8ieFfJiNfvS4ypcBphBAAAEEEEAAAQQQQAABBBBAAAEEGiIwNDo6Om5WPHGUiCdeu912xfOmV3c88ifR6sD+nbiLlsQPP+qX6jLA8TE5F/zwkwD1y+TKAX74mYDnfE1x64xH+TP98tDjjF/ZzebgZxL5ocdFS3jiUf7ytulUnX70uEplGUcAAQQQQAABBBBAAAEEEEAAAQQQaIwADVeN2RVkBAEEEEAAAQQQQAABBBBAAAEEEEAgFaDhKtVgHAEEEEAAAQQQQAABBBBAAAEEEECgMQI0XDVmV5ARBBBAAAEEEEAAAQQQQAABBBBAAIFUgIarVINxBBBAAAEEEEAAAQQQQAABBBBAAIHGCNBw1ZhdQUYQQAABBBBAAAEEEEAAAQQQQAABBFIBGq5SDcYRQAABBBBAAAEEEEAAAQQQQAABBBojQMNVY3YFGUEAAQQQQAABBBBAAAEEEEAAAQQQSAXmzJ8/f1E6Ix1vtcbatdrtdjq7NO6NpwXnzp0bFi5cWEojneFNr+545C/dC91xrzN+XbN0DL9UozvudfHGU8rUL11fG8PPJPJDr4s3nlKn/OWNNYVf2WQQF/zwMwHqF5PoDjk+uhbpmNfFG09pU/5S4bFx/MommuN18cZTmpQ/KeTDbPQbWrBgQV4hmRoZGcmmRkdHk7nlUW88LTlv3rzQb52K402v7njkTwLl4HXWkuxf/Lzlpe54lL9y2dMcrzN++A1SXrzlyhuP8kf5o/xVlwGby/mVSXSH1C9di3TM6+KNp7Qpf6nw2Dh+ZRPN8bp44ylNyp8U8mE2+vGoYL4MMIUAAggggAACCCCAAAIIIIAAAggg0BABGq4asiPIBgIIIIAAAggggAACCCCAAAIIIIBAXoCGq7wHUwgggAACCCCAAAIIIIAAAggggAACDRGg4aohO4JsIIAAAggggAACCCCAAAIIIIAAAgjkBWi4ynswhQACCCCAAAIIIIAAAggggAACCCDQEAEarhqyI8gGAggggAACCCCAAAIIIIAAAggggEBegIarvAdTCCCAAAIIIIAAAggggAACCCCAAAINERgaGRnpmZXh4eGev6U/eONpmVarFfqtU3G86dUdj/xJoBy8zlqS/Yuft7zUHY/yVy57muN1xg+/QcqLt1x541H+KH+Uv+oyYHM5vzKJ7pD6pWuRjnldvPGUNuUvFR4bx69sojleF288pUn5k0I+zEY/elzlywBTCCCAAAIIIIAAAggggAACCCCAAAINERgaHR0dNyueOErEE6/dbrviedOrOx75k2h1YP9O3EVL4ocf9Ut1GeD4mJwLfvhJgPplcuUAP/xMwHO+prh1xqP8mX556HHGr+xmc/AzifzQ46IlPPEof3nbdKpOP3pcpbKMI4AAAggggAACCCCAAAIIIIAAAgg0RoCGq8bsCjKCAAIIIIAAAggggAACCCCAAAIIIJAK0HCVajCOAAIIIIAAAggggAACCCCAAAIIINAYARquGrMryAgCCCCAAAIIIIAAAggggAACCCCAQCpAw1WqwTgCCCCAAAIIIIAAAggggAACCCCAQGMEaLhqzK4gIwgggAACCCCAAAIIIIAAAggggAACqQANV6kG4wgggAACCCCAAAIIIIAAAggggAACjREYGhkZ6ZmZ4eHhnr+lP3jjaZlWqxX6rVNxvOnVHY/8SaAcvM5akv2Ln7e81B2P8lcue5rjdcYPv0HKi7dceeNR/ih/lL/qMmBzOb8yie6Q+qVrkY55XbzxlDblLxUeG8evbKI5XhdvPKVJ+ZNCPsxGP3pc5csAUwgggAACCCCAAAIIIIAAAggggAACDREYGh0dHTcrnjhKxBOv3W674nnTqzse+ZNodWD/TtxFS+KHH/VLdRng+JicC374SYD6ZXLlAD/8TMBzvqa4dcaj/Jl+eehxxq/sZnPwM4n80OOiJTzxKH9523SqTj96XKWyjCOAAAIIIIAAAggggAACCCCAAAIINEaAhqvG7AoyggACCCCAAAIIIIAAAggggAACCCCQCtBwlWowjgACCCCAAAIIIIAAAggggAACCCDQGAEarhqzK8gIAggggAACCCCAAAIIIIAAAggggEAqQMNVqsE4AggggAACCCCAAAIIIIAAAggggEBjBGi4asyuICMIIIAAAggggAACCCCAAAIIIIAAAqkADVepBuMIIIAAAggggAACCCCAAAIIIIAAAo0RGBoZGemZmeHh4Z6/pT9442mZVqsV+q1Tcbzp1R2P/EmgHLzOWpL9i5+3vNQdj/JXLnua43XGD7+q8vLud787vOIVr8hwfvKTn4QjjzwyG/eWK288Jbqk/P046KCDwrbbbJs5nfKVU8KXv/zlbFz//fSnPw1z5szJpl/1qleFe++9t/Nb1chs9KtyKM7zunjjKf0lpfwVraqmvS7eePhVKfP3t1rF70L5qxb0unjjcfxOzhm/R89vqHpVzEUAAQQQQACBXgKPf/zjw6677pr9/Le//S2cfvrpvaLO6PkrrbRSp/FT20wYX2C55ZYLc1pjjVPLL798boH0xp0aSpoWNtlkk7DllltmjThXXXVVuOiii5qWRfKDAAIIIIAAArNQYGh0dHTczfbEUSKeeO122xXPm17d8cifRKsD+3fiLloSP/yoX6rLwEw8PtZZZ53w6le/Otug+++/P3z1q18NS+L+1TZZqNo+T702E/evbXM6rNr+9HcbT80eeeSRnnX/Qw891PM3S8uGHmdv/pRmr/S22267oH8KT3nKU8L555+fjY/3X6/00uXqyF+ansY96/XGI39F3e60xxm/rldxDL+iyNi0x0UxPfEof9XG+E3OBb9m+dHjqvf+4BcEEEAAAQRmtcC5554bHn744czgZz/72ay2qGPjzzrrrOx1CYsWLXJdjNWxTtJAAAEEEEAAAQRmugANVzN9D5J/BBBAAAEEpkjg4osvDvpHqEfg8MMPzxJKHxmsJ2VSQQABBBBAAAEEllwBGq6W3H3LliGAAAIIOAWe/vSnh2c+85lh7bXXDgsXLgxXX311uOaaazq9jSwZvZdomWWWCcsuu6zNyoZ6r5Hm6Xc9slAVVltttfDiF784W/4Xv/hFuPHGG6ui9Z23+uqrh8033zzMmzcvW/6KK64Id9xxR99lpupHvfh1aGjsNOKBBx7orEZ51HYuvfTSQe9JuuGGGzq/jTeiZTfeeOPMXf5///vf+y5i+0ORHnzwwcxe+dL6119//XDllVcGGVWFye4P7fNNN900qPeU1qP11xkGzZ/2hfKkMOj+0LJqTNM+s9ArPftdx8xGG20U1lprrXDnnXd2jpl03RaXIQIIIIAAAgggMBkBGq4mo8eyCCCAAAIzWkCNJOoFs+qqq1Zux7XXXhve9a53dR7r2nnnncO+++6bi6sXcF944YXZvKOPPjp8+9vfzv2+3377hTe84Q2dRh79qDT0jqM//vGPWfr33HNPbhlNKE01Hug9SVtssUU47rjjsoaCYsR//etfYe+99w4333xz8adJTx966KFh++23z9LRo4Lvfe97O2meccYZYeWVV86mX/e614VnP/vZ4YADDih9OVj5/9KXvpT96yxcGNlzzz2zl90Xv4KkF9+/733vCx/4wAeyRkUtpq/xaZsV9NXD17/+9dn4d77zneyrfUcffUxswBlrWHzGM55Raria6P7IVhL/23bbbYO+HLjCCivYrGx41113hdNOOy03rzhx+WWXd17cvvXWW3fKVRpvovn7whe+EFZcccUsqUH3x+c///lS2XrWs57VKdfKq5XR8Y6Z3/3ud1n5rrshLzViHAEEEEAAAQRml0DzPmkzu/zZWgQQQACBaRLQBfjxXzi+Z6OVsqVeWN/73veCer8oLLXUUtmw13/p74997GPDN77xjaDGLjVAFYMaaSz9NdZYo/hzWKo1ti6leeaZZ5YaFmwBNR5985vfzBq3bF5dQ/Uus5D2xtG8dFvVkHPIIYeUGq0s3tvf/vbOVxgtPQ3lcsIJJ4Q99tij8/XC9PcnPvGJ4eSTTw5rrrlmFlfx08at9Mt86623Xjj2c8d2Gq3SdDQ+2f2hNHbffffwkY98pNRopd8e97jHZQ02L3zhCzVZGexrg/oxzbumJ5u/OXPGvmSotAbdH+m+1PLFYHnVVwfHO2Y23HDDcM4553SOmWJaTCOAAAIIIIAAAoMKlM+kB02B+AgggAACCMxAgaOOOqrT++WBB/4dLr30kvjv0qAeVGp82GyzzbKt0rQaK9SrSY+dqZFJj+qp0UlBPYr09TX1wNGjcRaOPfbYrMHFpm+55dZw+eWXZY+W6eJ+3aevm61f6X/9618Pr3zlKzs9iWwZG1rD2d133x0uu+yy8O9//zu84AUvCHq0TkEND+o5ttVWW5Ueb7Q0pnJoVrL4+c9/Hm6//fag3k5mpHXvtdde4dRTT809SqkeXHrczIJeBP+nP/0p3HrrrdnyariqavSz+OlQ60uDvvZ40003dWZNdn+86EUvyrbBElzUXhSuu/66LL9PfepTw8YbbZztz7RhzeJ6hpPNX7qOQfeHequpx95znvOcsMoqq2RJqYfVJZdckpXX++67L5t3zDHH5I4ZlefLL788e8Sw1zGT5otxBBBAAAEEEEBgIgI0XE1EjWUQQAABBGa0gBqe0ke99tnnneG6667rbJMeg9tpp52yx/g0U49NKVx//fXhsMMOy96hpMcCFfRIlOYpzQULFmTz1HCw7rrrZuP676STTgonnnhip0eSPu+95ZZbhqOOHGs8U8OTevN84hOf6CxTHFGjmh6NS8M+++wTdvn/7J0HnCVFtYdrh5khiQtLEBBWUCRLUCSIIBkJgmSQpIiKgoBPsuQkBkRJivjIBkRARAGRLIgkiYI88pIzS1hhFoZ3/j333Fu3b987NTM9M3d3vvP73enq6tNV1V9V93Sdrjq1005ZlEZE7bXXXuH444+PVUYsrGl9Mu49//zz1Tw1kkrTACW6Rhnb5N9LomltG2+8cRbWH/mz0jTAWOI6iONbhTVd77TTTssMLr6Mehn1seOOO1azfeedd7LrevDBB6tx8vX0q1/9b9MRX1XFgkAZ5csnO5D6+Mtf/hL0UzveYIMNsqQefvjhbN/TlcE2f89IRyLOze4ZP58tBCAAAQhAAAIQGCwBpgoOlhznQQACEIDANEsgHgmkkTMa5ZMXTb/TCCeNxpJxKnXkj9I59NBDq8nJT5aMVnmRD6uLLr6oGi3fSc1Eo4di/1Kup3Rj5+cbbbSRHxrRrUZKaUpkbLRSAc4555wgvi4LLrigB7PpbD5FTYYP+bHKi6ZaNnOuntfVvnxpnXjiiZnRKj4+1PqQwU1TAV0OOOCAEFLTKhsAAEAASURBVButFK96+P73j3WVAW2HWr58ZoOpj3wa+f3hvmfy+bEPAQhAAAIQgAAEnECnvhA3E/dp0GyFJD8vVU/648ePz75K+7lF29T0ytajfEW1UfPD0V87gB/8RKDs+zI1Pdof7W8g7S9eiU9+hy699NIg59Z33nlnHUhNb5Po+adpay6xM/dx4zqy/2v+/01t1p2WS1/GF/9fm2/PMspsscUWWbKaMqiRN88++2z1PvL85Bh9vvnm893qVun97W9/y1Z2U+QsM89SzauqVAl4+fLx8X6+fCqTi1asi6/DdXVcq+rF1+znSOf1N17P/vcrTr6qPA1Nl3TRKCz5aPJjHq+tfFyJi4s4+HQ8+YVykfHrr3/9a5aGl031pnBctsHUh0Z+ucgJ+1NPPVVYVjnbf+ONN8Jss82Wqat8Rdekg7oOHS+jfEov9nE1mPpQGvGIKvk3i8uu63bxe0Yj23TPxO8HPsJOuvE9M5j25/nlt3H95o/F+6l6OofyxeT6wvBrZKKYVC6pekqT9icK9QK/eh6+l8olVU/p0v6cbm0LvxqLOJTKJVVPaae2v06f1hAXyMNaGlniQ+09Pr9N1dN5eglqlad0UtMrW4/yiUCjpHLWmdQv/FLbS9l6tL/GtqeYVM5jjZ+mpclvj3fUNZrmoIMOyv7faSSNDEWXX355dSW1/P9BTZtyef/93uz/mj//NGUslpVXXjmsuOKKWZSPMJIvqCKZeeaZs7S83lxHhoii/53Su+aaa7IpetKVQUHT2PIjn3TMy6dwM/F8/Xo10stlypQp1TJILzZW3HfffdVjrq+t9GQk1EuJROn5dcw2W83oJMPh5MmTq8cy5cof6WsEkY94k2FPP4mvdKew/GI98cQTCta1+zLqY8KECVm6+nP33XcXllPHdL3yq+VGOZXPr1fHY9E1aERfGeVTuu+/XxvZNpj6UBruy0phjTKMy65w/p7RyDO1lfie8RUflUYsg2l/8flxON9O42NxOFVP51C+mFxfGH6NTBSTyiVVT2nS/kShXuBXz8P3Urmk6ild2p/TrW3hV2MRh1K5pOop7dT21xkXhDAEIAABCEBgrBDYeeeds6ls8agi/aOV0UG/PfbYIzMs/OEPf8imoMWGmlaM3GjhOrEfJ49rto1HEMU68q3VTGQA0XQ8X7FOhpAiw1Wz88uIlzP2gcrM0YqFcgwejxjKpyVjnBuu8sd8X0agIimjPtxhudKPjTlF+ak+8nkW6XlcXreM9jKY+vDytNp+6UtfykYQtrpnNDJL/q7OOuusOuNmq3Q5BgEIQAACEIAABFoRwMdVKzocgwAEIACB6ZbACy+8ENZbb71w6qmnBjmyLhI5EJeDca34lirx6JzUc1wvHjXjcdpqalor6bVRXy4y8oy0aHTOQERGKDe06TytkthKfGpgK51mx8qoD02bc2lWR358oNsyypfPc6D1kT+/2b4Mov3dMxq9qCm2A7lnmuVHPAQgAAEIQAACEBABRlzRDiAAAQhAYMwS0BS0s88+O/vJOLLaaquFddddN6ywwgqZ/yEH86lPfSqLlz+p/sRXWpOeRkKtvMrK1VMGMnS6epIFNIoq7wzcj2t6oU9BVFzsv8t12m0r7vH0vwUWWCC88sorhcXUKDTnVqjQT2QZ9aHRXB/60IeynOacc86WORb5Imt1Qhnla5V+2cfie0Yjrz772c+GNdZYY0j3TNllJD0IQAACEIAABKYvAhiupq/65GogAAEIQCCBwNJLLx3kp0qd8BtuuCGbEjh16tTMX5R8Rkmk84tf/KLqCFxGrRTDlfwLuWhU0bzzzhvkU6uZaDVBGWY0FfHPf/5zodonP/nJpoYrHXPR9cjH0rQgcmLuK/UtscQS4aabbiostoyIQ5Ey6kP+s9xwteSSS7YsTrxyYkvFysEyypeSz1B1NKVx4YUXzpKJ7xmtjimn+BLdM1rkwA2NqfdMdjJ/IAABCEAAAhCAQBMCGK6agCEaAhCAAASmXwLf+c53wqKLLppdoIwmP/jBDxouVgaFv//972GttdbKjsUrCTYoRxEaOSTn6z4KarfddguHH354pFELbrrppplTeMXonCuuuCIzptU0+kJrr7125lsoH6/9b37zm9XoacVopQJrqqYbruQ7qZnhKr6+6oUOIFBGfTz00EPBDYRaGVFGrCI/YtLR9NKBSBnlG0h+g9Xdd999w2KLLZad3uqekVFrnXXWyfRS75nBlonzIAABCEAAAhAYGwTwcTU26pmrhAAEIACBiMC///3v6p462c0cf6uD7nL//fd7sM7p9IwzzthwvkahuMgnkBvJPE5bGT/23vs71SilrxFTRaLRLjLu5GWLLbYIH/nIR6rRMhpMK3LeeedViyoDxw477FDd98AxxxyTrTbj+4PdDrU+zjjjjGzap+d/4oknVkfiedxss83W1EDpOs22Qy1fs3QHGh/778pPibz33nurybW6Z+IRafE9Uz2ZAAQgAAEIQAACEBggAUZcDRAY6hCAAAQgMO0T+OMf/xg222yz7ELkQ+myyy4LJ5xwQrjnnnsyg4T8XG244YYh9lf0l7/8pXrh8fQuGb3OPPPM8Nhjj4XTTz89aIW8o446Kqy++urZlCmNvDrn7HPCRRdfFG677bZsZJV8Zm211VbVUVnyhXX00UdX0y8K7PntPTNfQjJOyZn5mmuuGT796U9XVSdPnpytfliNaPPAlVdeGb7yla8EjWCSaPTZ8ssvH/71r39l0ytlrItXrxvK5Qy1PuTj6sq/XRnWX3/9rBiaZvqnS/6U1anazFJLLZUZ3gZb3qGWbyhs4nNlnFK7l8ggetxxx2ULF2gBg4suuihsueWW2TG/Z0466aTgBi2/Z+aff/5MR3/ie6YaSQACEIAABCAAAQgMkECn+yEoOi91FZ9UPeXR0dFR9X1QlKfiUtMrW095Uz5RqJdUzjoLfvXstAe/RiYD4QI/+DmBMp8vMi7Jl5VPAxw/fnzL0TIXX3xxZpDy/5lTpkwJr7/+etWBu0ZU6ScH6hdccEE2IkujhQ499NDMOCVfVxodpV+R/OSEn2QGAk8/3+5l2FIayy67bPbLp6FphlrJrRWjVsc8vXy+OsclPj+vJ+Odl931tZXeuHHjqlEy4sV6BxxwQPjVr35V5Thx4sSGEVYyGmk0k0+9jPPyOGUQp50vn/yHDaU+lP4555wTlllmmaoxc8KcE7IVJ3UslrfeeqtqcIvLFOsorDI6izLKF6cfM4rj+6uP6667Luy///7VU2Qclfz2t7/N2v9VV11VnQaoe+bggw+u6uYD+Xsmbj95Xd/P15vH57dl6yl9ypenzPtLI5G+GNpfMZmyuaSmp9Jw/zbWCfwamSgmlUuqntKk/YlCvQwHv9obaX1e7EEAAhCAAASmawLHHnts1al0swvV1L1zzz03/OQnP2lQOfnkk8OUKf9tiPcIGcY0ve/FF1/0qIatplJtu+22QSPAWsm39/x2ePPNNwtVXnrppbDHHnsEORAvW2QQc5FxJZb4WLMpjtKP9eQAP5Znn302fOELX8hG5uSPvfPOO0FTOrfZZpsQT2GTwdAlTrtVGaQ/1PpQ+ipLPK3Py+FbjdyTgcslf00er218Tdofavni+mnFImaWL5/amAxOMpQWiUaGuSP2ouOKU95nnXVW4T3T7BziIQABCEAAAhCAQCsC4z7+8Y8Xv53YWf4lsKenp1UayXpKRF9TJ02aVEp6lK8YY9lcUtOjfodWH/CDnwik3m9l643l9idfPvLZs+KKKwaNIpHB5IknnggPP/xwZqTQCJpm/wf1le0zn/lMmGmmmbKRRVdffXWd/ytv1XJqvfLKK2dT4dSx1/9BrVD4wAMPuErdVvV7w/U3ZKOsdEAjw1QO+cXaYIMNsqlpcsR+9913h1tvvbVp+eJEp4X/vy+//HKw95IgZ+i6Xom+2t14441ZWAaV1T+3er/X29/9MdD6UOYxP9XDGmuskU3VlHN1le/mm2+uji5r1l6yi7A/w10+zye/7S9f158wYUJ2P7z99ttB7Uy/WPyeWWWVVbLRcpq66veMDFted/E5Mb84Pg6nlq9sPZWB8sU10RdO5Qy/RnaKgd/QuMAPfk6A57OTqG3H4v2Bj6ta/ROCAAQgAIExSEDGkvPPPz/75S/fXwzy8b6vUS5uVNGLVTzqxXW01RRC/TTlStKfYSNTKvijlew0msWlWfm0sl3+mIwNMkS0Eh/arZE4WvVvOEWGwlVXXTXL4q677gqPPPJIZvBQOBYZR1ym/HeKB4e0HWp9qB6K2kye+WALOdTyDTZfP08jrzQCrFk79XtGo7MkzfQ8PbYQgAAEIAABCEBgKAQwXA2FHudCAAIQgAAE2pCApqzF/p8GU0Q54pYvsOESjUDTNEmJ8tpxxx0bspplllnCIYccUo2/4447qmECEIAABCAAAQhAAAJjgwCGq7FRz1wlBCAAAQiMIQLPPvucOQifpe6KZciK/RvVHazsuCN1+V+SA/rhlD/96U9h++23z7KQM/Hjjz8+cwyuKZpzzDFHWG211TLn51rBTqJpgvFosyySPxCAAAQgAAEIQAAC0z0BDFfTfRVzgRCAAAQgMNYIbLHF5g2XXKaPiIbEBxEhv0m33HJLWGmllbKz559//swRflFSMlrts+8+me+rouPEQQACEIAABCAAAQhMvwRYVXD6rVuuDAIQgAAEINDWBPbcc89w/fXXN13FToWXM/v99t+v6kusrS+IwkEAAhCAAAQgAAEIlE6AEVelIyVBCEAAAhCAwNAJHHzIwdmKeprep1XbplfZb7/9spXpdtttt6DV7Oabb77w2muvhdtuuy0zVuVXtJteOXBdEIAABCAAAQhAAALFBDBcFXMhFgIQgAAEIDCqBG644YYxs1rb66+/Hn73u9+FSZMmjSpzMocABCAAAQhAAAIQaD8Cna2WbvZlsfsrdqqe0uno6GhYojuffmp6ZeuNRvnkCFedEwQCEIAABCAAAQhAAAIQgAAExiYB+XNc/XOrt7z46aH/qwtMvQ7pYj8QhXoZi/zwcVXfBtiDAAQgAAEIQAACEIAABCAAAQhAAAIQaBMCnT09Pf0WJUVHiaTo9fb2Jumlple23kiXz5ce13X4ykoKN5MyV4Xy0Xb91VuqnspM+RprDn6NTBSTyiVVT2nS/kShXlL46UvWzTffnJ3Y33MoJT0lVLae0qR+RaFeUjnrLPjVs9Me/BqZDITLWOOnVTAlI/2cVJ7cv6JQL2Ot/aVeb9l6ok77q2972kvlLN3++Kk/+M9//lOqo9JPHun+b3ahlT/99UOlRvliYvXhscSPEVf1dc8eBCAAAQhAAAIQgAAEIAABCEAAAhCAQJsQwHDVJhVBMSAAAQhAAAIQgAAEIAABCEAAAhCAAATqCWC4qufBHgQgAAEIQAACEIAABCAAAQhAAAIQgECbEMBw1SYVQTEgAAEIQAACEIAABCAAAQhAAAIQgAAE6glguKrnwR4EIAABCEAAAhCAAAQgAAEIQAACEIBAmxDAcNUmFUExIAABCEAAAhCAAAQgAAEIQAACEIAABOoJYLiq58EeBCAAAQhAAAIQgAAEIAABCEAAAhCAQJsQ6Ozu7m5alK6urqbH4gOpejqno6MjtMpTOqnpla03GuUbN26css2kPy5Sgl8fq/hvajuAX0ytFoZfjUUcSuWSqqe02/X+Vblc+nsOpV5v2XrtzM/ZtWv9Uj4n0LhNbac6k/qFnxMY6eck7c/J12+5f+t5+F4ql1Q9pcvzz+nWtmXyG0h/MDXfVD3qt1ancQh+MY1aOJVLqp5STn2+1HortfIQggAEIAABCEAAAhCAAAQgAAEIQAACEIDAqBPo7Onp6bcQKTpKJEWvt7c3SS81vbL1Rrp8sYUdfqrNRknhorNS9Ea6fuOroXwxjVo4hYu0U/So3xrXfKgVP33pcGml5zrajoYe9RvXQH04pT7gV88s3oNfTKMWTuEi7RQ92l+Naz4EvzyRvv0ULtJM0aP9FTOG39C4lMVvoP3B1HxT9bg/htYO4Dcy/Gq9leb5cQQCEIAABCAAAQhAAAIQgAAEIAABCEAAAiNOAMPViCMnQwhAAAIQgAAEIAABCEAAAhCAAAQgAIEUAhiuUiihAwEIQAACEIAABCAAAQhAAAIQgAAEIDDiBDBcjThyMoQABCAAAQhAAAIQgAAEIAABCEAAAhBIIYDhKoUSOhCAAAQgAAEIQAACEIAABCAAAQhAAAIjTgDD1YgjJ0MIQAACEIAABCAAAQhAAAIQgAAEIACBFAIYrlIooQMBCEAAAhCAAAQgAAEIQAACEIAABCAw4gQwXI04cjKEAAQgAAEIQAACEIAABCAAAQhAAAIQSCHQOXHixKZ6HR19dq3e3t6mOjqQqifd8ePHh1Z5DiS91HxT9UajfOPGjVO2mfTHRUrw62MV/23n+lU5KV9cW7VwKpdUPaXM/VHj66EUfq6jc/p7DrluWf8XUtNT2ahfUagX+NXz8L1ULql6Spf253Rr27HGz698pJ+Typf25/Rr27HW/lKvt2w92l+tzcWhVM4p/AbSH0zNN1UvpXzSSU2vbD3KJwKNkspZZ04v/z86J02a1EiiEtPd3Z2Fenp6muroQKqedPXPvlWeA0kvNd9UvdEoX/yg6o/LaJRvIPVB+USgUdq5/am0lK+xzgbCZXrg5//8dN39PYdSr7dsPZWN/x+iUC+pnHUW/OrZaQ9+jUwGwmWs8XNaI/2cVL7cv06/th1r7S/1esvWo/3V2lwcSuWcwm8g/cHUfFP1UsonndT0ytajfCLQKKmcdeb08v+DqYKN7YAYCEAAAhCAAAQgAAEIQAACEIAABCAAgTYggOGqDSqBIkAAAhCAAAQgAAEIQAACEIAABCAAAQg0EsBw1ciEGAhAAAIQgAAEIAABCEAAAhCAAAQgAIE2IIDhqg0qgSJAAAIQgAAEIAABCEAAAhCAAAQgAAEINBLAcNXIhBgIQAACEIAABCAAAQhAAAIQgAAEIACBNiCA4aoNKoEiQAACEIAABCAAAQhAAAIQgAAEIAABCDQSwHDVyIQYCEAAAhCAAAQgAAEIQAACEIAABCAAgTYg0Nnd3d20GF1dXU2PxQdS9XROR0dHaJWndFLTK1tvNMo3btw4ZZtJf1ykBL8+VvHf1HYAv5haLQy/Gos4lMolVU9pt+v9q3K59PccSr3esvXamZ+za9f6pXxOoHGb2k51JvULPycw0s9J2p+Tr99y/9bz8L1ULql6Spfnn9OtbcvkN5D+YGq+qXrUb61O4xD8Yhq1cCqXVD2lnPp8qfVWauUhBAEIQAACEIAABCAAAQhAAAIQgAAEIACBUSfQ2dPT028hUnSUSIpeb29vkl5qemXrjXT5Ygs7/FSbjZLCRWel6I10/cZXQ/liGrVwChdpp+hRvzWu+VArfvrS4dJKz3W0HQ096jeugfpwSn3Ar55ZvAe/mEYtnMJF2il6tL8a13wIfnkiffspXKSZokf7K2YMv6FxKYvfQPuDqfmm6nF/DK0dwG9k+NV6K83z4wgEIAABCEAAAhCAAAQgAAEIQAACEIAABEacAIarEUdOhhCAAAQgAAEIQAACEIAABCAAAQhAAAIpBDBcpVBCBwIQgAAEIAABCEAAAhCAAAQgAAEIQGDECWC4GnHkZAgBCEAAAhCAAAQgAAEIQAACEIAABCCQQgDDVQoldCAAAQhAAAIQgAAEIAABCEAAAhCAAARGnACGqxFHToYQgAAEIAABCEAAAhCAAAQgAAEIQAACKQQwXKVQQgcCEIAABCAAAQhAAAIQgAAEIAABCEBgxAl0dnd3N820q6ur6bH4QKqezuno6Ait8pROanpl641G+caNG6dsM+mPi5Tg18cq/pvaDuAXU6uF4VdjEYdSuaTqKe12vX9VLpf+nkOp11u2Xjvzc3btWr+Uzwk0blPbqc6kfuHnBEb6OUn7c/L1W+7feh6+l8olVU/p8vxzurVtmfwG0h9MzTdVj/qt1Wkcgl9MoxZO5ZKqp5RTny+13kqtPIQgAAEIQAACEIAABCAAAQhAAAIQgAAEIDDqBDp7enr6LUSKjhJJ0evt7U3SS02vbL2RLl9sYYefarNRUrjorBS9ka7f+GooX0yjFk7hIu0UPeq3xjUfasVPXzpcWum5jrajoUf9xjVQH06pD/jVM4v34BfTqIVTuEg7RY/2V+OaD8EvT6RvP4WLNFP0aH/FjOE3NC5l8RtofzA131Q97o+htQP4jQy/Wm+leX4cgQAEIAABCEAAAhCAAAQgAAEIQAACEIDAiBPAcDXiyMkQAhCAAAQgAAEIQAACEIAABCAAAQhAIIUAhqsUSuhAAAIQgAAEIAABCEAAAhCAAAQgAAEIjDgBDFcjjpwMIQABCEAAAhCAAAQgAAEIQAACEIAABFIIYLhKoYQOBCAAAQhAAAIQgAAEIAABCEAAAhCAwIgTwHA14sjJEAIQgAAEIAABCEAAAhCAAAQgAAEIQCCFAIarFEroQAACEIAABCAAAQhAAAIQgAAEIAABCIw4gc7u7u6mmXZ1dTU9Fh9I1dM5HR0doVWe0klNr2y90SjfuHHjlG0m/XGREvz6WMV/U9sB/GJqtTD8aiziUCqXVD2l3a73r8rl0t9zKPV6Y72ZZpghfHSmmbIsHv3vf8Pbvb2eXb/P+xU++MHQYc/JR6dMaVt+fjHtWr+Uzwk0buN22ni0Pob6reehvbHGzwkMx3PS0262pf01khlr7S/1esvWE3na3/C2v4H0B6nfxrpQTNlcUtNT3twfolAvw8Gvsz4L9kRgzTXXzBrgQw89FCZNmjSsUN5///2w1lprDWseA0188803DzNYR/O2224Ljz/+eHb6Rz7ykaDfe++9F6677rqBJtm2+uPHjw8rrLBCVr5bb701vPHGG0llnWOOOcLnP//5TPeSSy4JU6xTjUBgOAnIeCPptWdG2dJrhqTVVlstzD///GUnnaW3zAc+EE77+Mez8M7/+U+45803k/M5fdFFM92jn3gi3Jx8FooQgAAEyifQbu9r5V8hKUIAAqNBYLj6gx+0j3/LLbdcdkkD6eeMBgPyhEB/BDp7enr60wkpOkrE9To7++xh7777bkPa6iC5XsPBXMRo6M0444zhpJNOykpyxRVXhD333DNXqtruaJRvJPgdeeSR2UWee+654aijjsrC++yzT/jsZz+bhRetdCRrJGqh4S6fDGr6KqF89IslpT7y5Vt77bWDX+/ee+8dLrvssmqSrdL71Kc+Fb73ve9luvfcc0+48847q+c1C7RKz8/Jl8/ji7Yp6em8MvUoX1FN9MWlcB4sv7XnnDOcuNhiWUYbWFubZKOWXFLylW6K3mDL52Up2irfqVOnVg/1TH23sCz9le9dM5r32v3fn55nNBp6w8XPr6nVNuV6KV9zgvArZpPCRWem6NH+ihnDb2hc4Ac/ERjrz5dm/SMZ2w877LCskeT7OXF/fazza34X8f+tGZuU//s6N0Uvtf3V5oc0K9UA47/xjW+E+++/P/u5hXeASaAOgaYEZCBS+4oNTE2VOQCB6YTADNGU4tIf2iPA6Om33w7nPvts9nu+550RyJEsIAABCEAAAhCAwNggMND+Ef31sdEuprerLH2qoCy+LnHY49p9K6vgP//5z2xUz/Q0JW6o3K+55pps7nA8cmKoaQ7mfJ8DrrnEZci///3vcMstt2RJPfzww2UkSRoQgECOwFNmuDruscdysexCAAIQgAAEIAABCAyVQLP+kT72F/Vz4j56HB5qOTgfAsNJoHTD1XAWdiTSlg+nnXbaaSSymqby+P3vfx/OO++8aarMKYW99957w4477piiig4ESiUwhy1+sck884RFZ5klTLDp1Q+Zn7QH7fcP8//0lj2HJN1moF3XpgmuaL7YXNaz/affeSfcarqToyl4Or7UbLOFT5g/qSVmnTW8Zsf+MXlyeMB0366k52nMbB8YPmV+DyT/ev31MNX8ZskP1WaWT7dNBf6X+Xq7/pVXwrN2bhnyQbtWpS+5y9J+MzeNvNNGlC1mZV/eyjSXsbjbGNxu5cpfXxllIQ0IQGDgBOa0hXw+ZK4U5IflgQH4qBt4Tu15xrx27R+ZeeZsuvLdkS/MJe25JXnu7XfCK1P7d73RnlfXWCpd66z2LH7bns368JAqH7f/PRPsef+CfQR+DN+fqdjQg8CwEdAHevo5w4aXhEeYQJLhaoEFFsh8PX3cnOvOZv+knzAnuerwn3POOeEV69xIZrHO17e+9a2w6qqrVi9BBiA5/P3d734XnnvuuWq8Auuuu252bIkllgiTrXN11VVXBfmUeu211+r0tLPNNttkKxHKWfj//d//hc985jNhiy22CDpX+3/5y1/CX//614bzBhMhi/X222+fOWf/17/+FXTDS1ZZZZWw0korhRdffDFccMEF4WMf+1jYYIMNsjjNy1TZLr744vBYk1EFmkcs/TXWWCNjePXVV4dLL700c+q9zjrrZKOZNNLr+eefz/LbZJNNwkc/+tHwwAMPZNem69VP/L/whS9kOv5n3nnnzeJUPjkbV92IpZzwNRP58lIdfO5znwsTJkzIdOVkPF9Pfv7SSy8dllpqqcw5+29+8xuPrm5V/yqX0pzTOtYavaQ6ueGGGxrmtmq01De/+c3sBVgM1J50rsoirjr373//ezYdUGwl8kX1iU98orpixFxzzRU0V1vO8//85z9XyzHQwIc+9KGw3nrrZaddfvnl4aWXXqpLQvmoflZfffWsvNdee23Gtk6JHQgMkMCmZrA60tq6DDYuq5vDf8mr5gPqGw/9X/i3vfiPt+fGDytOzV1vr4kTs+AuDz4Y7qwYrmYxQ9QPzeC0ZiUN1931wx8O71pHc0+7p663Z5fLROuUnGbPT8mhjz4aDlpooTCT3ZeZ2DNmI2v3hyy8cDjIzrvkhRf64ofwV4Y0z2+7e+8L97zxejW12a2Tc4b571q4supg9YAFfmDPBgQCEBh9AjvPN1/4qj1PJEv94x+jX6ARLsEX7Zn97QUXzFZEXcXeDSX6sHCBvZdITnryyfAL+42WxNPJyyiDfCouYu919771VtjJ3kNT5Uh7b13G/odcbX2DPW0hDgQC7UZAfaaNN94469fNZO8dj9o70AknnBDkl3mHHXbIiqsP9a/bxzOtHrrbbrtlfUK9/999990Nl/PFL34xW9hG/T/1o/KivtMuu+wSFl988awPo36k+q6nnXZaQ59rOPpH6uesYX1Pifo5Wkzq61//ekN/Xf35s88+O+h6JM2uR8fUZ1N/TX20n//853V+THUcgcBwEejXcPXd7343fPnLX86mznkhJlrHSQapXXfdNTNAaAjifPZSI8NVLDLUSOLGL8PKlVdeGRayjlIsMgwcccQR2e8Pf/hDfKjqIFzGjGWXXTZohQQXGXe0utvtt98evvKVr4R3hjhCQA8xd2IXO2fXteqalf7M1unbb7/9vAjZVs66NV945513zqYaxge1UtdFF14UJsw5oRqth4gcn8v45yO8TjzxxHDyySdnOkp/HntR0gN1s802q648qK+dseghe8ghh9TVjxgp/qmnnsoeQHr4xqLyyGAkI5iLrk11fdFFF3lU3XaPPfaoOmfPG66Un65DXFz0oN50000zXtttt1247777/FAQYxmuJDpH7UT/SFwWsxemjTbaKPtCoHMlyl9punzARm+ovb366qtDMlxpBUnxk7z88st1vrNkLDvllFOyf1ierwxzxxxzTGmGUk+X7dghsIS13WMXWSS7YBmVbjJj/aPmbH1xM+6sYs/HObo6w2/MqPRZM4a/bS8Fd9j9O1/3jGH+mWbMznlYI63sBevVyqilGa3zdNnynwxzd3dlx1/smRruMMPQR+w+k8FIxrFTzfh1sOldXDGMx7TV0ZAor7vNWLZgGFfNS+V8zfLR6KvhEH3Rv2jJpbJr9jJoxcH57WVxASv//raSKQIBCEAAAs0JxIt3bGLvWk8OYIRU81Q5AoHpj4D6Xuprxe5G1IdRP+uPf/xj1WjzDzPO33XXXdmHffU/JOrnFhmu1HfSSuMv2Ee+vOHqf//3f7O+Y0xS/d9Pf/rT2SAJGch8gSjpDEf/SP3ruJ/zoH30bNZfV1/NDXUySmlgSH6hNbH74Q9+GGbonCG89+571X5rfI2EITBcBDpaJawbXMYgjUKSwUQjY2688cbw9NPPZKfJEv2rX/0qzD333JllWqOF/hutdiWDieKeeaZPf1brRP32t78NumklMgLJ6uyjrJTP4YcfHvbdd9/seP6PjCtutHrWHP3KaOGywgorhDPOOMN3h22rkUputJLVWiN+3O+Tyn/WWWdVRwWpEDKw/O1vf6szWr3y8itVA5sbrZoVWIa5ePnl3vf6RiBJX+U49NBDq0YrjZZ6/PHHq+XRSDmNeNKoIReNrpLh0I1WejDpPF2LZPPNN3fVpO2KK64YNI3QjVaqc9WptwPxuvDCC7PRVEUJqn3JaKX2pXYlNi4yVB100EHZrh6mPhpNESq39mODmJ9XxlYGLX1F8H9u8n2m8qmuVc8yliIQGAyBzc0g7bKpvRh9y75m/9ju211tdOde9kIhkbHp83bfvmFGo52s7f9oUm3kkXQU93jlWbuzGaLdaHWaGavXuv228F3T2dK+DG5iPxmkJIfbsyQe4ZVFVv6cb/fSCjbi83Abcbjuv+4IX4++sB/9sUWanhenMZjw9nbvy1An+YvlvbKNEv2KXdv6NqJhb3uOIBCAQHsQ0LRjLbBwZuV9rj1KNbqleM/eW86pLDpxm/EZLYlHW7V8qR9AAX9r/xNU3xfnRqEPIAlUIdBWBDRzRoMD/L1e/RV94PcBAT7SqKxCa3qe+q0SGXhkMLrjjjvCG9FUYw0yUH+jSIarf6T81X/yfpryFgvNOFGfVrONJOKkQQR50SwVGa0k/7j5Hw0rvOf12YdAmQRa/o/T0EaXL33pS9k0MMWtueYa4fjjj88OqRP/ta99LZtCpxtUQx9dNAJJcZpGJzn22GOzYZcKy9m3Vh3UcE0ZPzRSScYIiYw5MngUyZv2NX755ZfPDCFKWw8af+jIgq3pZCMhGk6p8msa2Sc/+cmqwUU3ukbquMgQ12VTYSSy1Muyv/IqK2flHIihTVZ5Wc3X//z6WVoyRnn9yKii6ZQ6rgeKRn/dc889mZ6m8OlrgItGk8ngKJGBSdMLdZ6u5Sc/+YmrJW81vFZtQHL00Udnhi/Vqa7z1FNPzeJ1/PDDj8jCRX/0sJQhSO1KbGSMc3GW+lqg+vYRdXq4av+rX/2qq5a6jcugEWaaKqny6bpuvvnmUvMisbFFQNMvXF7M+ai6xkb9XWUG+ZusE6RRVf3JrDPMEHa36SsS+Y460e6Lmmk7hEdsmseRlel2MlqtbobrvGiE1g9siHs8lvMmK8OvK9O7J5hhadlodGb+/MHua5rNN8y4LtH0yAMfeihMrfwPUNzf7LngZdA+AgEIjB6Bf9rIUC2wICM70kdAhis9O8VFI2OnJ/mdGa10XRdHU8ynp+vjWsYegWOP/X71ojXqSgMeNDBAbmfkwLxs8b6XPnivtvpqYffddw+aRaI+mmapuGy44YYebNgOR/9II8PUf8r317fddtusv65RYi7q++cljtMHfgQCI0mgpeHqwxV/BipQ3neTRlo9ZB2NJ21Ov6ZY9Sca6eOjVDS/V0MR5QjdRcaAX/ziF9muDB3yM1UkMlS8ZZ0xF/lDOu6443w3ezBUd4YpIN9NP/rRj6qpy5hy1tlnVfc171cig9X66/cZmjSiSQa52MKtcrsPrerJBYFf/vKX2VDS2P+Uphn6VwONvNIyqC4yAMqKL4OWxC3mMmJ5eXRs6623riuP+LuR0dNqtdXQWo22k2haZfwgVtxPf/rT6vV9+MPzhwUrHWwdc5HRUQ/tuH3JJ5obqHyEneuPxFaGPL+u/5iPBhkfXTRkVl9BfISax7OFQCqBe6OvbX9adrmwRTbqqM+4LaPTvo88EvawZ+uVCV+6F7Kptj6KSl/Ii+TmqEP12dlnb1C57OWXwjuRwcgVrojyXygytvnxoW7l/Nf9ap3+3LNBncC86Is/AgEIjD4BTd39rE2H+UzkR08vkOvbu90G5tdybvsgppE/WvRhVzNIy+eettrv+7RVfA1z2Xkb2HvEdxdaKGxtU3Hmq3xYkzP4ZWb7YJCzb5fZOjvDRqarn54dH7D9r1oex5t7AV9swnVlGF/JnndftTSPNH99X7b3WTlS9+el6+W3uo517cPgd2ya8s52zmI2aj4e0RTr67rEQ1zma/KxVdy0CMf3bMTrQfZT2rq2ItEiHLo25Sn5mF37Nlb+42yqt8qzsj0ztbCGi65R+qtGz/V1rSyqj/GVD6auO9Dt0sZK16Up7EWysP1P2Mx85+xj9abth+06EQi0K4GVV145qB8ikZHK3bJoX30mffx/u+QptlqpT2nLh3Pef27ch4xdpag8LqPVP5IPZu8/6mN9vOKg+p3LLrNsVkT1g+SmB4HASBLolL+qZqIhlHLqJrn++usz/z/ygaRpehL3U6SGLL9JukE1z9dF84E9fTne9pE5Gm3l8a6rrYxXPu9WRq7LLrssPpwZWWQk83PdcCPfVwceeGCmKwfyftxPdj2Vrz+RDy4XTfPztHwqnI6df/751et1XbFyWcj+keu8JZdcsnrNmivtxhDX01Zp+fzm2e3lw/PrnKEzU9ODS87gPV7lU3j55ZbPjsuSr+lyflyRfr3yjyVngJozLQv/wvby5sdUB/KhJYm5nHvuudnca8XLaKR0dU58/Z6XG8Skq3aheC+f4iRyEO++qWSl11RRcXXRqC/lkzdQvfTSy9k/GY0O8/x0jrehrq5avF9TfB2efn6bL58cybuofpSXDHIumvoZ5+/xMl66ntp5K+PtUMrn+cXb1PTK1lMZ8vzicnm47HxT05tWynetjRrd2qb8zjZDR5h3xu4gH1P6vWhG0b/b9L9/mFH5P2YMfy96Xs0TGY7mt/bWa7ri8sko/hjzR3Xwwh/1aqhurS9ZlYUrzw/5kHJ5zZ4P3sbj+u2x9F2Ws3vjtso5qfUR680bdWrmm/dD4bU5Zg8rWCfM5XXrHHkZPE7buMM4l/1vkbP6Ir34nDjfOD4fLltP6cf88vn5ftn5pqZH+bwG6rfwq+fhe3kuX7Vnx5aVkZcbVN53uuzhclzlA+fP7P1lLXsefSIy4GxUSewq+9j4ExvF+cHK88fzWNv09ykYBfqUPd9ut2fhFy2/yfaBc9vKO+ei9gz6YeW95Xvmd+/g2ecIM3f0PeAetU7ii5XVDue358SxZiD6kG1dvlD5X/+qpfc/9vH0OcsjL5vZOV83Q1hedM6tlU6t3kH8fVfXf3rl+s+1DwS/iT4SzGDPz22s/DtWmHmamh4tOc90f22/mPMR9r490QxOVxqvV3Td9m6Ul69a3F5W/in2/2FOu+Yf2v+DWHavlGdfe8+6z/6PNJM43yKdH1XK8n/2jvkdy8/fr/Rf4btzTAhrzVobOezn32VMZ6n839KH0qJndX/5elpl6yldns9Ot7ZN5Tyt85PPXZdf//rXhW1TfSb12yTq++o+j12tyMVKvk2Lnxt21G+Lj8d9JMWr/cmHr/pi+gDuov6Vnzcc/aO4X+79HOUdx6sfI2OVl0N9t89+9rPZ80mDLmTMkqyxxhq1aYLmB8z1s4PRn9R2laqnpLl/I8CV4Fjk16kpV81EU7/kv0gjhzR1Tx11/WSVlpVVTtQ10kYr5knU6GO/UzJwefpuAJOeRvr050tJN6+fq3MkcXra9ylvyldlkoFGxp/8ebGezmslsYFG0xI9rXiklOb/auSNW6SVnj+4FNZcYZ2noZguGsnkaXmctiq3G67k68t13n2v76VKc5HlW8xFDwnpzPbBPsfqqhutElEkPkVRx9S4YyPNTTfdVPU9Fl9H7EfKr0P84uv3MsZ1KifmReJtQ8fEVueqjlxk8PP0PE7b1157NTNcyXAXH9e+ZOrUnmr8QOrX+WWJ2J/Y4KSRgMrLDXrSUfsuGl2lh7obrvLt0tP27VDK52nE29T0ytZTGfL84nJ5uOx8U9Oblsq30dNPh92sg7S1vRz5CIC57Tm6ub0YycvcY/Zc2M6m+8rHleQF61CZl9As/Iyeq9apE5dZ7cXKbqgsXk9hGcNayXvWkVEbn1nG40oH8C7zWTOp4p8lrt8sJaVvMtmeQ34fptZHrDefyqhrMHn2uefDJHMev7rSrnQmH7XRYpMin4WZov+pdMResuOT7Zq9HH44v43zzR+L98vWU9oxvzivOFx2vqnpUb64Fmph+NVYxKE8l8laKKFihPF7UCN+7B91dtpelY+WWnDiNnsHms2MKktXPlKtY4bpG216yi32nPFztzIDzj6RkUhTlp/veScb4bOAPQsXqOT1Xm/tHSDzzVl5bh1h+fmzUwV4wQxZk2x6s0YCnWajBPzYgzYq4Al77i098yzZohNzWLlOt+fu1rb68oMVQ5fO18imr0cGdi2Y8aoZbTRNWuesXxl5pHcQ+W3Ve1N8/a/p2qJVBY+3j4afr1yD/AzebMc1tfuTFqey7WAGqDksjYMff1zZZ+n16Blv73TrRaOcNAVcI2I1okznLWDH97B3qT3MD+GrxukO040X73jEyv26Gb3ut/8xkyq+S7MMcn/y9Zs7HLws71gZ/Xqlc6pNq/pcZLS6x8qnDwxLWV0vV+kLSE/vTV7X2nfpL9/h0lO6PJ+dbm2bWh/TOr944MB1112XubepUegLaaExN1ypL6R2H4/CUn8s36bFz2cPqd+WP76IfVCU6xENIpDhxT++x3mrf+XnDUf/KO6Xez9H+cfx6sdMjp7Pcgckw5VEi1KdeeaZWdhnTmnnhz/8YbXc2cHoT2q7StVT0ty/EeBKcCzyq32OauSRTQWUlVqGFY3Y8RtOBiI1aP10I2tZzPwwyHxysjC7KJ3YqOLx8bbouKYlNpMpb03JDFdF5zU7Z7Dx+RUWmqWjm8xFU86KxKfEFR1TnH/lio/LCBVfZxyO9eKw6uwj0Qpdzeqrv/LEac49V980QcWllKHIb5mMY+0mc0XXVWS0Unmb8Wu3a6E87UngZesMHGNf9+RDZDHreKw0fvawzoQ5wnKVjs7Cdr8ebS88ezV5bvhVPW8dK5eDbNr03fY8zovfmxqd+bo5CM3LHNYRKpLZbVSjizpDZcuLxsBFU4CKJJ4WU3ScOAhAoH0IyIjxbXNA/FLl3tZUvTMqIxi+aIZrGa4kWk30gIUWysIydG1m/j8frRhZ5rXn4Wk2zXCRaERmppj7IyPOv21kkp57j9m5PtX4aHPV4Earb5hx59aKawkZmjSt7oc2Kl/H97X3IS2IIdFz5qBKeWRk2sWmEt1deTfRs+mXZqxZpvJszhWjcFdTHD9f+dBwq6XzbXuOv1n5CKHpjb81X6wftevbyJicbQa9hwoMTPJxqPL71PJ5rIN8hb2Hz2hlX7NitPPFO9azdE4wZpLv2lTzJ+zDR/xBsrCQg4j8hDH4XMVA+bj9T9jZ+Hlda1rjr5f+RL8fTwaRLadAYMgENKLIRQaaIpHvp8FI/IE+Pv8HP/hB9QN3HN9n/H62OnUxPhaHR7N/JDc24iRjm2b4+Mgen+2jPtDjFaN7XGbCEBhuAsW9hShXWYE1xUs3pqb7bbDBBkErM7j1Wl/AZImV8aqVPG1ff1zkH8uHHXpcvFVHq8gwEA9rjPUVnvUDffPwY+t4Xmek9+Nrjod/xuXQvOuBioxZ+ulBolFhco4fS9xR9Xg5a19mmWV8t1p/1YhKILb254/l92WtnzBn3ygQ+SRTmfTPQZb7Ion9WBUdb5e4V+zLrc+F10qYsU81L2NslPQ4thDoj4BGMckfiESrUD1lHYz77R7W78ynn7KpgzOGv9piD+pYFfmjyk6M/jxq57t02DnqTORlZrsvN7SRTb32Ff4ey+cVG60Yy5LWxv8a+bPyY4tXnqnaf2RKY7quN9jt41HZl7FREjcWJPTxWYr9qxSoEgUBCIwiARmgvmoGnyn2nHG5xUaRaySVVj398IzygdTXYdzKnoHu324f8+fnRiud94oZ2L9tcZdH7yueXrzVgg5fNoPQlGg6nEYlufH/JPvQeaO9o/gXaZ37FxtVLX9Qm5oBaxXrkE2wd03lt7WN/nJj12H2QcGNVjpHxqHd//Ng+PunV9Bukhy88EKZnoxge0ZGK0XKgPVV6xRea46hJVtZWY6NRtVnkfYnNlop7gUzvF1nBi4f+fXBTpW9/lnu5w7X9jvRx9hdra7daKX8tBDIT2yk/GGR+4XhKgfpQmCgBHz1ep0nP8QPmFE4L3LSPhgp+iivkUk+K0OGqhtvvDFoRJdc4LhrGa0y6ANCBpPvcJ9z6aWXZv6StYKgRl2pj+erCV588cXDnT3pQ6CQQNN5JTJ+7LPPPmHffffNVsDTKCMZmxS36qqrZqsB+rSteCRPYS4Wea8Ny3bRjaolQfM/GVe0ipx+mlucl2b5aGqXPziajWzKpzUS+/EqFXJwVySDMVwpnddefS1LbuaZZm7gqKmM+slYpoeNllp1X1heBhkfi+Qzn/lMUXRh3KOPPVqN18gk1afqMK5XTcVTGfTTqK9pQR599JFqMePpntVIC2gFSwQCAyWgia4aEaCfpgrm5TnrhF1uhlOJd6TyOvamU416LDJU7VLwzJSiRjocaaMJlOeCZhjLy6ZzzxNmshEHedkrWkxh0tvlG66eiMq+Y9RxjMvxzQX6piHFcYQhAIH2I3CJGYVio5WX8L633syCs1nnx2WZyhRC7Wsl1bw8Z0YajVRqJb+0BR1kLItleTNcuVzcZPTENZXnq/SWq+ivVplu/Y6ld7ldR15kILoqOi9/PN7XS7WmzUmuMcOdT/fOIip/ZIR67p0+o9PqZkDLi4x9PtIqPvaQGdlcPhDx9Ljh3roD/Jvsup6NDIae7y32TJexDoFAuxHQYmIuWgm+SBatjFosOqa4ogEI8oEVG8f93K222sqDWT9aC4vJ9YgbrRayd7J2Nlqp8FoYzEULfsnXlcvpp5/uQbYQGFECTQ1XMkp9+ctfDjvvvHM4/PAjGgolp9pumGl288Xx8Wp18nFVJPvvv3/YddddszzlwC4vGrK44oor5qPDYYcdVo3Tg6FdJH5QbrnllnV+sFRGrSTRjEV/1/DQw30PYVm/i1ZglD+pU089Neyyyy5hxx13zJKTg3iXddZZp3B63//8z/+4Sr9bfT1wkYGzSLRSocqgn6z104L885//rBZz7733roY9ILbrrbee77KFQDIBdbM0nUbyBfvS7h2BLML+LCFjc2UqRtxxeTMaxbC2TUFxp+Wv2weF/62MZtXUk8PMOBUbvNa2r98HVL6SKw11OPKi0RA/s+etr3Qlvy1H2jRF909zvvl6eC3qMOXPH+z+21aeU57sm/79QTOcnbHUUtkUIqWnf0x7WrlXr7AYbB6cBwEIjAyBeOpvnKOeUXn5mD2rJDLQ+BS/vM7DBdPnYp14tKnHL2ojN10uto+F/7D3xeuXXz77Kazf8VHnVCsISha2D4CS562szcoTjwrLlJv8mSf6OLChPas93/xWC3NI5iyYqv2C+foqEjlkd6l9vvCY4d1qlUL/3/KfyvTLfI76/xZ/TMkfZx8Co0VAH9Vddth+Bw9Wt3JnU9Tv1PRBH6QhP1V5iVe1j4/FvnLvtqnQedltt93yUaO6H/fXvSBayf7pp5/Jdlf41ApBP4mc2Mcj2LJI/kBghAg0NVxphNUrL/d9+V966aUanKlrFI8Pq5SzN5e4MW+33XZV44huAK3+J9H0Qjl9j63U3/jGN6oGlvfMD4uOF8kZZ5xRHe2iqXL77bdfNppHujrvz3/+c9FpoxInh3t/+9vfsrw12uiqq67OHPTJaq+lVzUM06f1DbSAMvL5w/Tg7x2cjVLzNGQQ+9Of/lRN+8ILL8wOab6yVsOTKF+FffqlnMvLyDSQKXDnnXdeNgda6WmklurCRekrvY/aammSx20utNrAUMX9NqiczZaQHWoeqhdv+yr/z3/+8ypLTaW88sorq/O9h5oX5489AkfbvSBRJ+CcpZcOV9vLwHm2vcOmDf/Bpsf4FJp4+shd0eiD/7G2f4+NmPRRC6faAgfqAErk7P1uO6Y0ld6JZpDyzoamdkyNOj7ZCZU/mpZ4g01duWj+D4c77bwtKg6QX7HpOD+slDfWLyt8hjk/9bLLiHerdSyvW+HT4U67hm/YiDS+3pdFmnQgMLwE5BA8VTQlWvLYEEZy5kdbKb2PRKO6tQKpfjKK6+f7/jyUfuZc3bZzmfFe8nqT56OOvZZ4fX5tOkfi+ea3fUeL/8YfKoo1Rj5WPrZcXi3wlejHigyVfowtBEaLwB//+Mdqf+Vji3ws/PjHP66uZv4J8zmnPmeR8UYf3N11zYI2Cn333XfP+gOaAfT9738/NJs1o2mALj/60Y+CVtmUqN9y0kkn1fWpy5qNMtD+Ub6/XuSr6/zzf5eVW4MkfJqgVp9HIDBaBFr6uDryqCPDT3/60+xmllX58MMPz1bM09BId9Smgh911FHV8mv+rvQk8nuln0atKP473/lO+IctnymD1XLLLRfuu+++bMUG7cfp7bvfvnWr2GWJVf5IV0uZutEmftDsudeeWfli/dEOf+9738umVuqhJb9JMijFImObPwzi+P7CWu3irLPOypZU1fkyrmg6oB6yPm1SachYpNUhXQ488MCwxhprZDr6IiBjohyyi6tY6vy4Lvy8oq1099prr8zHmc7VaDkNh1V6KoPXja7RR30VpTOQOH258CVab7jhhuwfiq6nbNlv//2ChsLqGjR1VY4KfeVK5TXYeiu7nKQ37RH4t4242s+GrR9ro5rUidKXd//6rqtRB/BAc9p+f+RoXVNw/mBf/rasGJSk56OuNHLp83f+KxxuRlaN4pLE6WmFwqPNV2E8gitTqvw53PLa1XzTLWCdPl9aXocesK/q+9jIWqU/VPHntdLpDbXpPUp7s3/fF463kWIrVabtaASYRJ23re0r6dlLLZ35yKmNNcgO8wcCEJhGCWiq3Ads1NWs9vGxmSwRjZ5qppOPf8bePXyk6EYaYW4zB/zjoN6P8vJiJU7+svTc+WCL8sxr70gpEvt9uth8B/6qMqq02bnjOlu+hjc7bcTjX658HFHGc9g7ZzP5UCKnZucTD4HhIKD+ivqgGvwg2WSTTbJfSp9HH6t9Zov6PPrFovcb7+94vKbZqf+rePV377zzzmw1en8eKV+tRqh9uZLRjBgtgjYUGWj/qFV/3cshI5W4+fWp74N/K6fDdjQINH9rsNJcddVV4bTTTqsaiWQVlrHDDRt6EdCKg9dee2217LLg5odF+o2qFRI00sinGOokpenpvWEdtQMOOCAb0VJNMArcfvvt4YmKE0vdRH4jqRwyzvjopuiUAQf1MHEpCscdMNfTtkhX8fL9tNJKK2X+wXTDu0hfwy132nknj6ozunl6zfLTSbL2H3TQQZkRRfvi7EYrnafpmRtuuGFd2eTMXU72ffinznMjk8qnUXK+sqCXQTrNyiFD5Oabb14tu+pEdep1I+f+m2+xedDSsi5xWr6MrB/zbbN4TX+MV/rTSLGhSHyNcZ6aLrjttttWWSgP/yqi0Vhbb1Ob7hqnMZSycO7YISAnwSvdemu2etUP7JkmR8JaHWt7M+avYy8w/yiY0neYHV/V7ml1yNYxf3JaJt1FBqADzBi2uj0j5dT3+zZKSsaxzc3ws7ml+a9oxJaf49tJNjJ0ffOJp3N/aH5c9rd8vmgG4i3tV+T6TxuLAAAyXklEQVTs3c8byPZWG+25lD0r9LsvKrfSeMvKvpsZyNazMijvgx95JGxs17iKTUWWH6w1br8tO+/CEkZsDqTM6EIAAsND4FG7ryUfM+OUG+DzOWna9EAlXp3vHXuu6PmlFfb0U1i/NyxevrD067L3Fcmj/52Sbee3d6gif386uFxieWLfT7Pa+4nnm9/qQ4HK8GHbTgsiP18+yi0/xd3LrxUPdV0IBNqRgBykf/nLX67rQ3j/U33XZiOJjjjiiGzwRf6a9O6vPon7Vo77NnKnc+ihh1b7Z+oTeV9YI7g23njjcOKJJ1aT1OAG6cRpxH2SqqIFmsU36x81S7NVf93z0+JU8eixG2+6MTPA+XG2EBhpAp0aadNMdJNputdZNrJHKyTIaqybS87ldKNec801QdPh/Gb0dGSZlnN1/WSMkq8nz0c3gfw6aaqXHF9rTrGmGsra7FMJ8+l5uhrxstFGG2XT22SQURoaCSMDm4wZnofr+7ZZen483soItrRN23HxNDU81KUoPa2klz/P9ZSmW+g/ZFN59HDyaXOacumih5nnJx9ULh6nfT1k432N4JLBTs7CNWRVRijVjyzpbiyK9ZWGjFfrr79eZuVfa621svqT8VFO1fUgjq3+OlfXseeee2YjunR+Pj3Vr0ZB6fpVL/IBpRUVr7vuuqCHd/4cTUNd3vxOiEv+WBZhf7SSpfOL89M8dV2nVkjUtSp91/NzW23z/DR8WD8Xv17tq20pL/3UVuVoXgsUPGyda4muQaLriMuYRUZ/hlK+KJlqMDW9svVUgDy/aqGiQNn5pqY3rZVPJvI77bmlXyy63r4xR3FsX1iaUyo+Y4q4yJSl5d99CXidVaTXFX3l13G1X517vT1jn6kYzfJtelmb4r2w3XM+nFz3cStxPY30etDK1Ey8fBr9cGVksLN/Tg2n0P4akBTWb6NWXwz8Gsl4+2s80hgzlvnFH4n82dAVjVDqNCONx8fkxMzF+T1szxm94Wha9Ab2TnRl5Phc9bGjfSD1KdMyLXm68XNL+eXr7oHIYfhONtX4BPsgkNc5wka6rllxxr6GvQt12/vY3frAaD5UNfZpU5vKc3Hk/kJll0+uZez5J1F5PM34+sXHy/m0lePD9qxcz3z0zW2rtk6uvOtkCdgfTWk8rbKC2QX2XuH/A/yD37jce56fF7NUGbrNCCeJuSi+qxLv5xVt/RqKjinOy6LVal33YXvfX9z6AFq58WNmdHvS6jGWDSzep2LO0OQaPK34vKJw2XrKw9tfUX4eV3a+qelRPq+B+m3Z/DSwQu/zcnUjn8nqV6ovq35TvEK78o3zliuUQw45JDtH/rD0Uf5W+/io93/Nzijqz2hkktLW4lRy/C5/WZqSqEEckjPPPDPcdNNN4eMf/3h2TO1zOPpHl1xySfjDH/5QBevPKUXE/XWtoq5+eHxcOprh4/69TjnllDouOl4kMbui4x6Xqid97l+nVtuORX76P92vyPh0wQUXZL9+lSsKauj6NRPd9L+2KX+DkVdtiWOd6xXmDwxPS8atpczRr4v/s+9vZIweQm5o8XOHuj3//PMzA4sMc5o26MYkT1fDVV3yI9U8vr+tjIeaNqefxLn0d55GvumX59ffeUXHxVZGJRnfWtV70bkDjVNesaN5GRXlN62/+lU+0lN7lugfyOP9+O8RGz3I3aiancgfCIxBAjtYZ3KdQThLP89GW7YyXI1BlFwyBMY0gd9YB07Tk2XkOMY6gXKIfpONypSj8vXMFcW37dhgRCNVZVxZxAxNO5lBTOErLF2JRnbtZh9T3Wh1vem6QUnPqF3MYKXyHGq+a17S//2KEX1BMzKdvuhiAyrOkfZ+e5p1RiXaftM+7r1aMV7JCPbzjy9aTe8P9s40VIl9Yq1hBrjzzHDWODFyqLmEcJxd11kVB9XnWcd/Bxvd68ar1WefI3zDjFkIBNqdgPch4n5ESpk1GyXfH+ivvyXfwm400mAON1p5fupzltnv9Gvz9Psrn/S8v67y5ftR6j/76uoaoBEvOuZ5sIXASBLodGdurTJN0dH5KXq6KVL0itLTcMeic/Nx8rUkC/ZARefIop5Pr1k6KXpzm88ZOUCXI7/f/OY32TxnT09T0WSJl2jUmUYp9SdD4dcs7ZTr0LkpeqNRvq9/7euD8hMmo1Wrfxgp15vKJVVvNPipbJKU66V8fayK/k5L/KZGo5lknPWyt6rfg63zdWw0yqE/g7e/ML1inceehBEAXoYith7Xqnyu49uU9KRbph7lc/qN2xTO8Gvk5jGjzS+enlIti3VqXN61e7wa75G2VZ26eP2+bD6uDrCRyz+2dy4Zi35sPu7yomlpOiaPeJ7u1BlnrKopv/jZ5Qe+ax3BC21Ets49cqGFwqGWzsv2jJNRTHESGXo0tbqnYkxSeQ431w1HV8pxoo3KUv6vm/uECV1933e1UIRGgak81Xyj6xcfL+eN9j53lRngZOhfzEYoXWM+bLTQxQyWvZy0u/z4iUnh/yof0nSuT+l5v8l7csyyWgZL7LZoxNruZoDTb7t777MVbPtGdnh+RVsvc/6Yl6XXOHheyucyM7RtaNcmh/d/slH2k23krYyCH7B9idfbe02uwfNplq8f922Zet7+PO1W2zLzVT4p6VG+5jUyEvziUeRq897um5eqdmQkylfLrRZKyVfaKXpx+9PsKs1k0nRHf5f72c9+ljFJTa9svbh8SruVpFyvzi9Tj/I1r5EUzqn8av9Bm+c3zR35yle+ErT6m4vfdHoItRIN4/xgyV+MNDJsjz32yLLV6CuNuNIIKVm2fTimyhUPUW1VRo41EvjCJl/IRrX1V786U9x9RJj7S2tMkRgIQCBP4A3roOjXbR0ZSX//iKp61qFDIACBaZtA0V3c9yTouy6NmioS94uUP3a5GXceto7RMWYsWiryHyV/VKfYaP1VbXT0pvbhb8p7tSnJbkxRWnE4Tvthm5b8efOX9wsbEbSIdb5krIodht9gI/aPNCPV67n3wYvt3azT3hsPnjAhO0fnudHqHBtpcKcZmE6w6T6xxFecv879zFffdjbqa19biUziaSksw9nxNnrp95auvwcq3tPLp6VjkpoJsD5ctHhHZ5+Nru/EQfz1suTrdX8zDKqOvmlTMSWxIe5om/a4uF2bFhHx8weRNadAAAKjTEDO5CU+ZVgjxS666KK659UoF5HsxyiB6dJwJQOUfi7+YtBfR0v6ZRuu5CNMRjTNI9YDQD6uYtHQUzlEd79J8THCaQQ07VSSUr+az+76aamjBYHpj8Bj1mHcyqb2StxR8vR3lVwRBCBQFoGf2SIS+sUy1UbVLG+LOkia/f891EZW6SeRX9JYHpLPU3sOacTOHDYi6jUzJnXYVrKNjeqRvGgjkVzuN59UWuBB4u91fizeykH6Zuae4cM2LW9Zmzqn0VbP2AdD+dt7zo41k1tMR4tmLGm+XhY3Y9qj9pz8t+Upg71kqcgPqfZ1/V4e7cciw81vzBh2gRmnFjUDmpzN/9eMOk/ZO4gWy8gbhHTuF63MreR6K8+55l+2SLR4xwlWP/NYXlqs40kr91DEy5LnLOPZyfbOdZ5dl/x+zW+j4MRI08HnNWPWb+2YyoJAAALTLgE3WOkK9GzXTCYEAu1AYJowXO2yyy7ZiJpp1bijlRd/+tOfhi233DKbwijjmFb8k0N0jfrJvxi0Q8OgDBCAwPRLoMc6XOoEIhCAAARGmsBnbArdl2w6m+QoG/30vBmTXqoYqLotTiv7aTEIyX0tFnbIFJr8kYHlSTNEPW9GHEkzw1p2MPojo48MS61WYo3U+w2+ZUavOy09/YZbZPibYtcs0WqFnzajXTPpqkztm1rh43oyFN5oo9L6E+V1QzRFsT99jkOg3QnIl7P3Mx8w/21jWbRi/Tw2clIrCmqVdS2shkCgHQhME4YrLWE6rYuGWZ5xxhnT+mVQfghAAAIQgAAEIDBoAhp5tGZloYe3bBTWQTZCx0cgddnoKzk0d39UfynBefmgCzoNnyijlfvsGshlPG6Gr40SDFcDSRNdCEwLBF4xQ6xWDpeM9QEF7lB+Wqg3yji2CEwThquxVSVcLQQgAAEIQAACEJg+CWjK3jNvvxPmn2nGsLH5sVpp/Ozh7jffCPPaohGL2zQ9N1qd8uST2fS+6ZPC8F7V5Wbw0yqLzaSZ79d3bDQuAgEIQAACEGhHAhiu2rFWKBMEIAABCEAAAhCYDgnI+fg2994bfr7E4mFp8/00d3dXWMecoscio9Wp9kMGR0BTHvVrJtXFMyIfYs10iYcABCAAAQi0AwEMV+1QC5QBAhCAAAQgAAEIjBECr0ztCduYY/aP2QirZcx4NX/3jOGFd6eG/5jz8kfMCfmUFk7UxwgiLhMCEIAABCAAgYhAZ6t5vD6UONIvDKbq6eSOjo5+5w6nple2HuUrrN6Qyhl+8BOB1PZSth7tj/ZH+ytuAx7L/18nUdumPod0Bvxq3Dw0VH5PmpPvJyOfSkpvXGdn8BFBnk9+m5pvqp7Sp37zlNP/n8OvkZ1iaH9D4wI/+DkBns9OorYdi/dHR+3yCUEAAhCAAAQgAAEIQAACEIAABCAAAQhAoH0IdKYsEZyio0tK0es1x48peqnpla1H+US0WFLqDX7F7BQLv2I2KVzgV8wulUuqHvfv0DjDD35OoMznGvevU23clsmZ+7eRr8ekcIaf02rcwq+RiWJSuKTq0f6KGcNvaFzg1178GHHVvD44AgEIQAACEIAABCAAAQhAAAIQgAAEIDCKBDBcjSJ8soYABCAAAQhAAAIQgAAEIAABCEAAAhBoTgDDVXM2HIEABCAAAQhAAAIQgAAEIAABCEAAAhAYRQIYrkYRPllDAAIQgAAEIAABCEAAAhCAAAQgAAEINCeA4ao5G45AAAIQgAAEIAABCEAAAhCAAAQgAAEIjCKBzlHMm6whAAEIQGAYCXR1dYVZZpkly6Gzs/Xj3lf3kV53d3fQCj1vv/1209LNOOOMYYYZZsiO69x33323qS4HIAABCEAAAhCAAAQgAAEIDJZA657MYFPlPAhAAAIQGHUCf7rkT2HCnBOSyvHnP/85nH322eHAAw8MG2+8cWaIWnXVVQvPXX/99cPBBx9cPXbIIYeEK6+8srpPAAIQgAAEIAABCEAAAhCAQFkEOvVlvZnoa32KpOoprY6Ojuxrfqt0U9MrW4/yFddKKmf4wU8EUttL2Xq0v8b21zFD+mxw1Yeezz6KSqkV/X/YcMMNM+OW53b00UeH6667rkGX+nVC9duyuaSmp1Lw/7e+LrQHv0YmA+ECP/g5AZ4vTqK25f6osYhDqVxS9ZQ27S8m3BeGXyMTxaRySdVTmrQ/UaiX4eDHiKt6xuxBAAIQmO4IvPjii3UjpIou8Nlnnw0zzzxz0aFqnEZaaUSW5P3e98Nhhx8Wrr322upxAhCAAAQgAAEIQAACEIAABMom0Ol+TVolnKKj81P05DclRS81vbL1yiif+4hxS+P777+vYlZlypQp1XAcEJeZZpops9rKt4zKkhfFyZeM9Fxapec6rbZl1kcZ/PJlpXx5In37ZXJRiinpUb/FddGu/PzZ89Zbb4W77rqreeErRyZOnBjee++9ql7cJj7/+c9XjV8yWu23/37hhhtuqOo2C8RpNNNRfIoe7a85QfgVs0nhQvsrZpfKJVWP+3donOEHPydQ5nON+9epNm7L5Mz928jXY1I4w89pNW7HEj9GXDXW/5BjNHVmzTXXbJqOOn2vv/F6OP3008MFF1xQp3fdtdeFcR3jwrnnnhtOPvnkumPakVHswgsvDPPPP3927Pnnnw+bbLJJgx4REIAABMoiIKPVEUcckSWn59c+++4TbrzxxrKSJx0IQAACbUVAHx7942NcMJ8+HS92oU6DPij6R0t1sPRrJvHCFtJhYYtmpIiHAAQgAAEI1AhguKqxKC00bty4lmnJMDV+/Piwzz77hOWWW67aIYxP0lzZvOgl6mc/+1mYZ555skPPPPNM2HbbbfNq7EMAAhAojUBstNJorL333jtp9FZpBSAhCEAAAiNMYKALWxx11FF1C1s0+3gZP091SfogcNVVV43w1ZEdBCAAAQhAYNojgOFqGOtMnbxNN900TJ06tZrLggsuGD71qU+Fr33ta9nXuXXWWSf87ne/Cw8++GBVpyggo9Xvf//7qtFq0qRJYbvttuNLXREs4iAAgToCc8wxR/a8qIuMdm6++ebw+OOPRzF9wXwn64QTTsBo1UCJCAhAYHojoA+MqdLfx0pPJ/88Pfzww8PVV1/th9lCAAIQgAAEINCCAIarFnCGekj+ZSZPnlznu+W1114L9957b7jvvvvCKaeckmWhL3OtDFdutPLpgY888kjYaaedMFoNtYI4HwJjhIBGeGqkVDOZe+65w4knnlh3WNNefHqgH9htt93CZZddVmeM92NsIQABCExvBF544YXqghS6Np8iGE/ve+qpp/q97NhopenWB33voHDNNdc0rMbab0IoQAACEIAABMYoAQxXo1Txt99+ezXnj370o9VwPpA3Wj366KNhhx12aOk/IZ8G+xCAwNgmoI7Sf23Bh2aiVQebify3qGOm59QHPvCB8P3vfz+b5txMn3gIQAAC0wuBN998M/vQ6NfjPq5SnOH6OXmjVerCFn4+WwhAAAIQgAAE7OMREEaHwOyzz17N+LnnnquG40DeaHXPPfcEOX5v5fQzPp8wBCAAARF4YtITYZttthkwjHfeeSdsv/32QYatyy+/Iswyy8xhpZVWCuuvv3649NJLB5weJ0AAAhAYSwTyRqu99t4r3HLLLWMJAdcKAQhAAAIQKIVAowfwUpIlkVYEllxyyWxFQdcpWp0rb7TScvbyi+XL2/u5bCEAAQgMBwGN0tpqq63Ck08+Gd620Vr72kqCLgcccECYc845fZctBCAAAQjkCMjA79Ot5fP0m9/6JkarHCN2IQABCEAAAqkEGHGVSmoQevKFcPHFF9edqZFW7iNBB+QQ+dZbb63T0c7WW29dFzfrrLNmzpVvuummunh2IAABCAwHgfd63wvPP/98NWlNb5Z/qw033DB7hp122mlhyy23rB4nAAEIQGB6IyADvRbCcZlhhhmyoAxRkmYLW8hodfDBB2c6+qOFLe68887qPgEIQAACEIAABAZGoHPixIlNz+jo6BuQ1d/UtFQ9ZSQnwa3ylE5qemXrlVU+GZlc5pprLg82bB9++OGgJZTd6XoR5wceeCAsvtjiQSvc7LXnXuGll15qSCcfUTaX1PRUjrFQv847lUuqHvycbP0WfvU8fC+Fi3eyOju7+n3uKl3dv7PNNptn0XDO2WefHVZbbbVMRyukHnLIIUFxRZJSPp2Xqiddni+iUC/wq+fhe6lcUvWULu3P6da20ys/f3aqzlstbLHIIotUn4H+7NTHydhoJVrf+tbu4Y477mhYVGd65VdrIfWh1OstW0+l4P6trwvtpXKWLvxEoV7gV8/D91K5pOopXdqf061txyK/zkmTJtUI5EKpTihT9ZS8jFat8pROanpl65VVPk3rk2iqzWm/PK3hRUVTb+66666gFQYlza7jkksuCccee2zYdddds2mCMl7ts88+YYMNNmjp56pZellm0Z+y9ZT0WKhfRwg/J1G/LZtLanoqBe2vvi58VMC7707t97nr/N54441qIkXP6j322COcdeZZmTF94403DhdeeGG4//77q+d4ILXeUvW8fEVl8jy1TU2vbD3KF9dCLZzKGX41ZnEIfjGNWjiVS6qeUo7/f/izs7+FLfQB0p9J8bNT6U2dOjWbaq2FLeQfcK+99sp+OuYy2PL5+fltanpl66kcMb98uXy/7HxT06N8XgP1W/jV8/C9VC6pekqX+8Pp1rbwq7GIQ6lcUvWU9vTS/pgqGLeUksOaavPrX/86DGT1GS+C/F7JaCX51a9+FdZdd92w0EILBU011CgH95vg+mwhAAEIjAQBrWx67nnnhp122inL7uSTT86ctauThkAAAhCYngg89vhjdVMFUzsKWthi5513Ds8++2x1YYuVV145yFn7FVdcMT0h4logAAEIQAACI0IA5+wjgnngmTzxxBN1J33rW9+qjtySjxm9ACEQgAAEWhHQaAHJQBZ18CnLrc45/fTTq6MMNDX6mGOOaVUMjkEAAhAYMwT03P3Sl74Unn766YaFLfThkYUtxkxT4EIhAAEIQKBEAoy4KhHmcCb18ssvh+OOO67qN+FHP/pR5iQ5PzR9OMtA2hCAwLRFYIMNN6hOnUstuYxQKYYorTiIQAACEIBAPQGNtn/hhReqkSxsUUVBAAIQgAAEIDBoAoy4GjS6kT/x0ksvDXLWLtFw9ZNOOmnkC0GOEIAABCAAAQhAAALJBLQQj/s11cIWe+65Z/K5KEIAAhCAAAQgYAtKAGHaIiC/V/KdIFliiSXCjjvuOG1dAKWFAAQgAAEIQAACY4iApmDL5YNP395+++3DkksuOYYIcKkQgAAEIACBoRHAcDU0foVnu4+YwoOJkb6iTV797bffDvvuu281endbYnmuueaq7hOAAAQgAAEIQAACEGgvAo888kg46+yzqoXSwhZdXV3VfQIQgAAEIAABCDQngI+r5mwGfeTAAw/MzvXVZwaS0Mqr9O90/ZZbbgkrrbTSQJJFFwIQgAAEIAABCEAggYCPjEpQrar4R8tWC1v84he/CGuvvXa2NLkWttAK0QcddFA1DQIQgAAEIAABCBQT6GxlXEn9EpSqpyJ0dHT06yw4Nb2y9ShfcSNJ5Qw/+IlAanspW4/2R/uj/RW3AY/l/6+TqG1Tn0M6A341bh6aXvlt+sVN/RLr3llbXa8WzdFP0kpP0wRdpNdK1/W0pf3FNPrCqezg18hOMfAbGhf4wc8J8Hx2ErXtcNwfTBWs8SUEAQhAAAIQgAAEIAABCEAAAhCAAAQg0EYEOnt6evotToqOEknR01DqFL3U9MrWo3wiWiwp9Qa/YnaKhV8xmxQu8Ctml8olVY/7d2ic4Qc/J1Dmc43716k2bsvkzP3byNdjUjjDz2k1buHXyEQxKVxS9Wh/xYzhNzQu8Gsvfoy4al4fHIEABCAAAQhAAAIQgAAEIAABCEAAAhAYRQIYrkYRPllDAAIQgAAEIAABCEAAAhCAAAQgAAEINCeA4ao5G45AAAIQgAAEIAABCEAAAhCAAAQgAAEIjCIBDFejCJ+sIQABCEAAAhCAAAQgAAEIQAACEIAABJoTwHDVnA1HIAABCEAAAhCAAAQgAAEIQAACEIAABEaRAIarUYRP1hCAAAQgAAEIQAACEIAABCAAAQhAAALNCWC4as6GIxCAAAQgAAEIQAACEIAABCAAAQhAAAKjSKCzu7u7afZdXV1Nj8UHUvV0TkdHR2iVp3RS0ytbj/KJQKOkctaZ1C/8UttL2Xq0v8a2p5hUzvCD30DaS2q7StWj/dH+aH/FbcBjeb9yErUtz5caiziUyiVVT2nT/mLCfWH4NTJRTCqXVD2lSfsThXoZi/wYcVXfBtiDAAQgAAEIQAACEIAABCAAAQhAAAIQaBMCnT09Pf0WJUVHiaTo9fb2Jumlple2HuUT0WKhfgfPRWfCD348X4rbAPfH0LjAD34iwPNlaO0AfvBzAinva9ItU4/25/Qbtymc4dfIzWPg5yTqtylcdEaKHu2vnm28VyY/RlzFZAlDAAIQgAAEIAABCEAAAhCAAAQgAAEItA0BDFdtUxUUBAIQgAAEIAABCEAAAhCAAAQgAAEIQCAmgOEqpkEYAhCAAAQgAAEIQAACEIAABCAAAQhAoG0IYLhqm6qgIBCAAAQgAAEIQAACEIAABCAAAQhAAAIxAQxXMQ3CEIAABCAAAQhAAAIQgAAEIAABCEAAAm1DAMNV21QFBYEABCAAAQhAAAIQgAAEIAABCEAAAhCICWC4imkQhgAEIAABCEAAAhCAAAQgAAEIQAACEGgbAp3d3d1NC9PV1dX0WHwgVU/ndHR0hFZ5Sic1vbL1KJ8INEoqZ51J/cIvtb2UrUf7a2x7iknlDD/4DaS9pLarVD3aH+2P9lfcBjyW9ysnUdvyfKmxiEOpXFL1lDbtLybcF4ZfIxPFpHJJ1VOatD9RqJexyI8RV/VtgD0IQAACEIAABCAAAQhAAAIQgAAEIACBNiHQ2dPT029RUnSUSIpeb29vkl5qemXrUT4RLRbqd/BcdCb84MfzpbgNcH8MjQv84CcCPF+G1g7gBz8nkPK+Jt0y9Wh/Tr9xm8IZfo3cPAZ+TqJ+m8JFZ6To0f7q2cZ7ZfJjxFVMljAEIAABCEAAAhCAAAQgAAEIQAACEIBA2xDAcNU2VUFBIAABCEAAAhCAAAQgAAEIQAACEIAABGICGK5iGoQhAAEIQAACEIAABCAAAQhAAAIQgAAE2oYAhqu2qQoKAgEIQAACEIAABCAAAQhAAAIQgAAEIBATwHAV0yAMAQhAAAIQgAAEIAABCEAAAhCAAAQg0DYEMFy1TVVQEAhAAAIQgAAEIAABCEAAAhCAAAQgAIGYAIarmAZhCEAAAhCAAAQgAAEIQAACEIAABCAAgbYhgOGqbaqCgkAAAhCAAAQgAAEIQAACEIAABCAAAQjEBMatvfba78cRcbijo8+u1dvbG0c3hFP1dOL48ePD5MmTG9KII1LTK1uP8sW1UAuncoZfjVkcgl9MoxZO5ZKqp5R5vtT4egh+TqJ+m8olVU+p0/7qGWsPfo1MBsIFfvBzAjxfnERty/1RYxGHUrmk6ilt2l9MuC8Mv0YmiknlkqqnNGl/olAvY5Ff56RJk+opRHvd3d3ZXk9PTxTbGEzV05kTJ04MrfKUTmp6ZetRPhFolFTOOpP6hV9qeylbj/bX2PYUk8oZfvAbSHtJbVeperQ/2h/tr7gNeCzvV06ituX5UmMRh1K5pOopbdpfTLgvDL9GJopJ5ZKqpzRpf6JQL2ORH1MF69sAexCAAAQgAAEIQAACEIAABCAAAQhAAAJtQgDDVZtUBMWAAAQgAAEIQAACEIAABCAAAQhAAAIQqCeA4aqeB3sQgAAEIAABCEAAAhCAAAQgAAEIQAACbUIAw1WbVATFgAAEIAABCEAAAhCAAAQgAAEIQAACEKgngOGqngd7EIAABCAAAQhAAAIQgAAEIAABCEAAAm1CAMNVm1QExYAABCAAAQhAAAIQgAAEIAABCEAAAhCoJ4Dhqp4HexCAAAQgAAEIQAACEIAABCAAAQhAAAJtQqCzu7u7aVG6urqaHosPpOrpnI6OjtAqT+mkple2HuUTgUZJ5awzqV/4pbaXsvVof41tTzGpnOEHv4G0l9R2lapH+6P90f6K24DH8n7lJGpbni81FnEolUuqntKm/cWE+8Lwa2SimFQuqXpKk/YnCvUyFvkx4qq+DbAHAQhAAAIQgAAEIAABCEAAAhCAAAQg0CYEOnt6evotSoqOEknR6+3tTdJLTa9sPconosVC/Q6ei86EH/x4vhS3Ae6PoXGBH/xEgOfL0NoB/ODnBFLe16Rbph7tz+k3blM4w6+Rm8fAz0nUb1O46IwUPdpfPdt4r0x+jLiKyRKGAAQgAAEIQAACEIAABCAAAQhAAAIQaBsCGK7apiooCAQgAAEIQAACEIAABCAAAQhAAAIQgEBMAMNVTIMwBCAAAQhAAAIQgAAEIAABCEAAAhCAQNsQwHDVNlVBQSAAAQhAAAIQgAAEIAABCEAAAhCAAARiAhiuYhqEIQABCEAAAhCAAAQgAAEIQAACEIAABNqGAIartqkKCgIBCEAAAhCAAAQgAAEIQAACEIAABCAQE8BwFdMgDAEIQAACEIAABCAAAQhAAAIQgAAEINA2BDq7u7ubFqarq6vpsfhAqp7O6ejoCK3ylE5qemXrUT4RaJRUzjqT+oVfanspW4/219j2FJPKGX7wG0h7SW1XqXq0P9of7a+4DXgs71dOorbl+VJjEYdSuaTqKW3aX0y4Lwy/RiaKSeWSqqc0aX+iUC9jkR8jrurbAHsQgAAEIAABCEAAAhCAAAQgAAEIQAACbUKgs6enp9+ipOgokRS93t7eJL3U9MrWo3wiWizU7+C56Ez4wY/nS3Eb4P4YGhf4wU8EeL4MrR3AD35OIOV9Tbpl6tH+nH7jNoUz/Bq5eQz8nET9NoWLzkjRo/3Vs433yuTHiKuYLGEIQAACEIAABCAAAQhAAAIQgAAEIACBtiGA4aptqoKCQAACEIAABCAAAQhAAAIQgAAEIAABCMQEMFzFNAhDAAIQgAAEIAABCEAAAhCAAAQgAAEItA0BDFdtUxUUBAIQgAAEIAABCEAAAhCAAAQgAAEIQCAmgOEqpkEYAhCAAAQgAAEIQAACEIAABCAAAQhAoG0IYLhqm6qgIBCAAAQgAAEIQAACEIAABCAAAQhAAAIxAQxXMQ3CEIAABCAAAQhAAAIQgAAEIAABCEAAAm1DoLO7u7tpYbq6upoeiw+k6umcjo6O0CpP6aSmV7Ye5ROBRknlrDOpX/iltpey9Wh/jW1PMamc4Qe/gbSX1HaVqkf7o/3R/orbgMfyfuUkalueLzUWcSiVS6qe0qb9xYT7wvBrZKKYVC6pekqT9icK9TIW+THiqr4NsAcBCEAAAhCAAAQgAAEIQAACEIAABCDQJgQ6e3p6+i1Kio4SSdHr7e1N0ktNr2w9yieixUL9Dp6LzoQf/Hi+FLcB7o+hcYEf/ESA58vQ2gH84OcEUt7XpFumHu3P6TduUzjDr5Gbx8DPSdRvU7jojBQ92l8923ivTH6MuIrJEoYABCAAAQhAAAIQgAAEIAABCEAAAhBoGwIYrtqmKigIBCAAAQhAAAIQgAAEIAABCEAAAhCAQEwAw1VMgzAEIAABCEAAAhCAAAQgAAEIQAACEIBA2xDAcNU2VUFBIAABCEAAAhCAAAQgAAEIQAACEIAABGICGK5iGoQhAAEIQAACEIAABCAAAQhAAAIQgAAE2oYAhqu2qQoKAgEIQAACEIAABCAAAQhAAAIQgAAEIBATwHAV0yAMAQhAAAIQgAAEIAABCEAAAhCAAAQg0DYEMFy1TVVQEAhAAAIQgAAEIAABCEAAAhCAAAQgAIGYwLi11177/TgiDnd09Nm1ent74+iGcKqeThw/fnyYPHlyQxpxRGp6ZetRvrgWauFUzvCrMYtD8Itp1MKpXFL1lDLPlxpfD8HPSdRvU7mk6il12l89Y+3Br5HJQLjAD35OgOeLk6htuT9qLOJQKpdUPaVN+4sJ94Xh18hEMalcUvWUJu1PFOplLPLrnDRpUj2FaK+7uzvb6+npiWIbg6l6OnPixImhVZ7SSU2vbD3KJwKNkspZZ1K/8EttL2Xr0f4a255iUjnDD34DaS+p7SpVj/ZH+6P9FbcBj+X9yknUtjxfaiziUCqXVD2lTfuLCfeF4dfIRDGpXFL1lCbtTxTqZSzyY6pgfRtgDwIQgAAEIAABCEAAAhCAAAQgAAEIQKBNCGC4apOKoBgQgAAEIAABCEAAAhCAAAQgAAEIQAAC9QQwXNXzYA8CEIAABCAAAQhAAAIQgAAEIAABCECgTQhguGqTiqAYEIAABCAAAQhAAAIQgAAEIAABCEAAAvUEMFzV82APAhCAAAQgAAEIQAACEIAABCAAAQhAoE0IYLhqk4qgGBCAAAQgAAEIQAACEIAABCAAAQhAAAL1BDBc1fNgDwIQgAAEIAABCEAAAhCAAAQgAAEIQKBNCHR2d3c3LUpXV1fTY/GBVD2d09HREVrlKZ3U9MrWo3wi0CipnHUm9Qu/1PZSth7tr7HtKSaVM/zgN5D2ktquUvVof7Q/2l9xG/BY3q+cRG3L86XGIg6lcknVU9q0v5hwXxh+jUwUk8olVU9p0v5EoV7GIj9GXNW3AfYgAAEIQAACEIAABCAAAQhAAAIQgAAE2oRAZ09PT79FSdFRIil6vb29SXqp6ZWtR/lEtFio38Fz0Znwgx/Pl+I2wP0xNC7wg58I8HwZWjuAH/ycQMr7mnTL1KP9Of3GbQpn+DVy8xj4OYn6bQoXnZGiR/urZxvvlcmPEVcxWcIQgAAEIAABCEAAAhCAAAQgAAEIQAACbUMAw1XbVAUFgQAEIAABCEAAAhCAAAQgAAEIQAACEIgJYLiKaRCGAAQgAAEIQAACEIAABCAAAQhAAAIQaBsCGK7apiooCAQgAAEIQAACEIAABCAAAQhAAAIQgEBMAMNVTIMwBCAAAQhAAAIQgAAEIAABCEAAAhCAQNsQwHDVNlVBQSAAAQhAAAIQgAAEIAABCEAAAhCAAARiAhiuYhqEIQABCEAAAhCAAAQgAAEIQAACEIAABNqGQGd3d3fTwnR1dTU9Fh9I1dM5HR0doVWe0klNr2w9yicCjZLKWWdSv/BLbS9l69H+GtueYlI5ww9+A2kvqe0qVY/2R/uj/RW3AY/l/cpJ1LY8X2os4lAql1Q9pU37iwn3heHXyEQxqVxS9ZQm7U8U6mUs8mPEVX0bYA8CEIAABCAAAQhAAAIQgAAEIAABCECgTQh09vT09FuUFB0lkqLX29ubpJeaXtl6lE9Ei4X6HTwXnQk/+PF8KW4D3B9D4wI/+IkAz5ehtQP4wc8JpLyvSbdMPdqf02/cpnCGXyM3j4Gfk6jfpnDRGSl6tL96tvFemfwYcRWTJQwBCEAAAhCAAAQgAAEIQAACEIAABCDQNgQwXLVNVVAQCEAAAhCAAAQgAAEIQAACEIAABCAAgZgAhquYBmEIQAACEIAABCAAAQhAAAIQgAAEIACBtiGA4aptqoKCQAACEIAABCAAAQhAAAIQgAAEIAABCMQEMFzFNAhDAAIQgAAEIAABCEAAAhCAAAQgAAEItA0BDFdtUxUUBAIQgAAEIAABCEAAAhCAAAQgAAEIQCAmgOEqpkEYAhCAAAQgAAEIQAACEIAABCAAAQhAoG0IdHZ3dzctTFdXV9Nj8YFUPZ3T0dERWuUpndT0ytajfCLQKKmcdSb1C7/U9lK2Hu2vse0pJpUz/OA3kPaS2q5S9Wh/tD/aX3Eb8Fjer5xEbcvzpcYiDqVySdVT2rS/mHBfGH6NTBSTyiVVT2nS/kShXsYiP0Zc1bcB9iAAAQhAAAIQgAAEIAABCEAAAhCAAATahEBnT09Pv0VJ0VEiKXq9vb1Jeqnpla1H+US0WKjfwXPRmfCDH8+X4jbA/TE0LvCDnwjwfBlaO4Af/JxAyvuadMvUo/05/cZtCmf4NXLzGPg5ifptChedkaJH+6tnG++VyY8RVzFZwhCAAAQgAAEIQAACEIAABCAAAQhAAAJtQwDDVdtUBQWBAAQgAAEIQAACEIAABCAAAQhAAAIQiAlguIppEIYABCAAAQhAAAIQgAAEIAABCEAAAhBoGwIYrtqmKigIBCAAAQhAAAIQgAAEIAABCEAAAhCAQEwAw1VMgzAEIAABCEAAAhCAAAQgAAEIQAACEIBA2xDAcNU2VUFBIAABCEAAAhCAAAQgAAEIQAACEIAABGICGK5iGoQhAAEIQAACEIAABCAAAQhAAAIQgAAE2oYAhqu2qQoKAgEIQAACEIAABCAAAQhAAAIQgAAEIBATGLf22mu/H0fE4Y6OPrtWb29vHN0QTtXTiePHjw+TJ09uSCOOSE2vbD3KF9dCLZzKGX41ZnEIfjGNWjiVS6qeUub5UuPrIfg5ifptKpdUPaVO+6tnrD34NTIZCBf4wc8J8HxxErUt90eNRRxK5ZKqp7RpfzHhvjD8GpkoJpVLqp7SpP2JQr2MRX6dkyZNqqcQ7XV3d2d7PT09UWxjMFVPZ06cODG0ylM6qemVrUf5RKBRUjnrTOoXfv/fvh2tNghDYQAeUn3/5/VCxqEET4jdTlcvAvu8MabHNHz5JxK6al7urpO/MXvRU3Xmx++dvFRzVa2TP/mTv+sMtF7vV03iPHu+nBa5VXWp1sXY8peFn21+o0n0VF2qdTGm/IVCf/xHP/8q2GfAFQECBAgQIECAAAECBAgQIECAwCQCNq4mWQjTIECAAAECBAgQIECAAAECBAgQ6AVsXPUerggQIECAAAECBAgQIECAAAECBCYRsHE1yUKYBgECBAgQIECAAAECBAgQIECAQC9g46r3cEWAAAECBAgQIECAAAECBAgQIDCJgI2rSRbCNAgQIECAAAECBAgQIECAAAECBHoBG1e9hysCBAgQIECAAAECBAgQIECAAIFJBB7btr2cyrquLz/LH1Tr4p5lWb5++s6oqY53d535hcB4VJ3jTuvLr5qXu+vkb8xe9FSd+fF7Jy/VXFXr5E/+5O86A63X+1WTOM+eL6dFblVdqnUxtvxl4Web32gSPVWXal2MKX+h0B//0c8vrvoMuCJAgAABAgQIECBAgAABAgQIEJhE4LHv+69TqdTEIJW64zhKddXx7q4zvxC9Pqzv313iTn78PF+uM+Dv4zMXfvxCwPPlsxzw49cEKu9rUXtnnfw1/fFcceY3urUefk2iP1dc4o5Knfz1tvnqTj+/uMqy2gQIECBAgAABAgQIECBAgAABAtMI2LiaZilMhAABAgQIECBAgAABAgQIECBAIAvYuMoa2gQIECBAgAABAgQIECBAgAABAtMI2LiaZilMhAABAgQIECBAgAABAgQIECBAIAvYuMoa2gQIECBAgAABAgQIECBAgAABAtMI2LiaZilMhAABAgQIECBAgAABAgQIECBAIAvYuMoa2gQIECBAgAABAgQIECBAgAABAtMIPLZtezmZdV1ffpY/qNbFPcuyfP30nVFTHe/uOvMLgfGoOsed1pdfNS9318nfmL3oqTrz4/dOXqq5qtbJn/zJ33UGWq/3qyZxnj1fTovcqrpU62Js+cvCzza/0SR6qi7VuhhT/kKhP/6jn19c9RlwRYAAAQIECBAgQIAAAQIECBAgMInAY9/3X6dSqYlBKnXHcZTqquPdXWd+IXp9WN+/u8Sd/Ph5vlxnwN/HZy78+IWA58tnOeDHrwlU3tei9s46+Wv647nizG90az38mkR/rrjEHZU6+ett89Wdfn5xlWW1CRAgQIAAAQIECBAgQIAAAQIEphGwcTXNUpgIAQIECBAgQIAAAQIECBAgQIBAFrBxlTW0CRAgQIAAAQIECBAgQIAAAQIEphGwcTXNUpgIAQIECBAgQIAAAQIECBAgQIBAFrBxlTW0CRAgQIAAAQIECBAgQIAAAQIEphH4BjIfKsCX+oJfAAAAAElFTkSuQmCC;" vertex="1" parent="1"><mxGeometry x="-110" y="-60" width="1198" height="1238" as="geometry"/></mxCell></root></mxGraphModel></diagram></mxfile>